<?xml version="1.0" encoding="utf-8"?>
<!-- Generator: Adobe Illustrator 24.0.0, SVG Export Plug-In . SVG Version: 6.00 Build 0)  -->
<svg version="1.1" id="Layer_1" xmlns="http://www.w3.org/2000/svg" xmlns:xlink="http://www.w3.org/1999/xlink" x="0px" y="0px"
	 viewBox="0 0 100 100" style="enable-background:new 0 0 100 100;" xml:space="preserve">
<style type="text/css">
	.st0{fill:#23DAB5;}
</style>
<g>
	<g>
		<path class="st0" d="M59.3,51.7c0.9,0,1.7-0.5,2.2-1.2l10.9-19.8c0.6-1,0.3-2.3-0.6-3l-10.9-9.3c-0.4-0.4-1-0.6-1.6-0.6H40.7
			c-0.6,0-1.2,0.2-1.6,0.6l-10.9,9.3c-0.9,0.7-1.1,2-0.6,3l10.9,19.8c0.5,0.7,1.3,1.2,2.2,1.2h6.9v8.2c0,1.3,1,2.4,2.3,2.4
			c0.1,0,0.1,0,0.2,0c4.1,0,7.5,3.4,7.5,7.5c0,4.1-3.4,7.5-7.5,7.5s-7.5-3.4-7.5-7.5h-4.8c0,6.8,5.5,12.4,12.4,12.4
			c6.8,0,12.4-5.5,12.4-12.4c0-5.9-4.2-11-9.9-12.1v-6L59.3,51.7L59.3,51.7z"/>
	</g>
</g>
</svg>
