<?xml version="1.0" encoding="utf-8"?>
<!-- Generator: Adobe Illustrator 24.0.0, SVG Export Plug-In . SVG Version: 6.00 Build 0)  -->
<svg version="1.1" id="Layer_1" xmlns="http://www.w3.org/2000/svg" xmlns:xlink="http://www.w3.org/1999/xlink" x="0px" y="0px"
	 viewBox="0 0 100 100" style="enable-background:new 0 0 100 100;" xml:space="preserve">
<style type="text/css">
	.st0{fill:#23DAB5;}
</style>
<g>
	<g>
		<g>
			<path class="st0" d="M21.2,58.2l1.2,3.8c0.1,0.2,0.3,0.4,0.5,0.4h34.7c10.2,0,19-4.4,22.7-10.6c0.2-0.4-0.1-0.9-0.5-0.8
				l-58.1,6.5C21.3,57.5,21.1,57.8,21.2,58.2z"/>
		</g>
	</g>
	<g>
		<g>
			<path class="st0" d="M17.9,47.6l2.3,7.4c0.1,0.3,0.3,0.4,0.6,0.4l60.5-6.8c0.2,0,0.4-0.2,0.5-0.4c0.3-1,0.4-2,0.4-3
				c0-0.3-0.1-0.6-0.3-0.8c-0.2-0.2-0.5-0.3-0.8-0.3l-14.7,1.6c-0.2,0-0.4-0.1-0.5-0.2c-0.9-1.3-5.2-7.3-5.2-7.3
				c-0.2-0.3-0.6-0.5-0.9-0.5l-22.5,1.1c-0.4,0-0.7,0.2-0.9,0.6c-0.2,0.3-0.2,0.8,0.1,1.1l1.9,2.8c0.1,0.1,0.1,0.2,0.1,0.3v4.7
				c0,0.3-0.2,0.5-0.5,0.5l-4.3,0.5c-0.3,0-0.6-0.2-0.6-0.5V47c0-0.3,0.2-0.5,0.5-0.5l1.8-0.2c0.6-0.1,1-0.6,0.9-1.2
				c-0.1-0.6-0.6-1-1.2-0.9l-16.1,2.1c-0.3,0-0.6,0.2-0.8,0.5C17.9,47,17.8,47.3,17.9,47.6z M51.7,40.2l7.1-0.3
				c0.2,0,0.4,0.1,0.5,0.2l3.7,5.2c0.2,0.3,0,0.8-0.4,0.8c0,0-7.8,0.8-9.9,1c-0.3,0-0.5-0.2-0.6-0.5l-0.8-5.8
				C51.2,40.5,51.4,40.2,51.7,40.2z M40,40.8l8.5-0.4c0.3,0,0.5,0.2,0.6,0.5l0.9,6.1c0,0.3-0.2,0.6-0.5,0.6L41,48.4
				c-0.3,0-0.6-0.2-0.6-0.5v-5c0-0.1,0-0.2-0.1-0.3l-0.7-1C39.4,41.3,39.6,40.8,40,40.8z M26.4,47.9c0-0.3,0.2-0.5,0.5-0.5l3.2-0.4
				c0.3,0,0.6,0.2,0.6,0.5V49c0,0.3-0.2,0.5-0.5,0.5c-1,0.1-3.2,0.4-3.2,0.4c-0.3,0-0.6-0.2-0.6-0.5C26.4,49.4,26.4,47.9,26.4,47.9z
				 M21,48.1l2.7-0.4c0.3,0,0.6,0.2,0.6,0.5v1.4c0,0.3-0.2,0.5-0.5,0.5l-2.3,0.3c-0.3,0-0.5-0.1-0.6-0.4l-0.4-1.3
				C20.4,48.5,20.6,48.2,21,48.1z"/>
		</g>
	</g>
</g>
</svg>
