<?xml version="1.0" encoding="utf-8"?>
<!-- Generator: Adobe Illustrator 24.0.0, SVG Export Plug-In . SVG Version: 6.00 Build 0)  -->
<svg version="1.1" id="Layer_1" xmlns="http://www.w3.org/2000/svg" xmlns:xlink="http://www.w3.org/1999/xlink" x="0px" y="0px"
	 viewBox="0 0 100 100" style="enable-background:new 0 0 100 100;" xml:space="preserve">
<style type="text/css">
	.st0{fill:#23DAB5;}
</style>
<g>
	<g>
		<g>
			<path class="st0" d="M62.7,65.4c0,3.7,3,6.7,6.7,6.7s6.7-3,6.7-6.7c0-3.7-3-6.7-6.7-6.7C65.7,58.7,62.7,61.7,62.7,65.4z
				 M64.9,65.4c0-2.5,2-4.5,4.5-4.5s4.5,2,4.5,4.5s-2,4.5-4.5,4.5C67,69.9,64.9,67.9,64.9,65.4z"/>
		</g>
	</g>
	<g>
		<g>
			<path class="st0" d="M24.7,65.4c0,3.7,3,6.7,6.7,6.7s6.7-3,6.7-6.7c0-3.7-3-6.7-6.7-6.7C27.7,58.7,24.7,61.7,24.7,65.4z M27,65.4
				c0-2.5,2-4.5,4.5-4.5s4.5,2,4.5,4.5s-2,4.5-4.5,4.5C29,69.9,27,67.9,27,65.4z"/>
		</g>
	</g>
	<g>
		<g>
			<path class="st0" d="M16.4,56.5V62c0,0.6,0.5,1.1,1.1,1.1H22c0.5,0,0.9-0.3,1.1-0.8c1.3-3.5,4.6-5.9,8.4-5.9c3.8,0,7.2,2.4,8.4,6
				c0.2,0.5,0.6,0.7,1.1,0.7h16.8c0.6,0,1.1-0.5,1.1-1.1v-3.3h3.3c0.3,0,0.5-0.1,0.7-0.3c1.4-1.1,4.2-2,6.5-2c3.8,0,7.2,2.4,8.4,6
				c0.2,0.5,0.6,0.7,1.1,0.7h3.3c0.6,0,1.1-0.5,1.1-1.1V49.8c0-0.2-0.1-0.4-0.2-0.6l-6.7-10.1c-0.2-0.3-0.6-0.5-0.9-0.5H62.2
				c-0.6,0-1.1,0.5-1.1,1.1v16.8h-2.2V33c0-2.5-2-4.5-4.5-4.5H19.7c-0.6,0-1.1,0.5-1.1,1.1v25.7h-1.1C16.9,55.3,16.4,55.8,16.4,56.5
				z M67.8,41.4c0-0.3,0.3-0.6,0.6-0.6h6.4c0.2,0,0.4,0.1,0.5,0.3l4.5,6.7c0.3,0.4,0,0.9-0.5,0.9H68.3c-0.3,0-0.6-0.3-0.6-0.6
				C67.8,48.1,67.8,41.4,67.8,41.4z"/>
		</g>
	</g>
</g>
</svg>
