<?xml version="1.0" encoding="utf-8"?>
<!-- Generator: Adobe Illustrator 24.0.0, SVG Export Plug-In . SVG Version: 6.00 Build 0)  -->
<svg version="1.1" id="Layer_1" xmlns="http://www.w3.org/2000/svg" xmlns:xlink="http://www.w3.org/1999/xlink" x="0px" y="0px"
	 viewBox="0 0 100 100" style="enable-background:new 0 0 100 100;" xml:space="preserve">
<style type="text/css">
	.st0{fill:#23DAB5;}
</style>
<g>
	<path class="st0" d="M69.92,65.63c-1.44,0-2.6,1.17-2.6,2.6c0,1.44,1.17,2.6,2.6,2.6s2.6-1.17,2.6-2.6
		C72.53,66.79,71.36,65.63,69.92,65.63z"/>
	<path class="st0" d="M32.29,65.63c-1.44,0-2.6,1.17-2.6,2.6c0,1.44,1.17,2.6,2.6,2.6c1.44,0,2.6-1.17,2.6-2.6
		C34.89,66.79,33.73,65.63,32.29,65.63z"/>
	<path class="st0" d="M25.78,55.21c0.72,0,1.3-0.58,1.3-1.3s-0.58-1.3-1.3-1.3c-0.72,0-1.3,0.58-1.3,1.3S25.06,55.21,25.78,55.21z"
		/>
	<path class="st0" d="M16.66,64.32c0,2.15,1.75,3.91,3.91,3.91h3.91c0,4.31,3.5,7.81,7.81,7.81s7.81-3.5,7.81-7.81h22.01
		c0,4.31,3.5,7.81,7.81,7.81s7.81-3.5,7.81-7.81h1.69c2.15,0,3.91-1.75,3.91-3.91V27.86c0-2.15-1.75-3.91-3.91-3.91H47.4
		c-2.15,0-3.91,1.75-3.91,3.91v3.91H32.87c-1.69,0-3.18,1.07-3.71,2.67c-0.68,2.03-3.21,9.63-4.33,13
		c-0.09,0.27-0.27,0.51-0.51,0.67l-4.75,3.17c-1.82,1.21-2.9,3.23-2.9,5.42V64.32z M32.29,73.44c-2.87,0-5.21-2.34-5.21-5.21
		c0-2.91,2.38-5.21,5.21-5.21c2.84,0,5.21,2.3,5.21,5.21C37.5,71.1,35.16,73.44,32.29,73.44z M69.92,73.44
		c-2.87,0-5.21-2.34-5.21-5.21c0-2.91,2.38-5.21,5.21-5.21c2.84,0,5.21,2.3,5.21,5.21C75.13,71.1,72.8,73.44,69.92,73.44z
		 M46.09,27.86c0-0.72,0.58-1.3,1.3-1.3h32.03c0.72,0,1.3,0.58,1.3,1.3v36.46c0,0.72-0.58,1.3-1.3,1.3h-2.14
		c-1.09-3.07-4.03-5.21-7.37-5.21c-3.34,0-6.28,2.14-7.37,5.21H46.09V27.86z M29.76,40.88h8.52v6.51H27.59L29.76,40.88z
		 M21.01,53.44l4.75-3.16c0.13-0.08,0.25-0.18,0.37-0.28h13.46c0.72,0,1.3-0.58,1.3-1.3v-9.12c0-0.72-0.58-1.3-1.3-1.3h-8.96
		l1.01-3.02c0.18-0.53,0.67-0.89,1.24-0.89h10.62v31.25h-3.83c-1.09-3.07-4.03-5.21-7.37-5.21c-3.34,0-6.28,2.14-7.37,5.21h-4.35
		c-0.72,0-1.3-0.58-1.3-1.3v-1.3h3.91c0.72,0,1.3-0.58,1.3-1.3c0-0.72-0.58-1.3-1.3-1.3h-3.91v-3.72
		C19.27,55.38,19.92,54.17,21.01,53.44z"/>
	<path class="st0" d="M51.69,52.6h23.44c0.72,0,1.3-0.58,1.3-1.3c0-0.72-0.58-1.3-1.3-1.3h-1.3c0-4.58-2.95-8.44-6.99-9.84
		c0.31-0.56,0.48-1.2,0.48-1.88c0-2.15-1.75-3.91-3.91-3.91s-3.91,1.75-3.91,3.91c0,0.68,0.18,1.32,0.48,1.88
		c-4.07,1.42-7,5.29-7,9.84h-1.3c-0.72,0-1.3,0.58-1.3,1.3C50.39,52.02,50.97,52.6,51.69,52.6z M62.11,38.28
		c0-0.72,0.58-1.3,1.3-1.3s1.3,0.58,1.3,1.3c0,0.72-0.58,1.3-1.3,1.3S62.11,39,62.11,38.28z M63.41,42.19
		c4.31,0,7.81,3.49,7.81,7.81H55.6C55.6,45.69,59.1,42.19,63.41,42.19z"/>
	<path class="st0" d="M30.99,55.21h8.59c0.72,0,1.3-0.58,1.3-1.3c0-0.72-0.58-1.3-1.3-1.3h-8.59c-0.72,0-1.3,0.58-1.3,1.3
		C29.69,54.63,30.27,55.21,30.99,55.21z"/>
</g>
</svg>
