<?xml version="1.0" encoding="utf-8"?>
<!-- Generator: Adobe Illustrator 24.0.0, SVG Export Plug-In . SVG Version: 6.00 Build 0)  -->
<svg version="1.1" id="Layer_1" xmlns="http://www.w3.org/2000/svg" xmlns:xlink="http://www.w3.org/1999/xlink" x="0px" y="0px"
	 viewBox="0 0 100 100" style="enable-background:new 0 0 100 100;" xml:space="preserve">
<style type="text/css">
	.st0{fill:#23DAB5;}
</style>
<g>
	<g>
		<g>
			<path class="st0" d="M16.3,29.7v19.5c0,0.8,0.7,1.5,1.5,1.5h63.9c0.8,0,1.5-0.7,1.5-1.5V29.7c0-1-0.7-1.8-1.5-1.8H17.8
				C17,27.9,16.3,28.7,16.3,29.7z"/>
		</g>
	</g>
	<g>
		<g>
			<path class="st0" d="M16.3,55.3v9.1c0,0.8,0.7,1.5,1.5,1.5h4.6c0,3.4,2.7,6.1,6.1,6.1s6.1-2.7,6.1-6.1h9.1c0,3.4,2.7,6.1,6.1,6.1
				c3.3,0,6.1-2.7,6.1-6.1h4.6l0,0c0.5,0,0.9-0.2,1.2-0.6c0.2-0.3,0.3-0.7,0.3-1.1v-9c0-0.8-0.7-1.5-1.5-1.5H17.8
				C17,53.8,16.3,54.5,16.3,55.3z M46.7,66c0-1.7,1.4-3,3-3s3,1.4,3,3s-1.4,3-3,3C48.1,69,46.7,67.7,46.7,66z M25.4,66
				c0-1.7,1.4-3,3-3c1.7,0,3,1.4,3,3s-1.4,3-3,3C26.8,69,25.4,67.7,25.4,66z"/>
		</g>
	</g>
</g>
</svg>
