<svg id="svg" version="1.1" xmlns="http://www.w3.org/2000/svg" xmlns:xlink="http://www.w3.org/1999/xlink" width="400" height="400" viewBox="0, 0, 400,400"><g id="svgg"><path id="path0" d="M0.000 95.000 L 0.000 190.000 89.400 190.000 C 148.733 190.000,178.800 189.865,178.800 189.600 C 178.800 189.380,179.070 189.200,179.400 189.200 C 179.730 189.200,180.000 189.380,180.000 189.600 C 180.000 190.113,182.834 190.119,184.174 189.610 C 184.841 189.356,185.200 189.356,185.200 189.610 C 185.200 189.824,186.010 190.000,187.000 190.000 C 188.333 190.000,188.800 189.844,188.800 189.400 C 188.800 189.070,189.057 188.800,189.372 188.800 C 189.834 188.800,189.942 187.952,189.936 184.400 C 189.932 181.980,189.764 180.000,189.564 180.000 C 189.364 180.000,189.200 179.730,189.200 179.400 C 189.200 179.070,189.380 178.800,189.600 178.800 C 189.866 178.800,189.972 148.755,189.917 89.300 C 189.871 40.075,189.728 2.410,189.600 5.600 L 189.366 11.400 189.283 5.700 L 189.200 0.000 94.600 0.000 L 0.000 0.000 0.000 95.000 M210.353 12.600 C 210.725 31.744,210.644 153.723,210.252 165.200 C 209.956 173.850,209.998 175.849,210.526 178.354 C 211.067 180.921,211.073 181.384,210.574 181.883 C 210.258 182.199,210.000 183.194,210.000 184.095 C 210.000 185.955,210.356 185.875,210.776 183.920 C 210.980 182.974,211.056 183.430,211.047 185.532 C 211.039 187.154,210.904 188.137,210.745 187.732 C 210.496 187.100,210.452 187.092,210.428 187.671 C 210.360 189.303,212.170 189.944,216.818 189.936 C 219.298 189.931,221.200 189.764,221.200 189.550 C 221.200 189.325,221.513 189.339,221.974 189.586 C 222.500 189.868,251.046 190.000,311.374 190.000 L 400.000 190.000 400.000 95.000 L 400.000 0.000 305.400 0.000 L 210.800 0.000 210.713 7.700 L 210.626 15.400 210.369 7.800 C 210.228 3.620,210.221 5.780,210.353 12.600 M211.087 19.900 C 210.995 20.505,210.920 20.010,210.920 18.800 C 210.920 17.590,210.995 17.095,211.087 17.700 C 211.178 18.305,211.178 19.295,211.087 19.900 M130.702 90.300 L 130.600 130.600 90.300 130.702 L 50.000 130.804 50.000 90.402 L 50.000 50.000 90.402 50.000 L 130.804 50.000 130.702 90.300 M350.702 90.300 L 350.600 130.600 310.300 130.702 L 270.000 130.804 270.000 90.402 L 270.000 50.000 310.402 50.000 L 350.804 50.000 350.702 90.300 M211.087 162.300 C 210.995 162.905,210.920 162.410,210.920 161.200 C 210.920 159.990,210.995 159.495,211.087 160.100 C 211.178 160.705,211.178 161.695,211.087 162.300 M210.896 168.492 C 210.974 169.972,210.896 170.962,210.725 170.692 C 210.553 170.421,210.430 168.940,210.453 167.400 C 210.499 164.151,210.695 164.633,210.896 168.492 M7.800 210.369 L 15.400 210.626 7.700 210.713 L 0.000 210.800 0.000 305.400 L 0.000 400.000 95.000 400.000 L 190.000 400.000 190.000 311.374 C 190.000 251.046,189.868 222.500,189.586 221.974 C 189.339 221.513,189.325 221.200,189.550 221.200 C 189.764 221.200,189.931 219.298,189.936 216.818 C 189.944 212.170,189.303 210.360,187.671 210.428 C 187.092 210.452,187.100 210.496,187.732 210.745 C 188.137 210.904,187.154 211.039,185.532 211.047 C 183.430 211.056,182.974 210.980,183.920 210.776 C 185.853 210.361,185.962 210.000,184.156 210.000 C 183.288 210.000,182.223 210.244,181.789 210.542 C 181.124 211.000,180.593 210.995,178.400 210.514 C 176.283 210.049,173.829 210.004,165.200 210.272 C 153.020 210.649,31.193 210.714,12.600 210.353 C 5.780 210.221,3.620 210.228,7.800 210.369 M214.800 210.400 C 215.130 210.613,215.816 210.791,216.324 210.794 C 216.836 210.797,217.137 210.978,217.000 211.200 C 216.864 211.420,216.973 211.600,217.243 211.600 C 217.513 211.600,217.640 211.693,217.526 211.807 C 217.412 211.921,216.797 211.742,216.160 211.410 C 214.161 210.368,212.044 210.908,211.244 212.663 C 210.649 213.968,210.688 214.775,211.410 216.160 C 211.742 216.797,211.921 217.412,211.807 217.526 C 211.693 217.640,211.600 217.513,211.600 217.243 C 211.600 216.973,211.420 216.864,211.200 217.000 C 210.978 217.137,210.797 216.836,210.794 216.324 C 210.791 215.816,210.613 215.130,210.400 214.800 C 210.115 214.360,210.011 214.645,210.006 215.871 C 210.003 216.798,210.256 217.799,210.574 218.117 C 211.073 218.616,211.067 219.079,210.526 221.646 C 209.998 224.151,209.956 226.150,210.252 234.800 C 210.644 246.277,210.725 368.256,210.353 387.400 C 210.221 394.220,210.228 396.380,210.369 392.200 L 210.626 384.600 210.713 392.300 L 210.800 400.000 305.400 400.000 L 400.000 400.000 400.000 305.400 L 400.000 210.800 392.300 210.713 L 384.600 210.626 392.200 210.369 C 396.380 210.228,394.130 210.221,387.200 210.352 C 367.701 210.723,246.256 210.643,234.800 210.252 C 226.150 209.956,224.151 209.998,221.646 210.526 C 219.079 211.067,218.616 211.073,218.117 210.574 C 217.799 210.256,216.798 210.003,215.871 210.006 C 214.645 210.011,214.360 210.115,214.800 210.400 M170.539 210.700 C 170.641 210.865,169.797 210.949,168.662 210.886 C 164.984 210.682,164.537 210.521,167.476 210.460 C 169.058 210.427,170.436 210.535,170.539 210.700 M211.062 211.131 C 210.698 211.534,210.411 212.119,210.425 212.431 C 210.439 212.744,210.615 212.591,210.816 212.091 C 211.017 211.590,211.590 211.017,212.091 210.816 C 212.676 210.581,212.773 210.442,212.362 210.425 C 212.011 210.411,211.426 210.729,211.062 211.131 M234.800 210.624 C 233.416 210.928,228.857 211.011,229.308 210.725 C 229.579 210.553,231.060 210.430,232.600 210.453 C 234.140 210.475,235.130 210.552,234.800 210.624 M19.900 211.087 C 19.295 211.178,18.305 211.178,17.700 211.087 C 17.095 210.995,17.590 210.920,18.800 210.920 C 20.010 210.920,20.505 210.995,19.900 211.087 M161.900 211.087 C 161.295 211.178,160.305 211.178,159.700 211.087 C 159.095 210.995,159.590 210.920,160.800 210.920 C 162.010 210.920,162.505 210.995,161.900 211.087 M239.900 211.087 C 239.295 211.178,238.305 211.178,237.700 211.087 C 237.095 210.995,237.590 210.920,238.800 210.920 C 240.010 210.920,240.505 210.995,239.900 211.087 M381.900 211.087 C 381.295 211.178,380.305 211.178,379.700 211.087 C 379.095 210.995,379.590 210.920,380.800 210.920 C 382.010 210.920,382.505 210.995,381.900 211.087 M210.782 232.200 L 210.532 235.400 210.466 232.733 C 210.412 230.533,210.689 228.396,210.965 228.883 C 211.002 228.947,210.920 230.440,210.782 232.200 M211.087 239.900 C 210.995 240.505,210.920 240.010,210.920 238.800 C 210.920 237.590,210.995 237.095,211.087 237.700 C 211.178 238.305,211.178 239.295,211.087 239.900 M130.702 310.300 L 130.600 350.600 90.300 350.702 L 50.000 350.804 50.000 310.402 L 50.000 270.000 90.402 270.000 L 130.804 270.000 130.702 310.300 M350.702 310.300 L 350.600 350.600 310.300 350.702 L 270.000 350.804 270.000 310.402 L 270.000 270.000 310.402 270.000 L 350.804 270.000 350.702 310.300 M211.087 382.300 C 210.995 382.905,210.920 382.410,210.920 381.200 C 210.920 379.990,210.995 379.495,211.087 380.100 C 211.178 380.705,211.178 381.695,211.087 382.300 " stroke="none" fill="#276eac" fill-rule="evenodd"></path><path id="path1" d="M189.359 5.600 C 189.359 8.790,189.421 10.095,189.497 8.500 C 189.573 6.905,189.573 4.295,189.497 2.700 C 189.421 1.105,189.359 2.410,189.359 5.600 M210.567 7.600 C 210.567 11.890,210.626 13.645,210.698 11.500 C 210.770 9.355,210.770 5.845,210.698 3.700 C 210.626 1.555,210.567 3.310,210.567 7.600 M210.140 90.000 C 210.140 130.370,210.264 161.240,210.416 158.600 C 210.567 155.960,210.692 125.090,210.692 90.000 C 210.692 54.910,210.567 24.040,210.416 21.400 C 210.264 18.760,210.140 49.630,210.140 90.000 M210.920 18.800 C 210.920 20.010,210.995 20.505,211.087 19.900 C 211.178 19.295,211.178 18.305,211.087 17.700 C 210.995 17.095,210.920 17.590,210.920 18.800 M130.000 90.000 L 130.000 130.000 90.000 130.000 C 63.473 130.000,50.000 130.135,50.000 130.402 C 50.000 130.669,63.504 130.770,90.300 130.702 L 130.600 130.600 130.702 90.300 C 130.770 63.504,130.669 50.000,130.402 50.000 C 130.135 50.000,130.000 63.473,130.000 90.000 M350.000 90.000 L 350.000 130.000 310.000 130.000 C 283.473 130.000,270.000 130.135,270.000 130.402 C 270.000 130.669,283.504 130.770,310.300 130.702 L 350.600 130.600 350.702 90.300 C 350.770 63.504,350.669 50.000,350.402 50.000 C 350.135 50.000,350.000 63.473,350.000 90.000 M210.920 161.200 C 210.920 162.410,210.995 162.905,211.087 162.300 C 211.178 161.695,211.178 160.705,211.087 160.100 C 210.995 159.495,210.920 159.990,210.920 161.200 M210.453 167.400 C 210.430 168.940,210.553 170.421,210.725 170.692 C 210.896 170.962,210.974 169.972,210.896 168.492 C 210.695 164.633,210.499 164.151,210.453 167.400 M210.000 179.562 C 210.000 182.039,210.081 182.377,210.558 181.899 C 211.002 181.456,211.035 180.894,210.723 179.170 C 210.171 176.128,210.000 176.221,210.000 179.562 M189.200 179.400 C 189.200 179.730,189.380 180.000,189.600 180.000 C 189.820 180.000,190.000 179.730,190.000 179.400 C 190.000 179.070,189.820 178.800,189.600 178.800 C 189.380 178.800,189.200 179.070,189.200 179.400 M210.614 184.701 C 210.470 185.746,210.505 187.015,210.693 187.521 C 210.937 188.183,211.040 187.649,211.059 185.621 C 211.089 182.317,210.974 182.080,210.614 184.701 M178.800 189.600 C 178.800 189.820,179.070 190.000,179.400 190.000 C 179.730 190.000,180.000 189.820,180.000 189.600 C 180.000 189.380,179.730 189.200,179.400 189.200 C 179.070 189.200,178.800 189.380,178.800 189.600 M21.400 210.416 C 24.040 210.567,54.820 210.692,89.800 210.692 C 124.780 210.692,155.560 210.567,158.200 210.416 C 160.840 210.264,130.060 210.140,89.800 210.140 C 49.540 210.140,18.760 210.264,21.400 210.416 M176.833 210.165 C 177.421 210.746,181.154 211.023,181.821 210.535 C 182.457 210.070,182.166 210.000,179.610 210.000 C 177.991 210.000,176.742 210.074,176.833 210.165 M218.101 210.558 C 218.544 211.002,219.106 211.035,220.830 210.723 C 223.872 210.171,223.779 210.000,220.438 210.000 C 217.961 210.000,217.623 210.081,218.101 210.558 M241.400 210.416 C 244.040 210.567,274.820 210.692,309.800 210.692 C 344.780 210.692,375.560 210.567,378.200 210.416 C 380.840 210.264,350.060 210.140,309.800 210.140 C 269.540 210.140,238.760 210.264,241.400 210.416 M3.700 210.698 C 5.845 210.770,9.355 210.770,11.500 210.698 C 13.645 210.626,11.890 210.567,7.600 210.567 C 3.310 210.567,1.555 210.626,3.700 210.698 M165.600 210.646 C 167.988 210.946,170.710 210.976,170.539 210.700 C 170.436 210.535,169.058 210.427,167.476 210.460 C 165.894 210.493,165.050 210.576,165.600 210.646 M183.800 210.771 C 182.999 210.956,183.574 211.045,185.532 211.040 C 187.147 211.036,188.135 210.903,187.732 210.745 C 186.839 210.393,185.400 210.403,183.800 210.771 M212.094 210.815 C 211.596 211.015,211.000 211.675,210.769 212.281 C 210.297 213.524,210.676 217.324,211.238 216.977 C 211.437 216.854,211.600 216.973,211.600 217.243 C 211.600 217.513,211.693 217.640,211.807 217.526 C 211.921 217.412,211.742 216.797,211.410 216.160 C 210.368 214.161,210.908 212.044,212.663 211.244 C 213.968 210.649,214.775 210.688,216.160 211.410 C 216.797 211.742,217.412 211.921,217.526 211.807 C 217.640 211.693,217.513 211.600,217.243 211.600 C 216.973 211.600,216.850 211.443,216.968 211.251 C 217.395 210.560,213.578 210.218,212.094 210.815 M229.308 210.725 C 229.038 210.896,230.028 210.974,231.508 210.896 C 235.367 210.695,235.849 210.499,232.600 210.453 C 231.060 210.430,229.579 210.553,229.308 210.725 M388.500 210.698 C 390.645 210.770,394.155 210.770,396.300 210.698 C 398.445 210.626,396.690 210.567,392.400 210.567 C 388.110 210.567,386.355 210.626,388.500 210.698 M17.700 211.087 C 18.305 211.178,19.295 211.178,19.900 211.087 C 20.505 210.995,20.010 210.920,18.800 210.920 C 17.590 210.920,17.095 210.995,17.700 211.087 M159.700 211.087 C 160.305 211.178,161.295 211.178,161.900 211.087 C 162.505 210.995,162.010 210.920,160.800 210.920 C 159.590 210.920,159.095 210.995,159.700 211.087 M237.700 211.087 C 238.305 211.178,239.295 211.178,239.900 211.087 C 240.505 210.995,240.010 210.920,238.800 210.920 C 237.590 210.920,237.095 210.995,237.700 211.087 M379.700 211.087 C 380.305 211.178,381.295 211.178,381.900 211.087 C 382.505 210.995,382.010 210.920,380.800 210.920 C 379.590 210.920,379.095 210.995,379.700 211.087 M210.000 220.438 C 210.000 223.779,210.171 223.872,210.723 220.830 C 211.035 219.106,211.002 218.544,210.558 218.101 C 210.081 217.623,210.000 217.961,210.000 220.438 M210.649 229.415 C 210.512 229.773,210.430 231.266,210.466 232.733 L 210.532 235.400 210.782 232.200 C 211.051 228.757,211.035 228.412,210.649 229.415 M210.140 310.000 C 210.140 350.370,210.264 381.240,210.416 378.600 C 210.567 375.960,210.692 345.090,210.692 310.000 C 210.692 274.910,210.567 244.040,210.416 241.400 C 210.264 238.760,210.140 269.630,210.140 310.000 M210.920 238.800 C 210.920 240.010,210.995 240.505,211.087 239.900 C 211.178 239.295,211.178 238.305,211.087 237.700 C 210.995 237.095,210.920 237.590,210.920 238.800 M130.000 310.000 L 130.000 350.000 90.000 350.000 C 63.473 350.000,50.000 350.135,50.000 350.402 C 50.000 350.669,63.504 350.770,90.300 350.702 L 130.600 350.600 130.702 310.300 C 130.770 283.504,130.669 270.000,130.402 270.000 C 130.135 270.000,130.000 283.473,130.000 310.000 M350.000 310.000 L 350.000 350.000 310.000 350.000 C 283.473 350.000,270.000 350.135,270.000 350.402 C 270.000 350.669,283.504 350.770,310.300 350.702 L 350.600 350.600 350.702 310.300 C 350.770 283.504,350.669 270.000,350.402 270.000 C 350.135 270.000,350.000 283.473,350.000 310.000 M210.920 381.200 C 210.920 382.410,210.995 382.905,211.087 382.300 C 211.178 381.695,211.178 380.705,211.087 380.100 C 210.995 379.495,210.920 379.990,210.920 381.200 M210.567 392.400 C 210.567 396.690,210.626 398.445,210.698 396.300 C 210.770 394.155,210.770 390.645,210.698 388.500 C 210.626 386.355,210.567 388.110,210.567 392.400 " stroke="none" fill="#a09c9c" fill-rule="evenodd"></path><path id="path2" d="M189.359 5.600 C 189.359 8.790,189.421 10.095,189.497 8.500 C 189.573 6.905,189.573 4.295,189.497 2.700 C 189.421 1.105,189.359 2.410,189.359 5.600 M210.567 7.600 C 210.567 11.890,210.626 13.645,210.698 11.500 C 210.770 9.355,210.770 5.845,210.698 3.700 C 210.626 1.555,210.567 3.310,210.567 7.600 M210.140 90.000 C 210.140 130.370,210.264 161.240,210.416 158.600 C 210.567 155.960,210.692 125.090,210.692 90.000 C 210.692 54.910,210.567 24.040,210.416 21.400 C 210.264 18.760,210.140 49.630,210.140 90.000 M210.920 18.800 C 210.920 20.010,210.995 20.505,211.087 19.900 C 211.178 19.295,211.178 18.305,211.087 17.700 C 210.995 17.095,210.920 17.590,210.920 18.800 M130.000 90.000 L 130.000 130.000 90.000 130.000 C 63.473 130.000,50.000 130.135,50.000 130.402 C 50.000 130.669,63.504 130.770,90.300 130.702 L 130.600 130.600 130.702 90.300 C 130.770 63.504,130.669 50.000,130.402 50.000 C 130.135 50.000,130.000 63.473,130.000 90.000 M350.000 90.000 L 350.000 130.000 310.000 130.000 C 283.473 130.000,270.000 130.135,270.000 130.402 C 270.000 130.669,283.504 130.770,310.300 130.702 L 350.600 130.600 350.702 90.300 C 350.770 63.504,350.669 50.000,350.402 50.000 C 350.135 50.000,350.000 63.473,350.000 90.000 M210.920 161.200 C 210.920 162.410,210.995 162.905,211.087 162.300 C 211.178 161.695,211.178 160.705,211.087 160.100 C 210.995 159.495,210.920 159.990,210.920 161.200 M210.453 167.400 C 210.430 168.940,210.553 170.421,210.725 170.692 C 210.896 170.962,210.974 169.972,210.896 168.492 C 210.695 164.633,210.499 164.151,210.453 167.400 M210.000 179.562 C 210.000 182.039,210.081 182.377,210.558 181.899 C 211.002 181.456,211.035 180.894,210.723 179.170 C 210.171 176.128,210.000 176.221,210.000 179.562 M189.200 179.400 C 189.200 179.730,189.380 180.000,189.600 180.000 C 189.820 180.000,190.000 179.730,190.000 179.400 C 190.000 179.070,189.820 178.800,189.600 178.800 C 189.380 178.800,189.200 179.070,189.200 179.400 M210.614 184.701 C 210.470 185.746,210.505 187.015,210.693 187.521 C 210.937 188.183,211.040 187.649,211.059 185.621 C 211.089 182.317,210.974 182.080,210.614 184.701 M178.800 189.600 C 178.800 189.820,179.070 190.000,179.400 190.000 C 179.730 190.000,180.000 189.820,180.000 189.600 C 180.000 189.380,179.730 189.200,179.400 189.200 C 179.070 189.200,178.800 189.380,178.800 189.600 M21.400 210.416 C 24.040 210.567,54.820 210.692,89.800 210.692 C 124.780 210.692,155.560 210.567,158.200 210.416 C 160.840 210.264,130.060 210.140,89.800 210.140 C 49.540 210.140,18.760 210.264,21.400 210.416 M176.833 210.165 C 177.421 210.746,181.154 211.023,181.821 210.535 C 182.457 210.070,182.166 210.000,179.610 210.000 C 177.991 210.000,176.742 210.074,176.833 210.165 M218.101 210.558 C 218.544 211.002,219.106 211.035,220.830 210.723 C 223.872 210.171,223.779 210.000,220.438 210.000 C 217.961 210.000,217.623 210.081,218.101 210.558 M241.400 210.416 C 244.040 210.567,274.820 210.692,309.800 210.692 C 344.780 210.692,375.560 210.567,378.200 210.416 C 380.840 210.264,350.060 210.140,309.800 210.140 C 269.540 210.140,238.760 210.264,241.400 210.416 M3.700 210.698 C 5.845 210.770,9.355 210.770,11.500 210.698 C 13.645 210.626,11.890 210.567,7.600 210.567 C 3.310 210.567,1.555 210.626,3.700 210.698 M165.600 210.646 C 167.988 210.946,170.710 210.976,170.539 210.700 C 170.436 210.535,169.058 210.427,167.476 210.460 C 165.894 210.493,165.050 210.576,165.600 210.646 M183.800 210.771 C 182.999 210.956,183.574 211.045,185.532 211.040 C 187.147 211.036,188.135 210.903,187.732 210.745 C 186.839 210.393,185.400 210.403,183.800 210.771 M212.094 210.815 C 211.596 211.015,211.000 211.675,210.769 212.281 C 210.297 213.524,210.676 217.324,211.238 216.977 C 211.437 216.854,211.600 216.973,211.600 217.243 C 211.600 217.513,211.693 217.640,211.807 217.526 C 211.921 217.412,211.742 216.797,211.410 216.160 C 210.368 214.161,210.908 212.044,212.663 211.244 C 213.968 210.649,214.775 210.688,216.160 211.410 C 216.797 211.742,217.412 211.921,217.526 211.807 C 217.640 211.693,217.513 211.600,217.243 211.600 C 216.973 211.600,216.850 211.443,216.968 211.251 C 217.395 210.560,213.578 210.218,212.094 210.815 M229.308 210.725 C 229.038 210.896,230.028 210.974,231.508 210.896 C 235.367 210.695,235.849 210.499,232.600 210.453 C 231.060 210.430,229.579 210.553,229.308 210.725 M388.500 210.698 C 390.645 210.770,394.155 210.770,396.300 210.698 C 398.445 210.626,396.690 210.567,392.400 210.567 C 388.110 210.567,386.355 210.626,388.500 210.698 M17.700 211.087 C 18.305 211.178,19.295 211.178,19.900 211.087 C 20.505 210.995,20.010 210.920,18.800 210.920 C 17.590 210.920,17.095 210.995,17.700 211.087 M159.700 211.087 C 160.305 211.178,161.295 211.178,161.900 211.087 C 162.505 210.995,162.010 210.920,160.800 210.920 C 159.590 210.920,159.095 210.995,159.700 211.087 M237.700 211.087 C 238.305 211.178,239.295 211.178,239.900 211.087 C 240.505 210.995,240.010 210.920,238.800 210.920 C 237.590 210.920,237.095 210.995,237.700 211.087 M379.700 211.087 C 380.305 211.178,381.295 211.178,381.900 211.087 C 382.505 210.995,382.010 210.920,380.800 210.920 C 379.590 210.920,379.095 210.995,379.700 211.087 M210.000 220.438 C 210.000 223.779,210.171 223.872,210.723 220.830 C 211.035 219.106,211.002 218.544,210.558 218.101 C 210.081 217.623,210.000 217.961,210.000 220.438 M210.649 229.415 C 210.512 229.773,210.430 231.266,210.466 232.733 L 210.532 235.400 210.782 232.200 C 211.051 228.757,211.035 228.412,210.649 229.415 M210.140 310.000 C 210.140 350.370,210.264 381.240,210.416 378.600 C 210.567 375.960,210.692 345.090,210.692 310.000 C 210.692 274.910,210.567 244.040,210.416 241.400 C 210.264 238.760,210.140 269.630,210.140 310.000 M210.920 238.800 C 210.920 240.010,210.995 240.505,211.087 239.900 C 211.178 239.295,211.178 238.305,211.087 237.700 C 210.995 237.095,210.920 237.590,210.920 238.800 M130.000 310.000 L 130.000 350.000 90.000 350.000 C 63.473 350.000,50.000 350.135,50.000 350.402 C 50.000 350.669,63.504 350.770,90.300 350.702 L 130.600 350.600 130.702 310.300 C 130.770 283.504,130.669 270.000,130.402 270.000 C 130.135 270.000,130.000 283.473,130.000 310.000 M350.000 310.000 L 350.000 350.000 310.000 350.000 C 283.473 350.000,270.000 350.135,270.000 350.402 C 270.000 350.669,283.504 350.770,310.300 350.702 L 350.600 350.600 350.702 310.300 C 350.770 283.504,350.669 270.000,350.402 270.000 C 350.135 270.000,350.000 283.473,350.000 310.000 M210.920 381.200 C 210.920 382.410,210.995 382.905,211.087 382.300 C 211.178 381.695,211.178 380.705,211.087 380.100 C 210.995 379.495,210.920 379.990,210.920 381.200 M210.567 392.400 C 210.567 396.690,210.626 398.445,210.698 396.300 C 210.770 394.155,210.770 390.645,210.698 388.500 C 210.626 386.355,210.567 388.110,210.567 392.400 " stroke="none" fill="#a09c9c" fill-rule="evenodd"></path><path id="path3" d="M189.359 5.600 C 189.359 8.790,189.421 10.095,189.497 8.500 C 189.573 6.905,189.573 4.295,189.497 2.700 C 189.421 1.105,189.359 2.410,189.359 5.600 M210.567 7.600 C 210.567 11.890,210.626 13.645,210.698 11.500 C 210.770 9.355,210.770 5.845,210.698 3.700 C 210.626 1.555,210.567 3.310,210.567 7.600 M210.140 90.000 C 210.140 130.370,210.264 161.240,210.416 158.600 C 210.567 155.960,210.692 125.090,210.692 90.000 C 210.692 54.910,210.567 24.040,210.416 21.400 C 210.264 18.760,210.140 49.630,210.140 90.000 M210.920 18.800 C 210.920 20.010,210.995 20.505,211.087 19.900 C 211.178 19.295,211.178 18.305,211.087 17.700 C 210.995 17.095,210.920 17.590,210.920 18.800 M130.000 90.000 L 130.000 130.000 90.000 130.000 C 63.473 130.000,50.000 130.135,50.000 130.402 C 50.000 130.669,63.504 130.770,90.300 130.702 L 130.600 130.600 130.702 90.300 C 130.770 63.504,130.669 50.000,130.402 50.000 C 130.135 50.000,130.000 63.473,130.000 90.000 M350.000 90.000 L 350.000 130.000 310.000 130.000 C 283.473 130.000,270.000 130.135,270.000 130.402 C 270.000 130.669,283.504 130.770,310.300 130.702 L 350.600 130.600 350.702 90.300 C 350.770 63.504,350.669 50.000,350.402 50.000 C 350.135 50.000,350.000 63.473,350.000 90.000 M210.920 161.200 C 210.920 162.410,210.995 162.905,211.087 162.300 C 211.178 161.695,211.178 160.705,211.087 160.100 C 210.995 159.495,210.920 159.990,210.920 161.200 M210.453 167.400 C 210.430 168.940,210.553 170.421,210.725 170.692 C 210.896 170.962,210.974 169.972,210.896 168.492 C 210.695 164.633,210.499 164.151,210.453 167.400 M210.000 179.562 C 210.000 182.039,210.081 182.377,210.558 181.899 C 211.002 181.456,211.035 180.894,210.723 179.170 C 210.171 176.128,210.000 176.221,210.000 179.562 M189.200 179.400 C 189.200 179.730,189.380 180.000,189.600 180.000 C 189.820 180.000,190.000 179.730,190.000 179.400 C 190.000 179.070,189.820 178.800,189.600 178.800 C 189.380 178.800,189.200 179.070,189.200 179.400 M210.614 184.701 C 210.470 185.746,210.505 187.015,210.693 187.521 C 210.937 188.183,211.040 187.649,211.059 185.621 C 211.089 182.317,210.974 182.080,210.614 184.701 M178.800 189.600 C 178.800 189.820,179.070 190.000,179.400 190.000 C 179.730 190.000,180.000 189.820,180.000 189.600 C 180.000 189.380,179.730 189.200,179.400 189.200 C 179.070 189.200,178.800 189.380,178.800 189.600 M21.400 210.416 C 24.040 210.567,54.820 210.692,89.800 210.692 C 124.780 210.692,155.560 210.567,158.200 210.416 C 160.840 210.264,130.060 210.140,89.800 210.140 C 49.540 210.140,18.760 210.264,21.400 210.416 M176.833 210.165 C 177.421 210.746,181.154 211.023,181.821 210.535 C 182.457 210.070,182.166 210.000,179.610 210.000 C 177.991 210.000,176.742 210.074,176.833 210.165 M218.101 210.558 C 218.544 211.002,219.106 211.035,220.830 210.723 C 223.872 210.171,223.779 210.000,220.438 210.000 C 217.961 210.000,217.623 210.081,218.101 210.558 M241.400 210.416 C 244.040 210.567,274.820 210.692,309.800 210.692 C 344.780 210.692,375.560 210.567,378.200 210.416 C 380.840 210.264,350.060 210.140,309.800 210.140 C 269.540 210.140,238.760 210.264,241.400 210.416 M3.700 210.698 C 5.845 210.770,9.355 210.770,11.500 210.698 C 13.645 210.626,11.890 210.567,7.600 210.567 C 3.310 210.567,1.555 210.626,3.700 210.698 M165.600 210.646 C 167.988 210.946,170.710 210.976,170.539 210.700 C 170.436 210.535,169.058 210.427,167.476 210.460 C 165.894 210.493,165.050 210.576,165.600 210.646 M183.800 210.771 C 182.999 210.956,183.574 211.045,185.532 211.040 C 187.147 211.036,188.135 210.903,187.732 210.745 C 186.839 210.393,185.400 210.403,183.800 210.771 M212.094 210.815 C 211.596 211.015,211.000 211.675,210.769 212.281 C 210.297 213.524,210.676 217.324,211.238 216.977 C 211.437 216.854,211.600 216.973,211.600 217.243 C 211.600 217.513,211.693 217.640,211.807 217.526 C 211.921 217.412,211.742 216.797,211.410 216.160 C 210.368 214.161,210.908 212.044,212.663 211.244 C 213.968 210.649,214.775 210.688,216.160 211.410 C 216.797 211.742,217.412 211.921,217.526 211.807 C 217.640 211.693,217.513 211.600,217.243 211.600 C 216.973 211.600,216.850 211.443,216.968 211.251 C 217.395 210.560,213.578 210.218,212.094 210.815 M229.308 210.725 C 229.038 210.896,230.028 210.974,231.508 210.896 C 235.367 210.695,235.849 210.499,232.600 210.453 C 231.060 210.430,229.579 210.553,229.308 210.725 M388.500 210.698 C 390.645 210.770,394.155 210.770,396.300 210.698 C 398.445 210.626,396.690 210.567,392.400 210.567 C 388.110 210.567,386.355 210.626,388.500 210.698 M17.700 211.087 C 18.305 211.178,19.295 211.178,19.900 211.087 C 20.505 210.995,20.010 210.920,18.800 210.920 C 17.590 210.920,17.095 210.995,17.700 211.087 M159.700 211.087 C 160.305 211.178,161.295 211.178,161.900 211.087 C 162.505 210.995,162.010 210.920,160.800 210.920 C 159.590 210.920,159.095 210.995,159.700 211.087 M237.700 211.087 C 238.305 211.178,239.295 211.178,239.900 211.087 C 240.505 210.995,240.010 210.920,238.800 210.920 C 237.590 210.920,237.095 210.995,237.700 211.087 M379.700 211.087 C 380.305 211.178,381.295 211.178,381.900 211.087 C 382.505 210.995,382.010 210.920,380.800 210.920 C 379.590 210.920,379.095 210.995,379.700 211.087 M210.000 220.438 C 210.000 223.779,210.171 223.872,210.723 220.830 C 211.035 219.106,211.002 218.544,210.558 218.101 C 210.081 217.623,210.000 217.961,210.000 220.438 M210.649 229.415 C 210.512 229.773,210.430 231.266,210.466 232.733 L 210.532 235.400 210.782 232.200 C 211.051 228.757,211.035 228.412,210.649 229.415 M210.140 310.000 C 210.140 350.370,210.264 381.240,210.416 378.600 C 210.567 375.960,210.692 345.090,210.692 310.000 C 210.692 274.910,210.567 244.040,210.416 241.400 C 210.264 238.760,210.140 269.630,210.140 310.000 M210.920 238.800 C 210.920 240.010,210.995 240.505,211.087 239.900 C 211.178 239.295,211.178 238.305,211.087 237.700 C 210.995 237.095,210.920 237.590,210.920 238.800 M130.000 310.000 L 130.000 350.000 90.000 350.000 C 63.473 350.000,50.000 350.135,50.000 350.402 C 50.000 350.669,63.504 350.770,90.300 350.702 L 130.600 350.600 130.702 310.300 C 130.770 283.504,130.669 270.000,130.402 270.000 C 130.135 270.000,130.000 283.473,130.000 310.000 M350.000 310.000 L 350.000 350.000 310.000 350.000 C 283.473 350.000,270.000 350.135,270.000 350.402 C 270.000 350.669,283.504 350.770,310.300 350.702 L 350.600 350.600 350.702 310.300 C 350.770 283.504,350.669 270.000,350.402 270.000 C 350.135 270.000,350.000 283.473,350.000 310.000 M210.920 381.200 C 210.920 382.410,210.995 382.905,211.087 382.300 C 211.178 381.695,211.178 380.705,211.087 380.100 C 210.995 379.495,210.920 379.990,210.920 381.200 M210.567 392.400 C 210.567 396.690,210.626 398.445,210.698 396.300 C 210.770 394.155,210.770 390.645,210.698 388.500 C 210.626 386.355,210.567 388.110,210.567 392.400 " stroke="none" fill="#a09c9c" fill-rule="evenodd"></path><path id="path4" d="M189.359 5.600 C 189.359 8.790,189.421 10.095,189.497 8.500 C 189.573 6.905,189.573 4.295,189.497 2.700 C 189.421 1.105,189.359 2.410,189.359 5.600 M210.567 7.600 C 210.567 11.890,210.626 13.645,210.698 11.500 C 210.770 9.355,210.770 5.845,210.698 3.700 C 210.626 1.555,210.567 3.310,210.567 7.600 M210.140 90.000 C 210.140 130.370,210.264 161.240,210.416 158.600 C 210.567 155.960,210.692 125.090,210.692 90.000 C 210.692 54.910,210.567 24.040,210.416 21.400 C 210.264 18.760,210.140 49.630,210.140 90.000 M210.920 18.800 C 210.920 20.010,210.995 20.505,211.087 19.900 C 211.178 19.295,211.178 18.305,211.087 17.700 C 210.995 17.095,210.920 17.590,210.920 18.800 M130.000 90.000 L 130.000 130.000 90.000 130.000 C 63.473 130.000,50.000 130.135,50.000 130.402 C 50.000 130.669,63.504 130.770,90.300 130.702 L 130.600 130.600 130.702 90.300 C 130.770 63.504,130.669 50.000,130.402 50.000 C 130.135 50.000,130.000 63.473,130.000 90.000 M350.000 90.000 L 350.000 130.000 310.000 130.000 C 283.473 130.000,270.000 130.135,270.000 130.402 C 270.000 130.669,283.504 130.770,310.300 130.702 L 350.600 130.600 350.702 90.300 C 350.770 63.504,350.669 50.000,350.402 50.000 C 350.135 50.000,350.000 63.473,350.000 90.000 M210.920 161.200 C 210.920 162.410,210.995 162.905,211.087 162.300 C 211.178 161.695,211.178 160.705,211.087 160.100 C 210.995 159.495,210.920 159.990,210.920 161.200 M210.453 167.400 C 210.430 168.940,210.553 170.421,210.725 170.692 C 210.896 170.962,210.974 169.972,210.896 168.492 C 210.695 164.633,210.499 164.151,210.453 167.400 M210.000 179.562 C 210.000 182.039,210.081 182.377,210.558 181.899 C 211.002 181.456,211.035 180.894,210.723 179.170 C 210.171 176.128,210.000 176.221,210.000 179.562 M189.200 179.400 C 189.200 179.730,189.380 180.000,189.600 180.000 C 189.820 180.000,190.000 179.730,190.000 179.400 C 190.000 179.070,189.820 178.800,189.600 178.800 C 189.380 178.800,189.200 179.070,189.200 179.400 M210.614 184.701 C 210.470 185.746,210.505 187.015,210.693 187.521 C 210.937 188.183,211.040 187.649,211.059 185.621 C 211.089 182.317,210.974 182.080,210.614 184.701 M178.800 189.600 C 178.800 189.820,179.070 190.000,179.400 190.000 C 179.730 190.000,180.000 189.820,180.000 189.600 C 180.000 189.380,179.730 189.200,179.400 189.200 C 179.070 189.200,178.800 189.380,178.800 189.600 M21.400 210.416 C 24.040 210.567,54.820 210.692,89.800 210.692 C 124.780 210.692,155.560 210.567,158.200 210.416 C 160.840 210.264,130.060 210.140,89.800 210.140 C 49.540 210.140,18.760 210.264,21.400 210.416 M176.833 210.165 C 177.421 210.746,181.154 211.023,181.821 210.535 C 182.457 210.070,182.166 210.000,179.610 210.000 C 177.991 210.000,176.742 210.074,176.833 210.165 M218.101 210.558 C 218.544 211.002,219.106 211.035,220.830 210.723 C 223.872 210.171,223.779 210.000,220.438 210.000 C 217.961 210.000,217.623 210.081,218.101 210.558 M241.400 210.416 C 244.040 210.567,274.820 210.692,309.800 210.692 C 344.780 210.692,375.560 210.567,378.200 210.416 C 380.840 210.264,350.060 210.140,309.800 210.140 C 269.540 210.140,238.760 210.264,241.400 210.416 M3.700 210.698 C 5.845 210.770,9.355 210.770,11.500 210.698 C 13.645 210.626,11.890 210.567,7.600 210.567 C 3.310 210.567,1.555 210.626,3.700 210.698 M165.600 210.646 C 167.988 210.946,170.710 210.976,170.539 210.700 C 170.436 210.535,169.058 210.427,167.476 210.460 C 165.894 210.493,165.050 210.576,165.600 210.646 M183.800 210.771 C 182.999 210.956,183.574 211.045,185.532 211.040 C 187.147 211.036,188.135 210.903,187.732 210.745 C 186.839 210.393,185.400 210.403,183.800 210.771 M212.094 210.815 C 211.596 211.015,211.000 211.675,210.769 212.281 C 210.297 213.524,210.676 217.324,211.238 216.977 C 211.437 216.854,211.600 216.973,211.600 217.243 C 211.600 217.513,211.693 217.640,211.807 217.526 C 211.921 217.412,211.742 216.797,211.410 216.160 C 210.368 214.161,210.908 212.044,212.663 211.244 C 213.968 210.649,214.775 210.688,216.160 211.410 C 216.797 211.742,217.412 211.921,217.526 211.807 C 217.640 211.693,217.513 211.600,217.243 211.600 C 216.973 211.600,216.850 211.443,216.968 211.251 C 217.395 210.560,213.578 210.218,212.094 210.815 M229.308 210.725 C 229.038 210.896,230.028 210.974,231.508 210.896 C 235.367 210.695,235.849 210.499,232.600 210.453 C 231.060 210.430,229.579 210.553,229.308 210.725 M388.500 210.698 C 390.645 210.770,394.155 210.770,396.300 210.698 C 398.445 210.626,396.690 210.567,392.400 210.567 C 388.110 210.567,386.355 210.626,388.500 210.698 M17.700 211.087 C 18.305 211.178,19.295 211.178,19.900 211.087 C 20.505 210.995,20.010 210.920,18.800 210.920 C 17.590 210.920,17.095 210.995,17.700 211.087 M159.700 211.087 C 160.305 211.178,161.295 211.178,161.900 211.087 C 162.505 210.995,162.010 210.920,160.800 210.920 C 159.590 210.920,159.095 210.995,159.700 211.087 M237.700 211.087 C 238.305 211.178,239.295 211.178,239.900 211.087 C 240.505 210.995,240.010 210.920,238.800 210.920 C 237.590 210.920,237.095 210.995,237.700 211.087 M379.700 211.087 C 380.305 211.178,381.295 211.178,381.900 211.087 C 382.505 210.995,382.010 210.920,380.800 210.920 C 379.590 210.920,379.095 210.995,379.700 211.087 M210.000 220.438 C 210.000 223.779,210.171 223.872,210.723 220.830 C 211.035 219.106,211.002 218.544,210.558 218.101 C 210.081 217.623,210.000 217.961,210.000 220.438 M210.649 229.415 C 210.512 229.773,210.430 231.266,210.466 232.733 L 210.532 235.400 210.782 232.200 C 211.051 228.757,211.035 228.412,210.649 229.415 M210.140 310.000 C 210.140 350.370,210.264 381.240,210.416 378.600 C 210.567 375.960,210.692 345.090,210.692 310.000 C 210.692 274.910,210.567 244.040,210.416 241.400 C 210.264 238.760,210.140 269.630,210.140 310.000 M210.920 238.800 C 210.920 240.010,210.995 240.505,211.087 239.900 C 211.178 239.295,211.178 238.305,211.087 237.700 C 210.995 237.095,210.920 237.590,210.920 238.800 M130.000 310.000 L 130.000 350.000 90.000 350.000 C 63.473 350.000,50.000 350.135,50.000 350.402 C 50.000 350.669,63.504 350.770,90.300 350.702 L 130.600 350.600 130.702 310.300 C 130.770 283.504,130.669 270.000,130.402 270.000 C 130.135 270.000,130.000 283.473,130.000 310.000 M350.000 310.000 L 350.000 350.000 310.000 350.000 C 283.473 350.000,270.000 350.135,270.000 350.402 C 270.000 350.669,283.504 350.770,310.300 350.702 L 350.600 350.600 350.702 310.300 C 350.770 283.504,350.669 270.000,350.402 270.000 C 350.135 270.000,350.000 283.473,350.000 310.000 M210.920 381.200 C 210.920 382.410,210.995 382.905,211.087 382.300 C 211.178 381.695,211.178 380.705,211.087 380.100 C 210.995 379.495,210.920 379.990,210.920 381.200 M210.567 392.400 C 210.567 396.690,210.626 398.445,210.698 396.300 C 210.770 394.155,210.770 390.645,210.698 388.500 C 210.626 386.355,210.567 388.110,210.567 392.400 " stroke="none" fill="#a09c9c" fill-rule="evenodd"></path></g></svg>