<svg id="svg" version="1.1" xmlns="http://www.w3.org/2000/svg" xmlns:xlink="http://www.w3.org/1999/xlink" width="400" height="400" viewBox="0, 0, 400,400"><g id="svgg"><path id="path0" d="M36.000 3.600 C 36.000 6.205,35.862 7.204,35.500 7.215 C 22.680 7.596,22.245 7.889,21.768 16.476 L 21.489 21.489 16.476 21.768 C 7.889 22.245,7.596 22.680,7.215 35.500 C 7.204 35.862,6.205 36.000,3.600 36.000 L 0.000 36.000 0.000 57.200 L 0.000 78.400 3.600 78.400 L 7.200 78.400 7.220 79.700 C 7.405 91.494,7.949 92.223,16.900 92.679 L 21.600 92.918 21.612 95.759 C 21.656 105.735,23.075 107.200,32.700 107.200 L 36.000 107.200 36.000 110.945 C 36.000 118.407,36.880 120.371,40.375 120.707 C 41.498 120.815,42.514 121.060,42.632 121.252 C 42.750 121.443,44.448 121.600,46.405 121.600 L 49.964 121.600 50.165 122.900 C 50.276 123.615,50.437 126.056,50.523 128.325 C 50.766 134.680,51.228 135.051,59.425 135.469 L 64.250 135.714 64.658 141.480 C 65.204 149.171,66.189 149.944,75.500 149.985 L 78.800 150.000 78.808 153.300 C 78.832 162.980,79.629 163.835,89.049 164.279 L 93.098 164.470 93.280 169.848 C 93.545 177.658,93.736 177.836,102.300 178.272 L 107.200 178.522 107.220 179.761 C 107.413 191.500,107.955 192.223,116.900 192.679 L 121.600 192.918 121.600 200.020 L 121.600 207.123 117.300 207.380 C 107.806 207.948,107.947 207.807,107.384 217.240 L 107.131 221.480 102.266 221.737 C 93.716 222.188,93.586 222.312,93.240 230.276 L 93.000 235.800 87.780 236.040 C 79.638 236.413,79.267 236.778,78.911 244.779 L 78.683 249.923 77.491 250.162 C 76.836 250.293,74.838 250.404,73.050 250.410 C 65.672 250.431,65.200 250.887,64.660 258.503 L 64.252 264.252 58.503 264.660 C 50.887 265.200,50.431 265.672,50.410 273.050 C 50.404 274.838,50.293 276.836,50.162 277.491 L 49.923 278.683 44.779 278.911 C 36.778 279.267,36.413 279.638,36.040 287.780 L 35.800 293.000 30.276 293.240 C 22.312 293.586,22.188 293.716,21.737 302.266 L 21.480 307.131 17.240 307.384 C 7.807 307.947,7.948 307.806,7.380 317.300 L 7.123 321.600 3.562 321.600 L 0.000 321.600 0.000 343.000 L 0.000 364.400 3.600 364.400 C 5.580 364.400,7.207 364.535,7.215 364.700 C 7.866 377.845,7.825 377.786,16.513 378.250 L 21.490 378.516 21.768 383.526 C 22.232 391.876,23.394 392.800,33.429 392.800 L 36.000 392.800 36.000 396.400 L 36.000 400.000 57.200 400.000 L 78.400 400.000 78.400 396.400 L 78.400 392.800 82.300 392.795 C 91.221 392.784,92.784 391.221,92.795 382.300 L 92.800 378.400 96.327 378.400 C 105.817 378.400,106.628 377.652,107.059 368.500 L 107.251 364.400 111.031 364.400 C 113.110 364.400,115.123 364.230,115.505 364.022 C 115.887 363.814,116.850 363.540,117.645 363.414 C 119.541 363.113,120.448 362.044,120.699 359.816 C 120.812 358.817,121.061 358.000,121.252 358.000 C 121.443 358.000,121.600 356.216,121.600 354.035 L 121.600 350.071 125.900 349.862 C 134.850 349.428,135.600 348.598,135.600 339.127 L 135.600 335.600 139.127 335.600 C 148.598 335.600,149.428 334.850,149.862 325.900 L 150.071 321.600 154.035 321.600 C 156.216 321.600,158.000 321.443,158.000 321.252 C 158.000 321.061,158.817 320.812,159.816 320.699 C 162.044 320.448,163.113 319.541,163.414 317.645 C 163.540 316.850,163.814 315.887,164.022 315.505 C 164.230 315.123,164.400 313.110,164.400 311.031 L 164.400 307.251 168.500 307.059 C 177.652 306.628,178.400 305.817,178.400 296.327 L 178.400 292.800 182.300 292.795 C 191.221 292.784,192.784 291.221,192.795 282.300 L 192.800 278.400 200.000 278.400 L 207.200 278.400 207.220 279.700 C 207.405 291.494,207.949 292.223,216.900 292.679 L 221.600 292.918 221.612 295.759 C 221.656 305.735,223.075 307.200,232.700 307.200 L 236.000 307.200 236.000 310.945 C 236.000 318.407,236.880 320.371,240.375 320.707 C 241.498 320.815,242.514 321.060,242.632 321.252 C 242.750 321.443,244.448 321.600,246.405 321.600 L 249.964 321.600 250.165 322.900 C 250.276 323.615,250.437 326.056,250.523 328.325 C 250.766 334.680,251.228 335.051,259.425 335.469 L 264.250 335.714 264.658 341.480 C 265.204 349.171,266.189 349.944,275.500 349.985 L 278.800 350.000 278.808 353.300 C 278.832 362.980,279.629 363.835,289.049 364.279 L 293.098 364.470 293.280 369.848 C 293.545 377.658,293.736 377.836,302.300 378.272 L 307.200 378.522 307.220 379.761 C 307.413 391.500,307.955 392.223,316.900 392.679 L 321.600 392.918 321.600 396.459 L 321.600 400.000 343.000 400.000 L 364.400 400.000 364.400 396.400 L 364.400 392.800 367.700 392.786 C 370.866 392.772,375.318 392.068,376.377 391.414 C 377.449 390.752,378.059 388.192,378.285 383.406 L 378.516 378.516 383.406 378.285 C 388.192 378.059,390.752 377.449,391.414 376.377 C 392.068 375.318,392.772 370.866,392.786 367.700 L 392.800 364.400 396.400 364.400 L 400.000 364.400 400.000 343.000 L 400.000 321.600 396.459 321.600 L 392.918 321.600 392.679 316.900 C 392.223 307.955,391.500 307.413,379.761 307.220 L 378.522 307.200 378.272 302.300 C 377.836 293.736,377.658 293.545,369.848 293.280 L 364.470 293.098 364.279 289.049 C 363.835 279.629,362.980 278.832,353.300 278.808 L 350.000 278.800 349.985 275.500 C 349.944 266.189,349.171 265.204,341.480 264.658 L 335.714 264.250 335.469 259.425 C 335.051 251.228,334.680 250.766,328.325 250.523 C 326.056 250.437,323.615 250.276,322.900 250.165 L 321.600 249.964 321.600 246.405 C 321.600 244.448,321.443 242.750,321.252 242.632 C 321.060 242.514,320.815 241.498,320.707 240.375 C 320.371 236.880,318.407 236.000,310.945 236.000 L 307.200 236.000 307.200 232.700 C 307.200 223.075,305.735 221.656,295.759 221.612 L 292.918 221.600 292.679 216.900 C 292.223 207.949,291.494 207.405,279.700 207.220 L 278.400 207.200 278.400 200.000 L 278.400 192.800 282.300 192.795 C 291.221 192.784,292.784 191.221,292.795 182.300 L 292.800 178.400 296.327 178.400 C 305.817 178.400,306.628 177.652,307.059 168.500 L 307.251 164.400 311.031 164.400 C 313.110 164.400,315.123 164.230,315.505 164.022 C 315.887 163.814,316.850 163.540,317.645 163.414 C 319.541 163.113,320.448 162.044,320.699 159.816 C 320.812 158.817,321.061 158.000,321.252 158.000 C 321.443 158.000,321.600 156.216,321.600 154.035 L 321.600 150.071 325.900 149.862 C 334.850 149.428,335.600 148.598,335.600 139.127 L 335.600 135.600 339.127 135.600 C 348.598 135.600,349.428 134.850,349.862 125.900 L 350.071 121.600 354.035 121.600 C 356.216 121.600,358.000 121.443,358.000 121.252 C 358.000 121.061,358.817 120.812,359.816 120.699 C 362.044 120.448,363.113 119.541,363.414 117.645 C 363.540 116.850,363.814 115.887,364.022 115.505 C 364.230 115.123,364.400 113.110,364.400 111.031 L 364.400 107.251 368.500 107.059 C 377.652 106.628,378.400 105.817,378.400 96.327 L 378.400 92.800 382.300 92.795 C 391.221 92.784,392.784 91.221,392.795 82.300 L 392.800 78.400 396.400 78.400 L 400.000 78.400 400.000 57.200 L 400.000 36.000 396.400 36.000 L 392.800 36.000 392.800 33.429 C 392.800 23.394,391.876 22.232,383.526 21.768 L 378.516 21.490 378.250 16.513 C 377.786 7.825,377.845 7.866,364.700 7.215 C 364.535 7.207,364.400 5.580,364.400 3.600 L 364.400 0.000 343.000 0.000 L 321.600 0.000 321.600 3.562 L 321.600 7.123 317.300 7.380 C 307.806 7.948,307.947 7.807,307.384 17.240 L 307.131 21.480 302.266 21.737 C 293.716 22.188,293.586 22.312,293.240 30.276 L 293.000 35.800 287.780 36.040 C 279.638 36.413,279.267 36.778,278.911 44.779 L 278.683 49.923 277.491 50.162 C 276.836 50.293,274.838 50.404,273.050 50.410 C 265.672 50.431,265.200 50.887,264.660 58.503 L 264.252 64.252 258.503 64.660 C 250.887 65.200,250.431 65.672,250.410 73.050 C 250.404 74.837,250.293 76.836,250.162 77.491 L 249.923 78.683 244.779 78.911 C 236.778 79.267,236.413 79.638,236.040 87.780 L 235.800 93.000 230.276 93.240 C 222.312 93.586,222.188 93.716,221.737 102.266 L 221.480 107.131 217.240 107.384 C 207.807 107.947,207.948 107.806,207.380 117.300 L 207.123 121.600 200.020 121.600 L 192.918 121.600 192.679 116.900 C 192.223 107.955,191.500 107.413,179.761 107.220 L 178.522 107.200 178.272 102.300 C 177.836 93.736,177.658 93.545,169.848 93.280 L 164.470 93.098 164.279 89.049 C 163.835 79.629,162.980 78.832,153.300 78.808 L 150.000 78.800 149.985 75.500 C 149.944 66.189,149.171 65.204,141.480 64.658 L 135.714 64.250 135.469 59.425 C 135.051 51.228,134.680 50.766,128.325 50.523 C 126.056 50.437,123.615 50.276,122.900 50.165 L 121.600 49.964 121.600 46.405 C 121.600 44.448,121.443 42.750,121.252 42.632 C 121.060 42.514,120.815 41.498,120.707 40.375 C 120.371 36.880,118.407 36.000,110.945 36.000 L 107.200 36.000 107.200 32.700 C 107.200 23.075,105.735 21.656,95.759 21.612 L 92.918 21.600 92.679 16.900 C 92.223 7.949,91.494 7.405,79.700 7.220 L 78.400 7.200 78.400 3.600 L 78.400 0.000 57.200 0.000 L 36.000 0.000 36.000 3.600 " stroke="none" fill="#1c1c1c" fill-rule="evenodd"></path><path id="path1" d="" stroke="none" fill="#201c1c" fill-rule="evenodd"></path><path id="path2" d="" stroke="none" fill="#201c1c" fill-rule="evenodd"></path><path id="path3" d="" stroke="none" fill="#201c1c" fill-rule="evenodd"></path><path id="path4" d="" stroke="none" fill="#201c1c" fill-rule="evenodd"></path></g></svg>