<svg id="svg" version="1.1" xmlns="http://www.w3.org/2000/svg" xmlns:xlink="http://www.w3.org/1999/xlink" width="400" height="400" viewBox="0, 0, 400,400"><g id="svgg"><path id="path0" d="M110.600 135.907 C 109.522 136.076,109.481 136.131,110.200 136.453 C 110.980 136.804,110.109 136.716,108.337 136.267 C 108.042 136.192,107.945 136.210,108.121 136.306 C 108.743 136.644,106.985 137.575,105.700 137.587 C 104.985 137.594,104.400 137.780,104.400 138.000 C 104.400 138.220,103.590 138.400,102.600 138.400 C 101.610 138.400,100.800 138.580,100.800 138.800 C 100.800 139.020,100.517 139.200,100.171 139.200 C 99.453 139.200,98.400 140.134,98.400 140.771 C 98.400 141.007,98.207 141.200,97.971 141.200 C 97.334 141.200,96.400 142.253,96.400 142.971 C 96.400 143.317,96.220 143.600,96.000 143.600 C 95.780 143.600,95.600 144.410,95.600 145.400 C 95.600 146.390,95.420 147.200,95.200 147.200 C 94.980 147.200,94.800 147.808,94.800 148.551 C 94.800 149.803,94.001 151.067,93.516 150.583 C 93.400 150.467,93.396 150.845,93.506 151.423 C 93.634 152.090,93.816 152.298,94.004 151.994 C 94.219 151.645,94.375 151.637,94.578 151.964 C 94.730 152.211,95.068 152.291,95.328 152.142 C 95.587 151.994,95.656 152.030,95.480 152.223 C 95.304 152.416,94.674 152.579,94.080 152.587 C 93.132 152.598,92.990 152.771,92.914 154.000 C 92.867 154.770,92.927 155.175,93.048 154.900 C 93.168 154.625,93.567 154.403,93.933 154.406 C 94.417 154.411,94.462 154.500,94.100 154.730 C 93.094 155.369,92.690 165.695,93.293 175.400 C 93.468 178.218,93.432 179.512,93.192 179.000 C 92.943 178.465,92.887 179.260,93.025 181.400 C 93.138 183.160,93.269 185.950,93.315 187.600 C 93.362 189.250,93.557 190.843,93.749 191.141 C 94.559 192.396,99.200 193.427,99.200 192.351 C 99.200 192.044,99.393 192.062,99.810 192.408 C 100.234 192.760,101.239 192.846,103.110 192.691 C 106.851 192.381,108.000 192.652,108.000 193.847 C 108.000 194.371,108.225 194.803,108.500 194.806 C 108.878 194.811,108.871 194.894,108.471 195.148 C 107.795 195.577,107.210 198.088,107.249 200.400 C 107.276 201.948,107.329 202.060,107.634 201.200 C 107.893 200.467,107.946 200.792,107.831 202.417 C 107.745 203.636,107.857 204.958,108.078 205.354 C 108.811 206.664,113.200 207.903,113.200 206.800 C 113.200 206.580,113.470 206.400,113.800 206.400 C 114.130 206.400,114.400 206.604,114.400 206.854 C 114.400 207.169,115.271 207.245,117.248 207.104 C 121.169 206.823,121.590 206.981,121.647 208.747 L 121.695 210.200 122.000 209.000 L 122.305 207.800 122.359 209.000 C 122.400 209.930,122.499 210.065,122.800 209.600 C 123.389 208.689,123.275 209.722,122.641 211.039 C 122.333 211.677,121.985 213.460,121.867 215.000 C 121.714 216.998,121.755 217.456,122.013 216.600 C 122.307 215.619,122.343 215.775,122.210 217.459 C 122.022 219.835,122.883 221.082,124.381 220.606 C 124.965 220.421,125.187 220.501,125.110 220.870 C 124.960 221.591,127.211 221.823,127.657 221.132 C 127.940 220.693,128.063 220.698,128.361 221.161 C 128.640 221.594,129.396 221.670,131.695 221.496 C 135.482 221.210,135.671 221.349,136.008 224.664 C 136.215 226.697,136.308 226.989,136.371 225.800 C 136.437 224.557,136.527 224.378,136.774 225.000 L 137.092 225.800 137.300 225.000 C 137.489 224.271,137.511 224.279,137.554 225.100 C 137.579 225.595,137.436 226.000,137.235 226.000 C 136.863 226.000,136.572 227.445,136.228 231.000 C 136.070 232.635,136.102 232.781,136.403 231.800 C 136.739 230.705,136.758 230.746,136.627 232.275 C 136.522 233.489,136.673 234.123,137.173 234.575 C 137.936 235.266,138.990 235.432,138.600 234.800 C 138.464 234.580,138.543 234.400,138.776 234.400 C 139.009 234.400,139.200 234.670,139.200 235.000 C 139.200 235.373,139.578 235.600,140.200 235.600 C 140.750 235.600,141.200 235.429,141.200 235.221 C 141.200 234.993,141.693 235.014,142.436 235.272 C 143.115 235.509,144.521 235.602,145.559 235.479 C 146.598 235.356,148.219 235.359,149.161 235.485 L 150.874 235.715 150.611 237.158 C 149.999 240.514,149.910 243.303,150.424 242.985 C 150.813 242.745,150.871 243.197,150.684 245.005 C 150.547 246.331,150.621 247.665,150.854 248.101 C 151.652 249.591,156.059 250.676,156.536 249.500 C 156.692 249.115,156.829 249.128,157.129 249.558 C 157.424 249.980,158.169 250.064,160.185 249.902 C 163.337 249.649,164.390 249.859,164.428 250.747 C 164.450 251.252,164.534 251.219,164.800 250.600 C 165.082 249.944,165.150 250.051,165.178 251.200 C 165.204 252.257,165.307 252.453,165.600 252.000 C 165.873 251.578,165.990 251.553,165.994 251.914 C 165.997 252.197,165.743 252.827,165.428 253.314 C 165.113 253.801,164.761 255.550,164.645 257.200 C 164.492 259.367,164.536 259.867,164.803 259.000 C 165.097 258.045,165.135 258.258,164.989 260.041 C 164.777 262.655,165.607 263.880,167.271 263.410 C 167.899 263.233,168.027 263.268,167.666 263.518 C 167.237 263.817,167.263 263.938,167.799 264.144 C 168.820 264.536,170.400 264.448,170.400 264.000 C 170.400 263.780,170.670 263.600,171.000 263.600 C 171.330 263.600,171.600 263.804,171.600 264.054 C 171.600 264.369,172.471 264.445,174.448 264.304 C 178.702 263.999,178.791 264.052,178.853 266.947 C 178.898 269.068,178.945 269.210,179.200 268.000 C 179.443 266.843,179.509 266.774,179.575 267.600 C 179.650 268.526,179.682 268.540,180.000 267.800 C 180.244 267.233,180.352 267.181,180.372 267.620 C 180.387 267.961,180.230 268.411,180.023 268.620 C 179.816 268.829,179.457 270.170,179.226 271.600 C 178.725 274.700,178.729 276.388,179.233 274.600 C 179.526 273.559,179.551 273.627,179.422 275.108 C 179.323 276.249,179.471 277.013,179.866 277.408 C 180.526 278.068,181.787 278.226,181.400 277.600 C 181.264 277.380,181.343 277.200,181.576 277.200 C 181.809 277.200,182.000 277.457,182.000 277.771 C 182.000 278.508,214.592 278.671,215.474 277.939 C 215.856 277.622,216.000 277.625,216.000 277.951 C 216.000 279.158,220.201 278.056,220.619 276.739 C 220.748 276.333,221.022 276.000,221.227 276.000 C 221.791 276.000,221.674 273.297,221.100 273.064 C 220.704 272.903,220.707 272.785,221.114 272.498 C 221.830 271.993,221.491 264.142,220.761 264.323 C 220.380 264.417,220.385 264.300,220.781 263.823 C 221.395 263.084,221.637 263.029,221.500 263.660 C 221.345 264.372,229.195 264.632,229.687 263.932 C 229.980 263.516,230.105 263.509,230.264 263.900 C 230.497 264.474,233.200 264.591,233.200 264.027 C 233.200 263.822,233.515 263.552,233.900 263.428 C 235.272 262.984,236.244 259.128,235.100 258.664 C 234.716 258.508,234.730 258.370,235.162 258.068 C 235.603 257.761,235.673 256.953,235.487 254.321 C 235.166 249.769,235.162 249.774,239.786 249.924 C 242.281 250.004,243.600 249.901,243.600 249.624 C 243.600 249.391,243.870 249.200,244.200 249.200 C 244.530 249.200,244.800 249.380,244.800 249.600 C 244.800 249.820,245.329 250.000,245.976 250.000 C 246.623 250.000,247.264 249.820,247.400 249.600 C 247.536 249.380,247.997 249.200,248.424 249.200 C 248.925 249.200,249.200 248.925,249.200 248.424 C 249.200 247.997,249.380 247.536,249.600 247.400 C 249.820 247.264,250.000 246.623,250.000 245.976 C 250.000 245.329,249.820 244.800,249.600 244.800 C 249.380 244.800,249.200 244.530,249.200 244.200 C 249.200 243.870,249.391 243.600,249.624 243.600 C 249.901 243.600,250.004 242.281,249.924 239.786 C 249.772 235.122,249.791 235.104,254.340 235.457 C 256.969 235.661,257.764 235.598,258.071 235.158 C 258.371 234.728,258.508 234.715,258.664 235.100 C 259.128 236.244,262.984 235.272,263.428 233.900 C 263.552 233.515,263.822 233.200,264.027 233.200 C 264.591 233.200,264.474 230.497,263.900 230.264 C 263.504 230.103,263.507 229.985,263.914 229.698 C 264.630 229.193,264.291 221.342,263.561 221.523 C 263.180 221.617,263.185 221.500,263.581 221.023 C 264.195 220.284,264.437 220.229,264.300 220.860 C 264.109 221.739,271.958 221.806,272.620 220.931 C 273.137 220.250,273.175 220.248,273.187 220.900 C 273.201 221.651,276.000 221.977,276.000 221.227 C 276.000 221.022,276.315 220.752,276.700 220.628 C 278.072 220.184,279.044 216.328,277.900 215.864 C 277.502 215.702,277.503 215.588,277.907 215.303 C 278.262 215.052,278.394 213.845,278.347 211.266 C 278.265 206.764,278.046 206.973,282.694 207.126 C 285.517 207.218,286.618 207.113,286.891 206.726 C 287.182 206.312,287.304 206.307,287.464 206.700 C 287.704 207.291,290.000 207.382,290.000 206.800 C 290.000 206.580,290.450 206.400,291.000 206.400 C 291.723 206.400,292.000 206.185,292.000 205.624 C 292.000 205.197,292.180 204.736,292.400 204.600 C 292.975 204.245,292.894 201.705,292.300 201.464 C 291.916 201.308,291.930 201.170,292.362 200.868 C 292.805 200.560,292.873 199.746,292.682 197.047 C 292.361 192.498,292.498 192.361,297.047 192.682 C 299.746 192.873,300.560 192.805,300.868 192.362 C 301.170 191.930,301.308 191.916,301.464 192.300 C 301.705 192.894,304.245 192.975,304.600 192.400 C 304.736 192.180,305.197 192.000,305.624 192.000 C 306.185 192.000,306.400 191.723,306.400 191.000 C 306.400 190.450,306.580 190.000,306.800 190.000 C 307.382 190.000,307.291 187.704,306.700 187.464 C 306.315 187.308,306.310 187.182,306.678 186.920 C 307.350 186.442,307.381 153.300,306.711 152.493 C 306.360 152.070,306.381 151.859,306.800 151.600 C 307.197 151.355,307.231 151.114,306.925 150.730 C 306.692 150.439,306.375 148.702,306.221 146.872 C 305.520 138.562,303.554 136.809,294.756 136.654 C 293.065 136.624,291.826 136.509,292.004 136.399 C 292.373 136.170,289.637 135.894,286.433 135.838 C 285.027 135.813,284.208 135.975,284.100 136.300 C 284.008 136.575,283.668 136.800,283.343 136.800 C 283.018 136.800,282.864 136.620,283.000 136.400 C 283.343 135.846,280.954 135.890,279.893 136.457 C 279.245 136.804,279.000 136.800,278.880 136.441 C 278.764 136.091,278.582 136.083,278.187 136.411 C 277.803 136.730,277.425 136.734,276.852 136.428 C 275.814 135.872,271.942 135.846,272.800 136.400 C 273.850 137.078,272.299 136.888,270.837 136.159 C 269.765 135.624,268.873 135.571,265.476 135.841 C 262.012 136.116,261.640 136.208,263.000 136.455 C 264.500 136.728,260.632 136.593,255.800 136.203 C 254.088 136.065,254.002 136.089,255.200 136.368 C 256.253 136.614,256.366 136.708,255.654 136.747 C 254.196 136.829,251.600 138.446,251.600 139.274 C 251.600 139.673,251.420 140.000,251.200 140.000 C 250.075 140.000,251.502 137.378,252.943 136.797 C 253.799 136.451,253.799 136.451,252.962 136.425 C 251.179 136.371,250.590 137.759,250.706 141.744 C 250.780 144.285,250.691 145.217,250.413 144.800 C 250.128 144.374,250.010 145.105,250.006 147.324 C 250.002 149.584,250.128 150.368,250.462 150.162 C 250.748 149.985,250.815 150.052,250.638 150.339 C 250.437 150.663,250.126 150.682,249.602 150.401 C 248.580 149.854,243.581 149.866,244.400 150.413 C 244.819 150.693,243.955 150.782,241.543 150.707 C 237.999 150.597,236.400 151.195,236.400 152.631 C 236.400 152.910,236.926 152.612,237.569 151.969 C 238.654 150.885,240.358 150.297,239.800 151.200 C 239.664 151.420,239.367 151.600,239.141 151.600 C 238.438 151.600,237.241 153.331,236.928 154.800 L 236.630 156.200 236.361 155.000 C 236.145 154.032,236.118 154.110,236.225 155.400 C 236.882 163.362,236.863 164.168,235.990 165.179 C 235.359 165.909,235.064 166.028,234.829 165.647 C 234.516 165.140,230.100 164.395,227.800 164.460 L 226.600 164.495 227.800 164.800 L 229.000 165.105 227.687 165.153 C 224.460 165.269,222.495 167.159,222.347 170.287 C 222.299 171.317,222.271 171.295,221.972 170.000 C 221.748 169.033,221.708 169.466,221.841 171.400 C 222.162 176.079,222.452 177.600,223.022 177.600 C 223.314 177.600,223.658 177.771,223.787 177.979 C 223.916 178.188,223.657 178.288,223.211 178.202 C 222.764 178.116,222.397 178.260,222.394 178.523 C 222.390 178.810,222.234 178.762,222.000 178.400 C 221.742 178.000,221.610 177.967,221.606 178.300 C 221.602 178.621,220.922 178.819,219.700 178.853 C 217.807 178.905,217.805 178.907,219.200 179.233 C 220.572 179.555,217.543 179.452,212.600 179.009 C 211.044 178.870,210.866 178.905,211.800 179.168 C 212.580 179.387,212.730 179.522,212.228 179.553 C 210.608 179.652,208.800 180.563,208.800 181.280 C 208.800 181.676,208.620 182.000,208.400 182.000 C 207.480 182.000,208.542 180.080,209.726 179.603 C 210.413 179.326,210.450 179.245,209.900 179.225 C 208.333 179.169,207.596 180.605,207.813 183.294 C 207.964 185.173,207.911 185.600,207.600 185.000 C 207.296 184.412,207.244 184.991,207.404 187.187 C 207.524 188.830,207.887 190.578,208.211 191.073 C 208.535 191.567,208.797 192.203,208.794 192.486 C 208.790 192.847,208.673 192.822,208.400 192.400 C 208.142 192.000,208.010 191.967,208.006 192.300 C 208.001 192.683,206.187 192.800,200.287 192.800 L 192.574 192.800 192.732 189.996 C 192.844 188.019,192.730 186.996,192.345 186.531 C 191.919 186.015,191.910 185.833,192.300 185.702 C 193.001 185.466,192.949 183.200,192.243 183.200 C 191.936 183.200,191.582 182.930,191.455 182.600 C 191.329 182.270,191.384 182.000,191.579 182.000 C 191.774 182.000,192.024 182.225,192.135 182.500 C 192.252 182.789,192.350 182.694,192.368 182.274 C 192.437 180.687,191.188 179.203,189.800 179.224 C 189.185 179.233,189.278 179.363,190.200 179.786 C 191.243 180.263,191.286 180.339,190.524 180.368 C 190.042 180.385,189.536 180.220,189.400 180.000 C 189.264 179.780,188.488 179.576,187.676 179.547 L 186.200 179.495 187.600 179.171 C 188.645 178.929,188.392 178.894,186.600 179.033 C 182.269 179.367,180.400 179.669,180.400 180.038 C 180.400 180.237,179.995 180.387,179.500 180.372 C 178.641 180.345,178.637 180.328,179.400 180.000 C 180.141 179.682,180.126 179.650,179.200 179.571 C 178.480 179.510,178.648 179.406,179.800 179.200 L 181.400 178.914 179.900 178.857 C 179.012 178.823,178.390 178.596,178.376 178.300 C 178.362 178.025,178.353 175.775,178.355 173.300 C 178.358 169.636,178.251 168.800,177.779 168.800 C 177.089 168.800,177.002 168.133,177.663 167.912 C 178.434 167.655,177.705 165.776,176.646 165.294 C 176.111 165.050,174.621 164.923,173.336 165.011 C 171.491 165.138,171.252 165.095,172.200 164.808 C 173.032 164.556,172.357 164.510,170.000 164.660 C 168.130 164.778,166.201 165.128,165.714 165.438 C 164.396 166.274,164.400 166.283,164.400 162.400 C 164.400 160.267,164.237 158.800,164.000 158.800 C 163.780 158.800,163.600 158.440,163.600 158.000 C 163.600 157.560,163.780 157.200,164.000 157.200 C 165.009 157.200,163.954 152.581,162.648 151.278 C 162.094 150.726,161.320 150.619,158.484 150.704 C 155.968 150.779,155.167 150.692,155.600 150.390 C 156.035 150.087,155.346 150.003,153.099 150.086 L 149.998 150.200 149.999 147.500 C 150.000 145.966,149.827 144.800,149.600 144.800 C 149.380 144.800,149.200 144.350,149.200 143.800 C 149.200 143.250,149.380 142.800,149.600 142.800 C 150.552 142.800,149.715 138.527,148.484 137.103 C 148.005 136.549,147.424 136.443,145.641 136.584 C 143.772 136.732,143.632 136.702,144.800 136.408 C 145.886 136.134,145.617 136.098,143.600 136.245 C 138.801 136.595,136.800 136.890,136.800 137.246 C 136.800 137.441,136.485 137.597,136.100 137.594 C 135.502 137.589,135.487 137.531,136.000 137.200 C 136.533 136.855,136.533 136.805,136.000 136.749 C 135.670 136.715,136.120 136.570,137.000 136.428 C 138.336 136.212,137.972 136.117,134.791 135.854 C 131.010 135.541,128.800 135.759,128.800 136.443 C 128.800 136.640,128.395 136.797,127.900 136.794 C 127.172 136.789,127.115 136.714,127.600 136.400 C 128.502 135.817,124.685 135.887,123.390 136.477 C 122.545 136.862,122.277 136.848,122.002 136.403 C 121.716 135.941,121.556 135.938,121.014 136.389 C 120.523 136.796,120.254 136.814,119.903 136.463 C 119.648 136.208,118.711 136.003,117.820 136.006 C 116.627 136.011,116.358 136.114,116.800 136.400 C 117.333 136.745,117.333 136.787,116.800 136.781 C 116.470 136.778,115.851 136.510,115.424 136.187 C 114.669 135.617,113.059 135.523,110.600 135.907 M114.400 136.330 C 114.400 136.512,113.788 136.647,113.040 136.630 C 112.292 136.614,111.762 136.465,111.863 136.300 C 112.114 135.891,114.400 135.918,114.400 136.330 M134.138 136.300 C 134.240 136.465,133.449 136.613,132.382 136.629 C 131.314 136.645,130.532 136.510,130.644 136.329 C 130.898 135.917,133.887 135.893,134.138 136.300 M269.416 136.426 C 269.594 136.714,269.213 136.764,268.235 136.580 C 267.306 136.406,266.579 136.485,266.196 136.804 C 265.834 137.104,265.600 137.135,265.600 136.882 C 265.600 136.035,268.928 135.636,269.416 136.426 M288.164 136.342 C 288.281 136.530,287.930 136.599,287.386 136.495 C 286.841 136.391,286.126 136.529,285.798 136.802 C 285.220 137.281,284.926 136.807,285.467 136.267 C 285.852 135.881,287.915 135.939,288.164 136.342 M103.200 136.677 C 95.892 137.455,94.341 139.146,93.847 146.872 C 93.625 150.357,93.844 149.873,94.817 144.725 C 95.629 140.426,97.856 138.360,102.507 137.593 C 107.792 136.720,108.230 136.142,103.200 136.677 M143.600 137.400 C 143.600 137.459,143.240 137.601,142.800 137.716 C 142.300 137.847,142.000 137.728,142.000 137.400 C 142.000 137.072,142.300 136.953,142.800 137.084 C 143.240 137.199,143.600 137.341,143.600 137.400 M147.800 137.200 C 147.936 137.420,147.677 137.600,147.224 137.600 C 146.771 137.600,146.400 137.420,146.400 137.200 C 146.400 136.980,146.659 136.800,146.976 136.800 C 147.293 136.800,147.664 136.980,147.800 137.200 M258.498 137.066 C 258.221 137.177,258.097 137.433,258.221 137.634 C 258.345 137.835,258.267 138.000,258.047 138.000 C 257.524 138.000,257.151 137.382,257.478 137.056 C 257.618 136.915,258.018 136.814,258.367 136.832 C 258.784 136.852,258.828 136.932,258.498 137.066 M296.584 137.408 C 300.910 138.163,305.360 140.773,304.235 141.898 C 303.969 142.164,302.800 140.967,302.800 140.429 C 302.800 140.193,302.530 140.000,302.200 140.000 C 301.870 140.000,301.600 139.820,301.600 139.600 C 301.600 139.380,301.240 139.200,300.800 139.200 C 300.360 139.200,300.000 139.020,300.000 138.800 C 300.000 138.580,299.190 138.400,298.200 138.400 C 297.210 138.400,296.400 138.220,296.400 138.000 C 296.400 137.780,295.590 137.600,294.600 137.600 C 293.610 137.600,292.800 137.420,292.800 137.200 C 292.800 136.706,292.446 136.687,296.584 137.408 M136.770 140.964 C 137.342 141.653,136.784 142.088,135.981 141.580 C 135.478 141.261,135.480 141.211,136.000 141.200 C 136.533 141.189,136.533 141.145,136.000 140.800 C 135.670 140.587,135.603 140.409,135.851 140.406 C 136.099 140.403,136.513 140.654,136.770 140.964 M148.400 143.000 C 147.837 143.679,146.963 143.787,146.613 143.221 C 146.484 143.012,146.740 142.911,147.181 142.996 C 147.622 143.081,148.088 142.982,148.215 142.775 C 148.343 142.569,148.549 142.400,148.673 142.400 C 148.797 142.400,148.674 142.670,148.400 143.000 M102.507 145.219 C 100.746 146.865,100.351 146.701,101.994 145.006 C 102.737 144.239,103.441 143.708,103.558 143.825 C 103.675 143.942,103.202 144.569,102.507 145.219 M148.965 150.344 C 149.082 150.533,148.717 150.637,148.154 150.575 C 146.750 150.421,146.426 150.000,147.710 150.000 C 148.283 150.000,148.848 150.155,148.965 150.344 M147.823 151.767 C 148.250 152.079,148.509 152.424,148.399 152.533 C 148.290 152.642,147.775 152.387,147.256 151.966 C 146.169 151.085,146.657 150.915,147.823 151.767 M244.800 151.600 C 244.800 152.069,244.493 152.069,243.400 151.600 C 242.691 151.295,242.725 151.253,243.700 151.228 C 244.305 151.213,244.800 151.380,244.800 151.600 M239.114 153.346 C 238.611 153.867,238.126 154.228,238.036 154.149 C 237.803 153.945,239.252 152.400,239.676 152.400 C 239.870 152.400,239.617 152.826,239.114 153.346 M238.000 157.624 C 238.000 157.857,237.834 157.944,237.630 157.819 C 237.427 157.693,237.178 157.907,237.077 158.295 C 236.937 158.832,236.882 158.785,236.846 158.100 C 236.818 157.546,237.031 157.200,237.400 157.200 C 237.730 157.200,238.000 157.391,238.000 157.624 M235.993 162.681 C 235.887 163.825,235.947 164.615,236.126 164.435 C 236.305 164.256,236.391 163.319,236.318 162.354 L 236.185 160.600 235.993 162.681 M223.400 165.278 C 222.365 165.865,222.010 166.412,222.022 167.400 C 222.029 167.978,222.186 167.845,222.589 166.918 C 222.977 166.025,223.548 165.521,224.473 165.255 C 225.264 165.027,225.477 164.862,225.000 164.848 C 224.560 164.835,223.840 165.028,223.400 165.278 M176.623 165.767 C 177.050 166.079,177.264 166.469,177.099 166.634 C 176.935 166.799,176.800 166.723,176.800 166.467 C 176.800 166.210,176.440 166.000,176.000 166.000 C 175.560 166.000,175.200 165.820,175.200 165.600 C 175.200 165.041,175.712 165.101,176.623 165.767 M93.476 167.900 C 93.375 168.285,93.293 167.970,93.293 167.200 C 93.293 166.430,93.375 166.115,93.476 166.500 C 93.576 166.885,93.576 167.515,93.476 167.900 M94.662 190.617 C 95.022 191.555,94.633 191.666,94.081 190.782 C 93.772 190.287,93.746 190.000,94.009 190.000 C 94.238 190.000,94.532 190.278,94.662 190.617 M204.319 193.497 C 202.624 193.572,199.744 193.572,197.919 193.498 C 196.094 193.424,197.480 193.362,201.000 193.362 C 204.520 193.361,206.014 193.422,204.319 193.497 M141.800 225.600 C 141.936 225.820,141.777 226.000,141.447 226.000 C 141.117 226.000,140.736 225.820,140.600 225.600 C 140.464 225.380,140.623 225.200,140.953 225.200 C 141.283 225.200,141.664 225.380,141.800 225.600 M144.059 228.369 C 144.844 229.100,144.766 230.274,143.966 229.779 C 143.757 229.650,143.691 229.376,143.819 229.170 C 143.946 228.963,143.769 228.686,143.425 228.554 C 143.081 228.422,142.800 228.154,142.800 227.957 C 142.800 227.410,143.154 227.526,144.059 228.369 M137.716 230.400 C 137.601 230.840,137.459 231.200,137.400 231.200 C 137.341 231.200,137.199 230.840,137.084 230.400 C 136.953 229.900,137.072 229.600,137.400 229.600 C 137.728 229.600,137.847 229.900,137.716 230.400 M139.400 230.800 C 139.536 231.020,139.377 231.200,139.047 231.200 C 138.717 231.200,138.336 231.020,138.200 230.800 C 138.064 230.580,138.223 230.400,138.553 230.400 C 138.883 230.400,139.264 230.580,139.400 230.800 M141.881 232.253 C 141.742 232.392,141.806 232.837,142.023 233.244 C 142.331 233.819,142.293 233.934,141.849 233.763 C 141.535 233.643,141.337 233.242,141.409 232.872 C 141.584 231.965,141.566 232.000,141.867 232.000 C 142.013 232.000,142.020 232.114,141.881 232.253 M144.667 232.600 C 144.667 232.930,144.531 233.200,144.366 233.200 C 144.201 233.200,143.736 233.320,143.333 233.466 C 142.793 233.663,144.067 232.239,144.633 232.013 C 144.652 232.006,144.667 232.270,144.667 232.600 M137.630 233.710 C 137.581 234.188,137.032 234.096,136.860 233.580 C 136.772 233.316,136.916 233.172,137.180 233.260 C 137.444 233.348,137.647 233.550,137.630 233.710 M144.800 234.400 C 144.800 234.620,144.530 234.800,144.200 234.800 C 143.870 234.800,143.600 234.620,143.600 234.400 C 143.600 234.180,143.870 234.000,144.200 234.000 C 144.530 234.000,144.800 234.180,144.800 234.400 M180.516 273.200 C 180.401 273.640,180.259 274.000,180.200 274.000 C 180.141 274.000,179.999 273.640,179.884 273.200 C 179.753 272.700,179.872 272.400,180.200 272.400 C 180.528 272.400,180.647 272.700,180.516 273.200 M201.100 274.676 C 200.715 274.776,200.085 274.776,199.700 274.676 C 199.315 274.575,199.630 274.493,200.400 274.493 C 201.170 274.493,201.485 274.575,201.100 274.676 M180.430 276.510 C 180.381 276.988,179.832 276.896,179.660 276.380 C 179.572 276.116,179.716 275.972,179.980 276.060 C 180.244 276.148,180.447 276.350,180.430 276.510 " stroke="none" fill="#276eac" fill-rule="evenodd"></path><path id="path1" d="M115.424 136.187 C 115.851 136.510,116.470 136.778,116.800 136.781 C 117.333 136.787,117.333 136.745,116.800 136.400 C 116.358 136.114,116.627 136.011,117.820 136.006 C 118.711 136.003,119.648 136.208,119.903 136.463 C 120.254 136.814,120.523 136.796,121.014 136.389 C 121.556 135.938,121.716 135.941,122.002 136.403 C 122.277 136.848,122.545 136.862,123.390 136.477 C 124.685 135.887,128.502 135.817,127.600 136.400 C 127.115 136.714,127.172 136.789,127.900 136.794 C 128.395 136.797,128.800 136.633,128.800 136.429 C 128.800 136.225,129.115 135.976,129.500 135.876 C 129.885 135.775,126.701 135.672,122.424 135.646 C 115.506 135.605,114.733 135.665,115.424 136.187 M270.946 136.202 C 272.276 136.896,273.823 137.061,272.800 136.400 C 271.942 135.846,275.814 135.872,276.852 136.428 C 277.425 136.734,277.803 136.730,278.187 136.411 C 278.582 136.083,278.764 136.091,278.880 136.441 C 279.000 136.800,279.245 136.804,279.893 136.457 C 280.954 135.890,283.343 135.846,283.000 136.400 C 282.864 136.620,283.033 136.800,283.376 136.800 C 283.719 136.800,284.000 136.633,284.000 136.429 C 284.000 136.225,284.315 135.976,284.700 135.876 C 285.085 135.775,281.890 135.673,277.600 135.649 C 270.452 135.609,269.896 135.655,270.946 136.202 M107.000 136.589 C 106.120 136.878,104.098 137.330,102.507 137.593 C 97.855 138.361,95.624 140.430,94.821 144.725 C 94.587 145.976,94.202 147.810,93.966 148.800 C 93.230 151.891,93.288 152.514,94.317 152.596 C 94.821 152.636,95.344 152.491,95.479 152.273 C 95.613 152.055,95.528 151.997,95.289 152.145 C 95.051 152.292,94.730 152.211,94.578 151.964 C 94.381 151.646,94.200 151.673,93.956 152.057 C 93.702 152.459,93.611 152.379,93.606 151.749 C 93.603 151.281,93.870 150.674,94.200 150.400 C 94.530 150.126,94.800 149.294,94.800 148.551 C 94.800 147.808,94.980 147.200,95.200 147.200 C 95.420 147.200,95.600 146.390,95.600 145.400 C 95.600 144.410,95.780 143.600,96.000 143.600 C 96.220 143.600,96.400 143.317,96.400 142.971 C 96.400 142.253,97.334 141.200,97.971 141.200 C 98.207 141.200,98.400 141.007,98.400 140.771 C 98.400 140.134,99.453 139.200,100.171 139.200 C 100.517 139.200,100.800 139.020,100.800 138.800 C 100.800 138.580,101.610 138.400,102.600 138.400 C 103.590 138.400,104.400 138.220,104.400 138.000 C 104.400 137.780,104.985 137.594,105.700 137.587 C 106.415 137.580,107.356 137.305,107.792 136.976 C 108.282 136.606,109.046 136.457,109.792 136.587 C 110.748 136.754,110.833 136.721,110.200 136.427 C 109.165 135.947,108.914 135.960,107.000 136.589 M111.863 136.300 C 111.762 136.465,112.292 136.614,113.040 136.630 C 113.788 136.647,114.400 136.512,114.400 136.330 C 114.400 135.918,112.114 135.891,111.863 136.300 M130.644 136.329 C 130.532 136.510,131.314 136.645,132.382 136.629 C 133.449 136.613,134.240 136.465,134.138 136.300 C 133.887 135.893,130.898 135.917,130.644 136.329 M137.000 136.373 C 136.120 136.545,135.670 136.715,136.000 136.749 C 136.533 136.805,136.533 136.855,136.000 137.200 C 135.481 137.535,135.490 137.589,136.067 137.594 C 136.433 137.597,136.808 137.375,136.900 137.100 C 137.142 136.374,145.921 136.425,146.372 137.155 C 146.550 137.443,147.034 137.599,147.448 137.502 C 150.399 136.810,140.328 135.722,137.000 136.373 M254.600 136.427 C 252.173 136.830,249.157 140.000,251.200 140.000 C 251.420 140.000,251.600 139.673,251.600 139.274 C 251.600 137.557,254.579 136.597,259.800 136.631 C 263.191 136.653,264.072 136.574,262.800 136.361 C 260.500 135.976,257.151 136.002,254.600 136.427 M266.100 136.265 C 265.825 136.376,265.600 136.654,265.600 136.882 C 265.600 137.135,265.834 137.104,266.196 136.804 C 266.579 136.485,267.306 136.406,268.235 136.580 C 269.213 136.764,269.594 136.714,269.416 136.426 C 269.150 135.996,267.023 135.893,266.100 136.265 M285.467 136.267 C 284.926 136.807,285.220 137.281,285.798 136.802 C 286.126 136.529,286.841 136.391,287.386 136.495 C 287.930 136.599,288.281 136.530,288.164 136.342 C 287.915 135.939,285.852 135.881,285.467 136.267 M290.000 136.328 C 289.670 136.478,289.342 136.865,289.270 137.189 C 289.170 137.645,289.317 137.618,289.923 137.069 C 290.717 136.351,292.800 136.477,292.800 137.243 C 292.800 137.440,293.610 137.600,294.600 137.600 C 295.590 137.600,296.400 137.780,296.400 138.000 C 296.400 138.220,297.210 138.400,298.200 138.400 C 299.190 138.400,300.000 138.580,300.000 138.800 C 300.000 139.020,300.360 139.200,300.800 139.200 C 301.240 139.200,301.600 139.380,301.600 139.600 C 301.600 139.820,301.870 140.000,302.200 140.000 C 302.530 140.000,302.800 140.193,302.800 140.429 C 302.800 140.967,303.969 142.164,304.235 141.898 C 305.340 140.793,300.919 138.164,296.728 137.434 C 294.890 137.113,292.882 136.659,292.266 136.425 C 291.015 135.949,290.851 135.942,290.000 136.328 M142.000 137.400 C 142.000 137.728,142.300 137.847,142.800 137.716 C 143.240 137.601,143.600 137.459,143.600 137.400 C 143.600 137.341,143.240 137.199,142.800 137.084 C 142.300 136.953,142.000 137.072,142.000 137.400 M257.478 137.056 C 257.151 137.382,257.524 138.000,258.047 138.000 C 258.267 138.000,258.345 137.835,258.221 137.634 C 258.097 137.433,258.221 137.177,258.498 137.066 C 258.828 136.932,258.784 136.852,258.367 136.832 C 258.018 136.814,257.618 136.915,257.478 137.056 M136.000 140.800 C 136.533 141.145,136.533 141.189,136.000 141.200 C 135.480 141.211,135.478 141.261,135.981 141.580 C 136.300 141.782,136.714 141.853,136.900 141.738 C 137.320 141.479,136.468 140.398,135.851 140.406 C 135.603 140.409,135.670 140.587,136.000 140.800 M250.524 143.000 C 250.526 144.320,250.601 144.812,250.690 144.093 C 250.779 143.374,250.777 142.294,250.686 141.693 C 250.595 141.092,250.522 141.680,250.524 143.000 M148.215 142.775 C 148.088 142.982,147.622 143.081,147.181 142.996 C 146.740 142.911,146.484 143.012,146.613 143.221 C 146.963 143.787,147.837 143.679,148.400 143.000 C 148.674 142.670,148.797 142.400,148.673 142.400 C 148.549 142.400,148.343 142.569,148.215 142.775 M149.200 143.800 C 149.200 144.350,149.380 144.800,149.600 144.800 C 149.820 144.800,150.000 144.350,150.000 143.800 C 150.000 143.250,149.820 142.800,149.600 142.800 C 149.380 142.800,149.200 143.250,149.200 143.800 M101.994 145.006 C 101.251 145.773,100.778 146.400,100.943 146.400 C 101.419 146.400,103.794 144.061,103.558 143.825 C 103.441 143.708,102.737 144.239,101.994 145.006 M146.898 150.231 C 147.279 150.612,149.195 150.716,148.965 150.344 C 148.848 150.155,148.283 150.000,147.710 150.000 C 147.136 150.000,146.771 150.104,146.898 150.231 M156.100 150.687 C 156.705 150.778,157.695 150.778,158.300 150.687 C 158.905 150.595,158.410 150.520,157.200 150.520 C 155.990 150.520,155.495 150.595,156.100 150.687 M241.507 150.690 C 242.226 150.779,243.306 150.777,243.907 150.686 C 244.508 150.595,243.920 150.522,242.600 150.524 C 241.280 150.526,240.788 150.601,241.507 150.690 M237.610 151.928 C 236.359 153.180,235.891 156.220,236.097 161.757 L 236.200 164.515 233.000 164.495 L 229.800 164.476 232.147 164.790 C 233.438 164.963,234.640 165.341,234.819 165.631 C 235.819 167.248,236.840 164.312,236.594 160.525 C 236.281 155.708,237.410 151.657,239.076 151.613 C 239.820 151.593,240.129 150.800,239.393 150.800 C 239.033 150.800,238.231 151.308,237.610 151.928 M147.256 151.966 C 147.775 152.387,148.290 152.642,148.399 152.533 C 148.634 152.300,147.215 151.200,146.679 151.200 C 146.477 151.200,146.736 151.545,147.256 151.966 M243.400 151.600 C 244.493 152.069,244.800 152.069,244.800 151.600 C 244.800 151.380,244.305 151.213,243.700 151.228 C 242.725 151.253,242.691 151.295,243.400 151.600 M238.598 153.202 C 237.558 154.351,238.020 154.480,239.114 153.346 C 239.617 152.826,239.870 152.400,239.676 152.400 C 239.482 152.400,238.997 152.761,238.598 153.202 M93.043 155.033 C 92.738 155.827,92.720 160.213,93.023 159.910 C 93.146 159.787,93.326 158.643,93.423 157.367 C 93.520 156.091,93.824 154.905,94.100 154.730 C 94.464 154.499,94.421 154.411,93.943 154.406 C 93.581 154.403,93.176 154.685,93.043 155.033 M163.600 158.000 C 163.600 158.440,163.780 158.800,164.000 158.800 C 164.220 158.800,164.400 158.440,164.400 158.000 C 164.400 157.560,164.220 157.200,164.000 157.200 C 163.780 157.200,163.600 157.560,163.600 158.000 M236.846 158.100 C 236.882 158.785,236.937 158.832,237.077 158.295 C 237.178 157.907,237.427 157.693,237.630 157.819 C 237.834 157.944,238.000 157.857,238.000 157.624 C 238.000 157.391,237.730 157.200,237.400 157.200 C 237.031 157.200,236.818 157.546,236.846 158.100 M164.400 165.200 C 164.400 166.111,164.815 166.225,165.530 165.510 C 165.799 165.241,166.960 164.906,168.110 164.766 C 170.166 164.517,170.152 164.512,167.300 164.456 C 164.648 164.405,164.400 164.468,164.400 165.200 M171.900 165.082 C 172.395 165.178,173.205 165.178,173.700 165.082 C 174.195 164.987,173.790 164.909,172.800 164.909 C 171.810 164.909,171.405 164.987,171.900 165.082 M224.472 165.255 C 222.917 165.703,221.975 167.501,222.044 169.887 L 222.088 171.400 222.420 169.719 C 223.047 166.542,223.865 165.762,227.149 165.207 L 229.000 164.894 227.400 164.883 C 226.520 164.877,225.202 165.044,224.472 165.255 M175.200 165.600 C 175.200 165.820,175.560 166.000,176.000 166.000 C 176.440 166.000,176.800 166.210,176.800 166.467 C 176.800 166.723,176.935 166.799,177.099 166.634 C 177.264 166.469,177.050 166.079,176.623 165.767 C 175.712 165.101,175.200 165.041,175.200 165.600 M93.293 167.200 C 93.293 167.970,93.375 168.285,93.476 167.900 C 93.576 167.515,93.576 166.885,93.476 166.500 C 93.375 166.115,93.293 166.430,93.293 167.200 M92.828 174.433 C 92.844 176.505,93.016 178.560,93.211 179.000 C 93.432 179.498,93.495 178.148,93.379 175.430 C 93.148 170.003,92.790 169.357,92.828 174.433 M221.661 174.600 C 221.634 176.360,221.787 178.070,222.000 178.400 C 222.234 178.762,222.390 178.810,222.394 178.523 C 222.397 178.260,222.764 178.116,223.211 178.202 C 223.657 178.288,223.916 178.188,223.787 177.979 C 223.658 177.771,223.306 177.600,223.005 177.600 C 222.634 177.600,222.377 176.858,222.207 175.300 C 221.780 171.385,221.711 171.296,221.661 174.600 M179.800 179.173 C 178.615 179.405,178.459 179.508,179.200 179.571 C 180.126 179.650,180.141 179.682,179.400 180.000 C 178.625 180.333,178.627 180.345,179.467 180.372 C 179.943 180.387,180.408 180.175,180.500 179.900 C 180.725 179.228,188.614 179.254,189.289 179.929 C 189.548 180.188,190.129 180.385,190.580 180.367 C 191.201 180.343,191.078 180.194,190.072 179.755 C 188.527 179.080,182.127 178.717,179.800 179.173 M215.200 179.217 C 216.410 179.384,218.120 179.518,219.000 179.514 L 220.600 179.508 219.000 179.177 C 218.120 178.995,216.410 178.861,215.200 178.879 L 213.000 178.913 215.200 179.217 M209.726 179.603 C 208.542 180.080,207.480 182.000,208.400 182.000 C 208.620 182.000,208.800 181.669,208.800 181.264 C 208.800 180.572,209.059 180.444,212.600 179.383 C 212.820 179.317,212.460 179.260,211.800 179.257 C 211.140 179.254,210.207 179.409,209.726 179.603 M207.709 184.000 C 207.709 184.990,207.787 185.395,207.882 184.900 C 207.978 184.405,207.978 183.595,207.882 183.100 C 207.787 182.605,207.709 183.010,207.709 184.000 M93.314 186.600 C 93.317 187.700,93.395 188.103,93.487 187.495 C 93.579 186.886,93.577 185.986,93.482 185.495 C 93.387 185.003,93.311 185.500,93.314 186.600 M207.246 190.300 C 207.220 191.731,207.371 192.800,207.600 192.800 C 207.820 192.800,208.003 192.575,208.006 192.300 C 208.010 191.967,208.142 192.000,208.400 192.400 C 208.742 192.929,208.788 192.926,208.794 192.380 C 208.797 192.039,208.593 191.553,208.340 191.300 C 208.088 191.048,207.748 190.157,207.586 189.320 C 207.322 187.957,207.287 188.059,207.246 190.300 M94.081 190.782 C 94.633 191.666,95.022 191.555,94.662 190.617 C 94.532 190.278,94.238 190.000,94.009 190.000 C 93.746 190.000,93.772 190.287,94.081 190.782 M107.241 195.500 C 107.275 197.759,107.334 197.979,107.601 196.848 C 107.777 196.105,108.163 195.343,108.460 195.154 C 108.859 194.901,108.870 194.811,108.500 194.806 C 108.225 194.803,108.000 194.350,108.000 193.800 C 108.000 193.250,107.820 192.800,107.600 192.800 C 107.369 192.800,107.217 193.939,107.241 195.500 M197.919 193.498 C 199.744 193.572,202.624 193.572,204.319 193.497 C 206.014 193.422,204.520 193.361,201.000 193.362 C 197.480 193.362,196.094 193.424,197.919 193.498 M107.709 202.000 C 107.709 202.990,107.787 203.395,107.882 202.900 C 107.978 202.405,107.978 201.595,107.882 201.100 C 107.787 200.605,107.709 201.010,107.709 202.000 M113.200 206.800 C 113.200 207.020,113.470 207.200,113.800 207.200 C 114.130 207.200,114.400 207.020,114.400 206.800 C 114.400 206.580,114.130 206.400,113.800 206.400 C 113.470 206.400,113.200 206.580,113.200 206.800 M121.899 209.400 C 121.739 210.280,121.629 211.990,121.654 213.200 L 121.700 215.400 122.011 213.259 C 122.183 212.081,122.520 210.920,122.761 210.679 C 123.003 210.437,123.197 209.961,123.194 209.620 C 123.189 209.097,123.131 209.089,122.827 209.570 C 122.557 209.996,122.432 209.845,122.328 208.970 C 122.200 207.888,122.168 207.920,121.899 209.400 M122.101 217.000 C 122.105 217.880,122.187 218.193,122.283 217.695 C 122.379 217.198,122.375 216.478,122.275 216.095 C 122.175 215.713,122.096 216.120,122.101 217.000 M264.101 223.800 C 264.105 224.680,264.187 224.993,264.283 224.495 C 264.379 223.998,264.375 223.278,264.275 222.895 C 264.175 222.513,264.096 222.920,264.101 223.800 M136.257 226.718 C 135.798 230.563,136.612 234.811,137.681 234.150 C 137.972 233.970,137.875 233.698,137.396 233.348 C 136.494 232.688,136.237 226.389,137.100 226.101 C 137.375 226.009,137.587 225.543,137.572 225.067 C 137.545 224.231,137.532 224.229,137.226 225.000 L 136.908 225.800 136.732 225.000 C 136.636 224.560,136.422 225.333,136.257 226.718 M140.600 225.600 C 140.736 225.820,141.117 226.000,141.447 226.000 C 141.777 226.000,141.936 225.820,141.800 225.600 C 141.664 225.380,141.283 225.200,140.953 225.200 C 140.623 225.200,140.464 225.380,140.600 225.600 M142.800 227.957 C 142.800 228.154,143.081 228.422,143.425 228.554 C 143.769 228.686,143.946 228.963,143.819 229.170 C 143.691 229.376,143.757 229.650,143.966 229.779 C 144.766 230.274,144.844 229.100,144.059 228.369 C 143.154 227.526,142.800 227.410,142.800 227.957 M137.084 230.400 C 137.199 230.840,137.341 231.200,137.400 231.200 C 137.459 231.200,137.601 230.840,137.716 230.400 C 137.847 229.900,137.728 229.600,137.400 229.600 C 137.072 229.600,136.953 229.900,137.084 230.400 M138.200 230.800 C 138.336 231.020,138.717 231.200,139.047 231.200 C 139.377 231.200,139.536 231.020,139.400 230.800 C 139.264 230.580,138.883 230.400,138.553 230.400 C 138.223 230.400,138.064 230.580,138.200 230.800 M141.569 232.100 C 141.290 233.012,141.387 233.586,141.849 233.763 C 142.293 233.934,142.331 233.819,142.023 233.244 C 141.806 232.837,141.742 232.392,141.881 232.253 C 142.020 232.114,142.013 232.000,141.867 232.000 C 141.720 232.000,141.586 232.045,141.569 232.100 M143.600 232.880 C 142.902 233.476,142.821 233.652,143.333 233.466 C 143.736 233.320,144.201 233.200,144.366 233.200 C 144.531 233.200,144.667 232.930,144.667 232.600 C 144.667 232.270,144.652 232.006,144.633 232.013 C 144.615 232.021,144.150 232.411,143.600 232.880 M143.600 234.400 C 143.600 234.620,143.870 234.800,144.200 234.800 C 144.530 234.800,144.800 234.620,144.800 234.400 C 144.800 234.180,144.530 234.000,144.200 234.000 C 143.870 234.000,143.600 234.180,143.600 234.400 M251.505 235.483 C 252.002 235.579,252.722 235.575,253.105 235.475 C 253.487 235.375,253.080 235.296,252.200 235.301 C 251.320 235.305,251.007 235.387,251.505 235.483 M150.006 237.300 C 150.011 238.545,150.116 238.839,150.400 238.400 C 150.910 237.610,150.910 235.600,150.400 235.600 C 150.180 235.600,150.003 236.365,150.006 237.300 M150.509 244.400 C 150.509 245.390,150.587 245.795,150.682 245.300 C 150.778 244.805,150.778 243.995,150.682 243.500 C 150.587 243.005,150.509 243.410,150.509 244.400 M249.200 244.200 C 249.200 244.530,249.380 244.800,249.600 244.800 C 249.820 244.800,250.000 244.530,250.000 244.200 C 250.000 243.870,249.820 243.600,249.600 243.600 C 249.380 243.600,249.200 243.870,249.200 244.200 M243.600 249.600 C 243.600 249.820,243.870 250.000,244.200 250.000 C 244.530 250.000,244.800 249.820,244.800 249.600 C 244.800 249.380,244.530 249.200,244.200 249.200 C 243.870 249.200,243.600 249.380,243.600 249.600 M164.705 250.800 C 164.543 251.350,164.431 252.970,164.456 254.400 C 164.497 256.812,164.520 256.877,164.778 255.292 C 164.931 254.353,165.268 253.372,165.528 253.112 C 165.788 252.852,165.997 252.361,165.994 252.020 C 165.989 251.494,165.933 251.487,165.625 251.974 C 165.359 252.394,165.227 252.179,165.131 251.174 C 165.008 249.889,164.981 249.865,164.705 250.800 M164.901 259.400 C 164.905 260.280,164.987 260.593,165.083 260.095 C 165.179 259.598,165.175 258.878,165.075 258.495 C 164.975 258.113,164.896 258.520,164.901 259.400 M170.400 264.000 C 170.400 264.220,170.670 264.400,171.000 264.400 C 171.330 264.400,171.600 264.220,171.600 264.000 C 171.600 263.780,171.330 263.600,171.000 263.600 C 170.670 263.600,170.400 263.780,170.400 264.000 M221.301 266.600 C 221.305 267.480,221.387 267.793,221.483 267.295 C 221.579 266.798,221.575 266.078,221.475 265.695 C 221.375 265.313,221.296 265.720,221.301 266.600 M179.075 268.556 C 178.654 271.553,178.786 274.047,179.226 271.412 C 179.409 270.319,179.778 269.014,180.047 268.513 C 180.315 268.011,180.414 267.481,180.267 267.334 C 180.120 267.187,179.982 267.412,179.960 267.833 C 179.930 268.414,179.851 268.357,179.635 267.600 C 179.393 266.752,179.308 266.897,179.075 268.556 M179.884 273.200 C 179.999 273.640,180.141 274.000,180.200 274.000 C 180.259 274.000,180.401 273.640,180.516 273.200 C 180.647 272.700,180.528 272.400,180.200 272.400 C 179.872 272.400,179.753 272.700,179.884 273.200 M179.260 274.526 C 179.186 275.920,179.889 277.316,180.481 276.950 C 180.779 276.766,180.719 276.530,180.295 276.220 C 179.951 275.968,179.590 275.231,179.494 274.581 L 179.320 273.400 179.260 274.526 M199.700 274.676 C 200.085 274.776,200.715 274.776,201.100 274.676 C 201.485 274.575,201.170 274.493,200.400 274.493 C 199.630 274.493,199.315 274.575,199.700 274.676 " stroke="none" fill="#a09c9c" fill-rule="evenodd"></path><path id="path2" d="M115.424 136.187 C 115.851 136.510,116.470 136.778,116.800 136.781 C 117.333 136.787,117.333 136.745,116.800 136.400 C 116.358 136.114,116.627 136.011,117.820 136.006 C 118.711 136.003,119.648 136.208,119.903 136.463 C 120.254 136.814,120.523 136.796,121.014 136.389 C 121.556 135.938,121.716 135.941,122.002 136.403 C 122.277 136.848,122.545 136.862,123.390 136.477 C 124.685 135.887,128.502 135.817,127.600 136.400 C 127.115 136.714,127.172 136.789,127.900 136.794 C 128.395 136.797,128.800 136.633,128.800 136.429 C 128.800 136.225,129.115 135.976,129.500 135.876 C 129.885 135.775,126.701 135.672,122.424 135.646 C 115.506 135.605,114.733 135.665,115.424 136.187 M270.946 136.202 C 272.276 136.896,273.823 137.061,272.800 136.400 C 271.942 135.846,275.814 135.872,276.852 136.428 C 277.425 136.734,277.803 136.730,278.187 136.411 C 278.582 136.083,278.764 136.091,278.880 136.441 C 279.000 136.800,279.245 136.804,279.893 136.457 C 280.954 135.890,283.343 135.846,283.000 136.400 C 282.864 136.620,283.033 136.800,283.376 136.800 C 283.719 136.800,284.000 136.633,284.000 136.429 C 284.000 136.225,284.315 135.976,284.700 135.876 C 285.085 135.775,281.890 135.673,277.600 135.649 C 270.452 135.609,269.896 135.655,270.946 136.202 M107.000 136.589 C 106.120 136.878,104.098 137.330,102.507 137.593 C 97.855 138.361,95.624 140.430,94.821 144.725 C 94.587 145.976,94.202 147.810,93.966 148.800 C 93.230 151.891,93.288 152.514,94.317 152.596 C 94.821 152.636,95.344 152.491,95.479 152.273 C 95.613 152.055,95.528 151.997,95.289 152.145 C 95.051 152.292,94.730 152.211,94.578 151.964 C 94.381 151.646,94.200 151.673,93.956 152.057 C 93.702 152.459,93.611 152.379,93.606 151.749 C 93.603 151.281,93.870 150.674,94.200 150.400 C 94.530 150.126,94.800 149.294,94.800 148.551 C 94.800 147.808,94.980 147.200,95.200 147.200 C 95.420 147.200,95.600 146.390,95.600 145.400 C 95.600 144.410,95.780 143.600,96.000 143.600 C 96.220 143.600,96.400 143.317,96.400 142.971 C 96.400 142.253,97.334 141.200,97.971 141.200 C 98.207 141.200,98.400 141.007,98.400 140.771 C 98.400 140.134,99.453 139.200,100.171 139.200 C 100.517 139.200,100.800 139.020,100.800 138.800 C 100.800 138.580,101.610 138.400,102.600 138.400 C 103.590 138.400,104.400 138.220,104.400 138.000 C 104.400 137.780,104.985 137.594,105.700 137.587 C 106.415 137.580,107.356 137.305,107.792 136.976 C 108.282 136.606,109.046 136.457,109.792 136.587 C 110.748 136.754,110.833 136.721,110.200 136.427 C 109.165 135.947,108.914 135.960,107.000 136.589 M111.863 136.300 C 111.762 136.465,112.292 136.614,113.040 136.630 C 113.788 136.647,114.400 136.512,114.400 136.330 C 114.400 135.918,112.114 135.891,111.863 136.300 M130.644 136.329 C 130.532 136.510,131.314 136.645,132.382 136.629 C 133.449 136.613,134.240 136.465,134.138 136.300 C 133.887 135.893,130.898 135.917,130.644 136.329 M137.000 136.373 C 136.120 136.545,135.670 136.715,136.000 136.749 C 136.533 136.805,136.533 136.855,136.000 137.200 C 135.481 137.535,135.490 137.589,136.067 137.594 C 136.433 137.597,136.808 137.375,136.900 137.100 C 137.142 136.374,145.921 136.425,146.372 137.155 C 146.550 137.443,147.034 137.599,147.448 137.502 C 150.399 136.810,140.328 135.722,137.000 136.373 M254.600 136.427 C 252.173 136.830,249.157 140.000,251.200 140.000 C 251.420 140.000,251.600 139.673,251.600 139.274 C 251.600 137.557,254.579 136.597,259.800 136.631 C 263.191 136.653,264.072 136.574,262.800 136.361 C 260.500 135.976,257.151 136.002,254.600 136.427 M266.100 136.265 C 265.825 136.376,265.600 136.654,265.600 136.882 C 265.600 137.135,265.834 137.104,266.196 136.804 C 266.579 136.485,267.306 136.406,268.235 136.580 C 269.213 136.764,269.594 136.714,269.416 136.426 C 269.150 135.996,267.023 135.893,266.100 136.265 M285.467 136.267 C 284.926 136.807,285.220 137.281,285.798 136.802 C 286.126 136.529,286.841 136.391,287.386 136.495 C 287.930 136.599,288.281 136.530,288.164 136.342 C 287.915 135.939,285.852 135.881,285.467 136.267 M290.000 136.328 C 289.670 136.478,289.342 136.865,289.270 137.189 C 289.170 137.645,289.317 137.618,289.923 137.069 C 290.717 136.351,292.800 136.477,292.800 137.243 C 292.800 137.440,293.610 137.600,294.600 137.600 C 295.590 137.600,296.400 137.780,296.400 138.000 C 296.400 138.220,297.210 138.400,298.200 138.400 C 299.190 138.400,300.000 138.580,300.000 138.800 C 300.000 139.020,300.360 139.200,300.800 139.200 C 301.240 139.200,301.600 139.380,301.600 139.600 C 301.600 139.820,301.870 140.000,302.200 140.000 C 302.530 140.000,302.800 140.193,302.800 140.429 C 302.800 140.967,303.969 142.164,304.235 141.898 C 305.340 140.793,300.919 138.164,296.728 137.434 C 294.890 137.113,292.882 136.659,292.266 136.425 C 291.015 135.949,290.851 135.942,290.000 136.328 M142.000 137.400 C 142.000 137.728,142.300 137.847,142.800 137.716 C 143.240 137.601,143.600 137.459,143.600 137.400 C 143.600 137.341,143.240 137.199,142.800 137.084 C 142.300 136.953,142.000 137.072,142.000 137.400 M257.478 137.056 C 257.151 137.382,257.524 138.000,258.047 138.000 C 258.267 138.000,258.345 137.835,258.221 137.634 C 258.097 137.433,258.221 137.177,258.498 137.066 C 258.828 136.932,258.784 136.852,258.367 136.832 C 258.018 136.814,257.618 136.915,257.478 137.056 M136.000 140.800 C 136.533 141.145,136.533 141.189,136.000 141.200 C 135.480 141.211,135.478 141.261,135.981 141.580 C 136.300 141.782,136.714 141.853,136.900 141.738 C 137.320 141.479,136.468 140.398,135.851 140.406 C 135.603 140.409,135.670 140.587,136.000 140.800 M250.524 143.000 C 250.526 144.320,250.601 144.812,250.690 144.093 C 250.779 143.374,250.777 142.294,250.686 141.693 C 250.595 141.092,250.522 141.680,250.524 143.000 M148.215 142.775 C 148.088 142.982,147.622 143.081,147.181 142.996 C 146.740 142.911,146.484 143.012,146.613 143.221 C 146.963 143.787,147.837 143.679,148.400 143.000 C 148.674 142.670,148.797 142.400,148.673 142.400 C 148.549 142.400,148.343 142.569,148.215 142.775 M149.200 143.800 C 149.200 144.350,149.380 144.800,149.600 144.800 C 149.820 144.800,150.000 144.350,150.000 143.800 C 150.000 143.250,149.820 142.800,149.600 142.800 C 149.380 142.800,149.200 143.250,149.200 143.800 M101.994 145.006 C 101.251 145.773,100.778 146.400,100.943 146.400 C 101.419 146.400,103.794 144.061,103.558 143.825 C 103.441 143.708,102.737 144.239,101.994 145.006 M146.898 150.231 C 147.279 150.612,149.195 150.716,148.965 150.344 C 148.848 150.155,148.283 150.000,147.710 150.000 C 147.136 150.000,146.771 150.104,146.898 150.231 M156.100 150.687 C 156.705 150.778,157.695 150.778,158.300 150.687 C 158.905 150.595,158.410 150.520,157.200 150.520 C 155.990 150.520,155.495 150.595,156.100 150.687 M241.507 150.690 C 242.226 150.779,243.306 150.777,243.907 150.686 C 244.508 150.595,243.920 150.522,242.600 150.524 C 241.280 150.526,240.788 150.601,241.507 150.690 M237.610 151.928 C 236.359 153.180,235.891 156.220,236.097 161.757 L 236.200 164.515 233.000 164.495 L 229.800 164.476 232.147 164.790 C 233.438 164.963,234.640 165.341,234.819 165.631 C 235.819 167.248,236.840 164.312,236.594 160.525 C 236.281 155.708,237.410 151.657,239.076 151.613 C 239.820 151.593,240.129 150.800,239.393 150.800 C 239.033 150.800,238.231 151.308,237.610 151.928 M147.256 151.966 C 147.775 152.387,148.290 152.642,148.399 152.533 C 148.634 152.300,147.215 151.200,146.679 151.200 C 146.477 151.200,146.736 151.545,147.256 151.966 M243.400 151.600 C 244.493 152.069,244.800 152.069,244.800 151.600 C 244.800 151.380,244.305 151.213,243.700 151.228 C 242.725 151.253,242.691 151.295,243.400 151.600 M238.598 153.202 C 237.558 154.351,238.020 154.480,239.114 153.346 C 239.617 152.826,239.870 152.400,239.676 152.400 C 239.482 152.400,238.997 152.761,238.598 153.202 M93.043 155.033 C 92.738 155.827,92.720 160.213,93.023 159.910 C 93.146 159.787,93.326 158.643,93.423 157.367 C 93.520 156.091,93.824 154.905,94.100 154.730 C 94.464 154.499,94.421 154.411,93.943 154.406 C 93.581 154.403,93.176 154.685,93.043 155.033 M163.600 158.000 C 163.600 158.440,163.780 158.800,164.000 158.800 C 164.220 158.800,164.400 158.440,164.400 158.000 C 164.400 157.560,164.220 157.200,164.000 157.200 C 163.780 157.200,163.600 157.560,163.600 158.000 M236.846 158.100 C 236.882 158.785,236.937 158.832,237.077 158.295 C 237.178 157.907,237.427 157.693,237.630 157.819 C 237.834 157.944,238.000 157.857,238.000 157.624 C 238.000 157.391,237.730 157.200,237.400 157.200 C 237.031 157.200,236.818 157.546,236.846 158.100 M164.400 165.200 C 164.400 166.111,164.815 166.225,165.530 165.510 C 165.799 165.241,166.960 164.906,168.110 164.766 C 170.166 164.517,170.152 164.512,167.300 164.456 C 164.648 164.405,164.400 164.468,164.400 165.200 M171.900 165.082 C 172.395 165.178,173.205 165.178,173.700 165.082 C 174.195 164.987,173.790 164.909,172.800 164.909 C 171.810 164.909,171.405 164.987,171.900 165.082 M224.472 165.255 C 222.917 165.703,221.975 167.501,222.044 169.887 L 222.088 171.400 222.420 169.719 C 223.047 166.542,223.865 165.762,227.149 165.207 L 229.000 164.894 227.400 164.883 C 226.520 164.877,225.202 165.044,224.472 165.255 M175.200 165.600 C 175.200 165.820,175.560 166.000,176.000 166.000 C 176.440 166.000,176.800 166.210,176.800 166.467 C 176.800 166.723,176.935 166.799,177.099 166.634 C 177.264 166.469,177.050 166.079,176.623 165.767 C 175.712 165.101,175.200 165.041,175.200 165.600 M93.293 167.200 C 93.293 167.970,93.375 168.285,93.476 167.900 C 93.576 167.515,93.576 166.885,93.476 166.500 C 93.375 166.115,93.293 166.430,93.293 167.200 M92.828 174.433 C 92.844 176.505,93.016 178.560,93.211 179.000 C 93.432 179.498,93.495 178.148,93.379 175.430 C 93.148 170.003,92.790 169.357,92.828 174.433 M221.661 174.600 C 221.634 176.360,221.787 178.070,222.000 178.400 C 222.234 178.762,222.390 178.810,222.394 178.523 C 222.397 178.260,222.764 178.116,223.211 178.202 C 223.657 178.288,223.916 178.188,223.787 177.979 C 223.658 177.771,223.306 177.600,223.005 177.600 C 222.634 177.600,222.377 176.858,222.207 175.300 C 221.780 171.385,221.711 171.296,221.661 174.600 M179.800 179.173 C 178.615 179.405,178.459 179.508,179.200 179.571 C 180.126 179.650,180.141 179.682,179.400 180.000 C 178.625 180.333,178.627 180.345,179.467 180.372 C 179.943 180.387,180.408 180.175,180.500 179.900 C 180.725 179.228,188.614 179.254,189.289 179.929 C 189.548 180.188,190.129 180.385,190.580 180.367 C 191.201 180.343,191.078 180.194,190.072 179.755 C 188.527 179.080,182.127 178.717,179.800 179.173 M215.200 179.217 C 216.410 179.384,218.120 179.518,219.000 179.514 L 220.600 179.508 219.000 179.177 C 218.120 178.995,216.410 178.861,215.200 178.879 L 213.000 178.913 215.200 179.217 M209.726 179.603 C 208.542 180.080,207.480 182.000,208.400 182.000 C 208.620 182.000,208.800 181.669,208.800 181.264 C 208.800 180.572,209.059 180.444,212.600 179.383 C 212.820 179.317,212.460 179.260,211.800 179.257 C 211.140 179.254,210.207 179.409,209.726 179.603 M207.709 184.000 C 207.709 184.990,207.787 185.395,207.882 184.900 C 207.978 184.405,207.978 183.595,207.882 183.100 C 207.787 182.605,207.709 183.010,207.709 184.000 M93.314 186.600 C 93.317 187.700,93.395 188.103,93.487 187.495 C 93.579 186.886,93.577 185.986,93.482 185.495 C 93.387 185.003,93.311 185.500,93.314 186.600 M207.246 190.300 C 207.220 191.731,207.371 192.800,207.600 192.800 C 207.820 192.800,208.003 192.575,208.006 192.300 C 208.010 191.967,208.142 192.000,208.400 192.400 C 208.742 192.929,208.788 192.926,208.794 192.380 C 208.797 192.039,208.593 191.553,208.340 191.300 C 208.088 191.048,207.748 190.157,207.586 189.320 C 207.322 187.957,207.287 188.059,207.246 190.300 M94.081 190.782 C 94.633 191.666,95.022 191.555,94.662 190.617 C 94.532 190.278,94.238 190.000,94.009 190.000 C 93.746 190.000,93.772 190.287,94.081 190.782 M107.241 195.500 C 107.275 197.759,107.334 197.979,107.601 196.848 C 107.777 196.105,108.163 195.343,108.460 195.154 C 108.859 194.901,108.870 194.811,108.500 194.806 C 108.225 194.803,108.000 194.350,108.000 193.800 C 108.000 193.250,107.820 192.800,107.600 192.800 C 107.369 192.800,107.217 193.939,107.241 195.500 M197.919 193.498 C 199.744 193.572,202.624 193.572,204.319 193.497 C 206.014 193.422,204.520 193.361,201.000 193.362 C 197.480 193.362,196.094 193.424,197.919 193.498 M107.709 202.000 C 107.709 202.990,107.787 203.395,107.882 202.900 C 107.978 202.405,107.978 201.595,107.882 201.100 C 107.787 200.605,107.709 201.010,107.709 202.000 M113.200 206.800 C 113.200 207.020,113.470 207.200,113.800 207.200 C 114.130 207.200,114.400 207.020,114.400 206.800 C 114.400 206.580,114.130 206.400,113.800 206.400 C 113.470 206.400,113.200 206.580,113.200 206.800 M121.899 209.400 C 121.739 210.280,121.629 211.990,121.654 213.200 L 121.700 215.400 122.011 213.259 C 122.183 212.081,122.520 210.920,122.761 210.679 C 123.003 210.437,123.197 209.961,123.194 209.620 C 123.189 209.097,123.131 209.089,122.827 209.570 C 122.557 209.996,122.432 209.845,122.328 208.970 C 122.200 207.888,122.168 207.920,121.899 209.400 M122.101 217.000 C 122.105 217.880,122.187 218.193,122.283 217.695 C 122.379 217.198,122.375 216.478,122.275 216.095 C 122.175 215.713,122.096 216.120,122.101 217.000 M264.101 223.800 C 264.105 224.680,264.187 224.993,264.283 224.495 C 264.379 223.998,264.375 223.278,264.275 222.895 C 264.175 222.513,264.096 222.920,264.101 223.800 M136.257 226.718 C 135.798 230.563,136.612 234.811,137.681 234.150 C 137.972 233.970,137.875 233.698,137.396 233.348 C 136.494 232.688,136.237 226.389,137.100 226.101 C 137.375 226.009,137.587 225.543,137.572 225.067 C 137.545 224.231,137.532 224.229,137.226 225.000 L 136.908 225.800 136.732 225.000 C 136.636 224.560,136.422 225.333,136.257 226.718 M140.600 225.600 C 140.736 225.820,141.117 226.000,141.447 226.000 C 141.777 226.000,141.936 225.820,141.800 225.600 C 141.664 225.380,141.283 225.200,140.953 225.200 C 140.623 225.200,140.464 225.380,140.600 225.600 M142.800 227.957 C 142.800 228.154,143.081 228.422,143.425 228.554 C 143.769 228.686,143.946 228.963,143.819 229.170 C 143.691 229.376,143.757 229.650,143.966 229.779 C 144.766 230.274,144.844 229.100,144.059 228.369 C 143.154 227.526,142.800 227.410,142.800 227.957 M137.084 230.400 C 137.199 230.840,137.341 231.200,137.400 231.200 C 137.459 231.200,137.601 230.840,137.716 230.400 C 137.847 229.900,137.728 229.600,137.400 229.600 C 137.072 229.600,136.953 229.900,137.084 230.400 M138.200 230.800 C 138.336 231.020,138.717 231.200,139.047 231.200 C 139.377 231.200,139.536 231.020,139.400 230.800 C 139.264 230.580,138.883 230.400,138.553 230.400 C 138.223 230.400,138.064 230.580,138.200 230.800 M141.569 232.100 C 141.290 233.012,141.387 233.586,141.849 233.763 C 142.293 233.934,142.331 233.819,142.023 233.244 C 141.806 232.837,141.742 232.392,141.881 232.253 C 142.020 232.114,142.013 232.000,141.867 232.000 C 141.720 232.000,141.586 232.045,141.569 232.100 M143.600 232.880 C 142.902 233.476,142.821 233.652,143.333 233.466 C 143.736 233.320,144.201 233.200,144.366 233.200 C 144.531 233.200,144.667 232.930,144.667 232.600 C 144.667 232.270,144.652 232.006,144.633 232.013 C 144.615 232.021,144.150 232.411,143.600 232.880 M143.600 234.400 C 143.600 234.620,143.870 234.800,144.200 234.800 C 144.530 234.800,144.800 234.620,144.800 234.400 C 144.800 234.180,144.530 234.000,144.200 234.000 C 143.870 234.000,143.600 234.180,143.600 234.400 M251.505 235.483 C 252.002 235.579,252.722 235.575,253.105 235.475 C 253.487 235.375,253.080 235.296,252.200 235.301 C 251.320 235.305,251.007 235.387,251.505 235.483 M150.006 237.300 C 150.011 238.545,150.116 238.839,150.400 238.400 C 150.910 237.610,150.910 235.600,150.400 235.600 C 150.180 235.600,150.003 236.365,150.006 237.300 M150.509 244.400 C 150.509 245.390,150.587 245.795,150.682 245.300 C 150.778 244.805,150.778 243.995,150.682 243.500 C 150.587 243.005,150.509 243.410,150.509 244.400 M249.200 244.200 C 249.200 244.530,249.380 244.800,249.600 244.800 C 249.820 244.800,250.000 244.530,250.000 244.200 C 250.000 243.870,249.820 243.600,249.600 243.600 C 249.380 243.600,249.200 243.870,249.200 244.200 M243.600 249.600 C 243.600 249.820,243.870 250.000,244.200 250.000 C 244.530 250.000,244.800 249.820,244.800 249.600 C 244.800 249.380,244.530 249.200,244.200 249.200 C 243.870 249.200,243.600 249.380,243.600 249.600 M164.705 250.800 C 164.543 251.350,164.431 252.970,164.456 254.400 C 164.497 256.812,164.520 256.877,164.778 255.292 C 164.931 254.353,165.268 253.372,165.528 253.112 C 165.788 252.852,165.997 252.361,165.994 252.020 C 165.989 251.494,165.933 251.487,165.625 251.974 C 165.359 252.394,165.227 252.179,165.131 251.174 C 165.008 249.889,164.981 249.865,164.705 250.800 M164.901 259.400 C 164.905 260.280,164.987 260.593,165.083 260.095 C 165.179 259.598,165.175 258.878,165.075 258.495 C 164.975 258.113,164.896 258.520,164.901 259.400 M170.400 264.000 C 170.400 264.220,170.670 264.400,171.000 264.400 C 171.330 264.400,171.600 264.220,171.600 264.000 C 171.600 263.780,171.330 263.600,171.000 263.600 C 170.670 263.600,170.400 263.780,170.400 264.000 M221.301 266.600 C 221.305 267.480,221.387 267.793,221.483 267.295 C 221.579 266.798,221.575 266.078,221.475 265.695 C 221.375 265.313,221.296 265.720,221.301 266.600 M179.075 268.556 C 178.654 271.553,178.786 274.047,179.226 271.412 C 179.409 270.319,179.778 269.014,180.047 268.513 C 180.315 268.011,180.414 267.481,180.267 267.334 C 180.120 267.187,179.982 267.412,179.960 267.833 C 179.930 268.414,179.851 268.357,179.635 267.600 C 179.393 266.752,179.308 266.897,179.075 268.556 M179.884 273.200 C 179.999 273.640,180.141 274.000,180.200 274.000 C 180.259 274.000,180.401 273.640,180.516 273.200 C 180.647 272.700,180.528 272.400,180.200 272.400 C 179.872 272.400,179.753 272.700,179.884 273.200 M179.260 274.526 C 179.186 275.920,179.889 277.316,180.481 276.950 C 180.779 276.766,180.719 276.530,180.295 276.220 C 179.951 275.968,179.590 275.231,179.494 274.581 L 179.320 273.400 179.260 274.526 M199.700 274.676 C 200.085 274.776,200.715 274.776,201.100 274.676 C 201.485 274.575,201.170 274.493,200.400 274.493 C 199.630 274.493,199.315 274.575,199.700 274.676 " stroke="none" fill="#a09c9c" fill-rule="evenodd"></path><path id="path3" d="M115.424 136.187 C 115.851 136.510,116.470 136.778,116.800 136.781 C 117.333 136.787,117.333 136.745,116.800 136.400 C 116.358 136.114,116.627 136.011,117.820 136.006 C 118.711 136.003,119.648 136.208,119.903 136.463 C 120.254 136.814,120.523 136.796,121.014 136.389 C 121.556 135.938,121.716 135.941,122.002 136.403 C 122.277 136.848,122.545 136.862,123.390 136.477 C 124.685 135.887,128.502 135.817,127.600 136.400 C 127.115 136.714,127.172 136.789,127.900 136.794 C 128.395 136.797,128.800 136.633,128.800 136.429 C 128.800 136.225,129.115 135.976,129.500 135.876 C 129.885 135.775,126.701 135.672,122.424 135.646 C 115.506 135.605,114.733 135.665,115.424 136.187 M270.946 136.202 C 272.276 136.896,273.823 137.061,272.800 136.400 C 271.942 135.846,275.814 135.872,276.852 136.428 C 277.425 136.734,277.803 136.730,278.187 136.411 C 278.582 136.083,278.764 136.091,278.880 136.441 C 279.000 136.800,279.245 136.804,279.893 136.457 C 280.954 135.890,283.343 135.846,283.000 136.400 C 282.864 136.620,283.033 136.800,283.376 136.800 C 283.719 136.800,284.000 136.633,284.000 136.429 C 284.000 136.225,284.315 135.976,284.700 135.876 C 285.085 135.775,281.890 135.673,277.600 135.649 C 270.452 135.609,269.896 135.655,270.946 136.202 M107.000 136.589 C 106.120 136.878,104.098 137.330,102.507 137.593 C 97.855 138.361,95.624 140.430,94.821 144.725 C 94.587 145.976,94.202 147.810,93.966 148.800 C 93.230 151.891,93.288 152.514,94.317 152.596 C 94.821 152.636,95.344 152.491,95.479 152.273 C 95.613 152.055,95.528 151.997,95.289 152.145 C 95.051 152.292,94.730 152.211,94.578 151.964 C 94.381 151.646,94.200 151.673,93.956 152.057 C 93.702 152.459,93.611 152.379,93.606 151.749 C 93.603 151.281,93.870 150.674,94.200 150.400 C 94.530 150.126,94.800 149.294,94.800 148.551 C 94.800 147.808,94.980 147.200,95.200 147.200 C 95.420 147.200,95.600 146.390,95.600 145.400 C 95.600 144.410,95.780 143.600,96.000 143.600 C 96.220 143.600,96.400 143.317,96.400 142.971 C 96.400 142.253,97.334 141.200,97.971 141.200 C 98.207 141.200,98.400 141.007,98.400 140.771 C 98.400 140.134,99.453 139.200,100.171 139.200 C 100.517 139.200,100.800 139.020,100.800 138.800 C 100.800 138.580,101.610 138.400,102.600 138.400 C 103.590 138.400,104.400 138.220,104.400 138.000 C 104.400 137.780,104.985 137.594,105.700 137.587 C 106.415 137.580,107.356 137.305,107.792 136.976 C 108.282 136.606,109.046 136.457,109.792 136.587 C 110.748 136.754,110.833 136.721,110.200 136.427 C 109.165 135.947,108.914 135.960,107.000 136.589 M111.863 136.300 C 111.762 136.465,112.292 136.614,113.040 136.630 C 113.788 136.647,114.400 136.512,114.400 136.330 C 114.400 135.918,112.114 135.891,111.863 136.300 M130.644 136.329 C 130.532 136.510,131.314 136.645,132.382 136.629 C 133.449 136.613,134.240 136.465,134.138 136.300 C 133.887 135.893,130.898 135.917,130.644 136.329 M137.000 136.373 C 136.120 136.545,135.670 136.715,136.000 136.749 C 136.533 136.805,136.533 136.855,136.000 137.200 C 135.481 137.535,135.490 137.589,136.067 137.594 C 136.433 137.597,136.808 137.375,136.900 137.100 C 137.142 136.374,145.921 136.425,146.372 137.155 C 146.550 137.443,147.034 137.599,147.448 137.502 C 150.399 136.810,140.328 135.722,137.000 136.373 M254.600 136.427 C 252.173 136.830,249.157 140.000,251.200 140.000 C 251.420 140.000,251.600 139.673,251.600 139.274 C 251.600 137.557,254.579 136.597,259.800 136.631 C 263.191 136.653,264.072 136.574,262.800 136.361 C 260.500 135.976,257.151 136.002,254.600 136.427 M266.100 136.265 C 265.825 136.376,265.600 136.654,265.600 136.882 C 265.600 137.135,265.834 137.104,266.196 136.804 C 266.579 136.485,267.306 136.406,268.235 136.580 C 269.213 136.764,269.594 136.714,269.416 136.426 C 269.150 135.996,267.023 135.893,266.100 136.265 M285.467 136.267 C 284.926 136.807,285.220 137.281,285.798 136.802 C 286.126 136.529,286.841 136.391,287.386 136.495 C 287.930 136.599,288.281 136.530,288.164 136.342 C 287.915 135.939,285.852 135.881,285.467 136.267 M290.000 136.328 C 289.670 136.478,289.342 136.865,289.270 137.189 C 289.170 137.645,289.317 137.618,289.923 137.069 C 290.717 136.351,292.800 136.477,292.800 137.243 C 292.800 137.440,293.610 137.600,294.600 137.600 C 295.590 137.600,296.400 137.780,296.400 138.000 C 296.400 138.220,297.210 138.400,298.200 138.400 C 299.190 138.400,300.000 138.580,300.000 138.800 C 300.000 139.020,300.360 139.200,300.800 139.200 C 301.240 139.200,301.600 139.380,301.600 139.600 C 301.600 139.820,301.870 140.000,302.200 140.000 C 302.530 140.000,302.800 140.193,302.800 140.429 C 302.800 140.967,303.969 142.164,304.235 141.898 C 305.340 140.793,300.919 138.164,296.728 137.434 C 294.890 137.113,292.882 136.659,292.266 136.425 C 291.015 135.949,290.851 135.942,290.000 136.328 M142.000 137.400 C 142.000 137.728,142.300 137.847,142.800 137.716 C 143.240 137.601,143.600 137.459,143.600 137.400 C 143.600 137.341,143.240 137.199,142.800 137.084 C 142.300 136.953,142.000 137.072,142.000 137.400 M257.478 137.056 C 257.151 137.382,257.524 138.000,258.047 138.000 C 258.267 138.000,258.345 137.835,258.221 137.634 C 258.097 137.433,258.221 137.177,258.498 137.066 C 258.828 136.932,258.784 136.852,258.367 136.832 C 258.018 136.814,257.618 136.915,257.478 137.056 M136.000 140.800 C 136.533 141.145,136.533 141.189,136.000 141.200 C 135.480 141.211,135.478 141.261,135.981 141.580 C 136.300 141.782,136.714 141.853,136.900 141.738 C 137.320 141.479,136.468 140.398,135.851 140.406 C 135.603 140.409,135.670 140.587,136.000 140.800 M250.524 143.000 C 250.526 144.320,250.601 144.812,250.690 144.093 C 250.779 143.374,250.777 142.294,250.686 141.693 C 250.595 141.092,250.522 141.680,250.524 143.000 M148.215 142.775 C 148.088 142.982,147.622 143.081,147.181 142.996 C 146.740 142.911,146.484 143.012,146.613 143.221 C 146.963 143.787,147.837 143.679,148.400 143.000 C 148.674 142.670,148.797 142.400,148.673 142.400 C 148.549 142.400,148.343 142.569,148.215 142.775 M149.200 143.800 C 149.200 144.350,149.380 144.800,149.600 144.800 C 149.820 144.800,150.000 144.350,150.000 143.800 C 150.000 143.250,149.820 142.800,149.600 142.800 C 149.380 142.800,149.200 143.250,149.200 143.800 M101.994 145.006 C 101.251 145.773,100.778 146.400,100.943 146.400 C 101.419 146.400,103.794 144.061,103.558 143.825 C 103.441 143.708,102.737 144.239,101.994 145.006 M146.898 150.231 C 147.279 150.612,149.195 150.716,148.965 150.344 C 148.848 150.155,148.283 150.000,147.710 150.000 C 147.136 150.000,146.771 150.104,146.898 150.231 M156.100 150.687 C 156.705 150.778,157.695 150.778,158.300 150.687 C 158.905 150.595,158.410 150.520,157.200 150.520 C 155.990 150.520,155.495 150.595,156.100 150.687 M241.507 150.690 C 242.226 150.779,243.306 150.777,243.907 150.686 C 244.508 150.595,243.920 150.522,242.600 150.524 C 241.280 150.526,240.788 150.601,241.507 150.690 M237.610 151.928 C 236.359 153.180,235.891 156.220,236.097 161.757 L 236.200 164.515 233.000 164.495 L 229.800 164.476 232.147 164.790 C 233.438 164.963,234.640 165.341,234.819 165.631 C 235.819 167.248,236.840 164.312,236.594 160.525 C 236.281 155.708,237.410 151.657,239.076 151.613 C 239.820 151.593,240.129 150.800,239.393 150.800 C 239.033 150.800,238.231 151.308,237.610 151.928 M147.256 151.966 C 147.775 152.387,148.290 152.642,148.399 152.533 C 148.634 152.300,147.215 151.200,146.679 151.200 C 146.477 151.200,146.736 151.545,147.256 151.966 M243.400 151.600 C 244.493 152.069,244.800 152.069,244.800 151.600 C 244.800 151.380,244.305 151.213,243.700 151.228 C 242.725 151.253,242.691 151.295,243.400 151.600 M238.598 153.202 C 237.558 154.351,238.020 154.480,239.114 153.346 C 239.617 152.826,239.870 152.400,239.676 152.400 C 239.482 152.400,238.997 152.761,238.598 153.202 M93.043 155.033 C 92.738 155.827,92.720 160.213,93.023 159.910 C 93.146 159.787,93.326 158.643,93.423 157.367 C 93.520 156.091,93.824 154.905,94.100 154.730 C 94.464 154.499,94.421 154.411,93.943 154.406 C 93.581 154.403,93.176 154.685,93.043 155.033 M163.600 158.000 C 163.600 158.440,163.780 158.800,164.000 158.800 C 164.220 158.800,164.400 158.440,164.400 158.000 C 164.400 157.560,164.220 157.200,164.000 157.200 C 163.780 157.200,163.600 157.560,163.600 158.000 M236.846 158.100 C 236.882 158.785,236.937 158.832,237.077 158.295 C 237.178 157.907,237.427 157.693,237.630 157.819 C 237.834 157.944,238.000 157.857,238.000 157.624 C 238.000 157.391,237.730 157.200,237.400 157.200 C 237.031 157.200,236.818 157.546,236.846 158.100 M164.400 165.200 C 164.400 166.111,164.815 166.225,165.530 165.510 C 165.799 165.241,166.960 164.906,168.110 164.766 C 170.166 164.517,170.152 164.512,167.300 164.456 C 164.648 164.405,164.400 164.468,164.400 165.200 M171.900 165.082 C 172.395 165.178,173.205 165.178,173.700 165.082 C 174.195 164.987,173.790 164.909,172.800 164.909 C 171.810 164.909,171.405 164.987,171.900 165.082 M224.472 165.255 C 222.917 165.703,221.975 167.501,222.044 169.887 L 222.088 171.400 222.420 169.719 C 223.047 166.542,223.865 165.762,227.149 165.207 L 229.000 164.894 227.400 164.883 C 226.520 164.877,225.202 165.044,224.472 165.255 M175.200 165.600 C 175.200 165.820,175.560 166.000,176.000 166.000 C 176.440 166.000,176.800 166.210,176.800 166.467 C 176.800 166.723,176.935 166.799,177.099 166.634 C 177.264 166.469,177.050 166.079,176.623 165.767 C 175.712 165.101,175.200 165.041,175.200 165.600 M93.293 167.200 C 93.293 167.970,93.375 168.285,93.476 167.900 C 93.576 167.515,93.576 166.885,93.476 166.500 C 93.375 166.115,93.293 166.430,93.293 167.200 M92.828 174.433 C 92.844 176.505,93.016 178.560,93.211 179.000 C 93.432 179.498,93.495 178.148,93.379 175.430 C 93.148 170.003,92.790 169.357,92.828 174.433 M221.661 174.600 C 221.634 176.360,221.787 178.070,222.000 178.400 C 222.234 178.762,222.390 178.810,222.394 178.523 C 222.397 178.260,222.764 178.116,223.211 178.202 C 223.657 178.288,223.916 178.188,223.787 177.979 C 223.658 177.771,223.306 177.600,223.005 177.600 C 222.634 177.600,222.377 176.858,222.207 175.300 C 221.780 171.385,221.711 171.296,221.661 174.600 M179.800 179.173 C 178.615 179.405,178.459 179.508,179.200 179.571 C 180.126 179.650,180.141 179.682,179.400 180.000 C 178.625 180.333,178.627 180.345,179.467 180.372 C 179.943 180.387,180.408 180.175,180.500 179.900 C 180.725 179.228,188.614 179.254,189.289 179.929 C 189.548 180.188,190.129 180.385,190.580 180.367 C 191.201 180.343,191.078 180.194,190.072 179.755 C 188.527 179.080,182.127 178.717,179.800 179.173 M215.200 179.217 C 216.410 179.384,218.120 179.518,219.000 179.514 L 220.600 179.508 219.000 179.177 C 218.120 178.995,216.410 178.861,215.200 178.879 L 213.000 178.913 215.200 179.217 M209.726 179.603 C 208.542 180.080,207.480 182.000,208.400 182.000 C 208.620 182.000,208.800 181.669,208.800 181.264 C 208.800 180.572,209.059 180.444,212.600 179.383 C 212.820 179.317,212.460 179.260,211.800 179.257 C 211.140 179.254,210.207 179.409,209.726 179.603 M207.709 184.000 C 207.709 184.990,207.787 185.395,207.882 184.900 C 207.978 184.405,207.978 183.595,207.882 183.100 C 207.787 182.605,207.709 183.010,207.709 184.000 M93.314 186.600 C 93.317 187.700,93.395 188.103,93.487 187.495 C 93.579 186.886,93.577 185.986,93.482 185.495 C 93.387 185.003,93.311 185.500,93.314 186.600 M207.246 190.300 C 207.220 191.731,207.371 192.800,207.600 192.800 C 207.820 192.800,208.003 192.575,208.006 192.300 C 208.010 191.967,208.142 192.000,208.400 192.400 C 208.742 192.929,208.788 192.926,208.794 192.380 C 208.797 192.039,208.593 191.553,208.340 191.300 C 208.088 191.048,207.748 190.157,207.586 189.320 C 207.322 187.957,207.287 188.059,207.246 190.300 M94.081 190.782 C 94.633 191.666,95.022 191.555,94.662 190.617 C 94.532 190.278,94.238 190.000,94.009 190.000 C 93.746 190.000,93.772 190.287,94.081 190.782 M107.241 195.500 C 107.275 197.759,107.334 197.979,107.601 196.848 C 107.777 196.105,108.163 195.343,108.460 195.154 C 108.859 194.901,108.870 194.811,108.500 194.806 C 108.225 194.803,108.000 194.350,108.000 193.800 C 108.000 193.250,107.820 192.800,107.600 192.800 C 107.369 192.800,107.217 193.939,107.241 195.500 M197.919 193.498 C 199.744 193.572,202.624 193.572,204.319 193.497 C 206.014 193.422,204.520 193.361,201.000 193.362 C 197.480 193.362,196.094 193.424,197.919 193.498 M107.709 202.000 C 107.709 202.990,107.787 203.395,107.882 202.900 C 107.978 202.405,107.978 201.595,107.882 201.100 C 107.787 200.605,107.709 201.010,107.709 202.000 M113.200 206.800 C 113.200 207.020,113.470 207.200,113.800 207.200 C 114.130 207.200,114.400 207.020,114.400 206.800 C 114.400 206.580,114.130 206.400,113.800 206.400 C 113.470 206.400,113.200 206.580,113.200 206.800 M121.899 209.400 C 121.739 210.280,121.629 211.990,121.654 213.200 L 121.700 215.400 122.011 213.259 C 122.183 212.081,122.520 210.920,122.761 210.679 C 123.003 210.437,123.197 209.961,123.194 209.620 C 123.189 209.097,123.131 209.089,122.827 209.570 C 122.557 209.996,122.432 209.845,122.328 208.970 C 122.200 207.888,122.168 207.920,121.899 209.400 M122.101 217.000 C 122.105 217.880,122.187 218.193,122.283 217.695 C 122.379 217.198,122.375 216.478,122.275 216.095 C 122.175 215.713,122.096 216.120,122.101 217.000 M264.101 223.800 C 264.105 224.680,264.187 224.993,264.283 224.495 C 264.379 223.998,264.375 223.278,264.275 222.895 C 264.175 222.513,264.096 222.920,264.101 223.800 M136.257 226.718 C 135.798 230.563,136.612 234.811,137.681 234.150 C 137.972 233.970,137.875 233.698,137.396 233.348 C 136.494 232.688,136.237 226.389,137.100 226.101 C 137.375 226.009,137.587 225.543,137.572 225.067 C 137.545 224.231,137.532 224.229,137.226 225.000 L 136.908 225.800 136.732 225.000 C 136.636 224.560,136.422 225.333,136.257 226.718 M140.600 225.600 C 140.736 225.820,141.117 226.000,141.447 226.000 C 141.777 226.000,141.936 225.820,141.800 225.600 C 141.664 225.380,141.283 225.200,140.953 225.200 C 140.623 225.200,140.464 225.380,140.600 225.600 M142.800 227.957 C 142.800 228.154,143.081 228.422,143.425 228.554 C 143.769 228.686,143.946 228.963,143.819 229.170 C 143.691 229.376,143.757 229.650,143.966 229.779 C 144.766 230.274,144.844 229.100,144.059 228.369 C 143.154 227.526,142.800 227.410,142.800 227.957 M137.084 230.400 C 137.199 230.840,137.341 231.200,137.400 231.200 C 137.459 231.200,137.601 230.840,137.716 230.400 C 137.847 229.900,137.728 229.600,137.400 229.600 C 137.072 229.600,136.953 229.900,137.084 230.400 M138.200 230.800 C 138.336 231.020,138.717 231.200,139.047 231.200 C 139.377 231.200,139.536 231.020,139.400 230.800 C 139.264 230.580,138.883 230.400,138.553 230.400 C 138.223 230.400,138.064 230.580,138.200 230.800 M141.569 232.100 C 141.290 233.012,141.387 233.586,141.849 233.763 C 142.293 233.934,142.331 233.819,142.023 233.244 C 141.806 232.837,141.742 232.392,141.881 232.253 C 142.020 232.114,142.013 232.000,141.867 232.000 C 141.720 232.000,141.586 232.045,141.569 232.100 M143.600 232.880 C 142.902 233.476,142.821 233.652,143.333 233.466 C 143.736 233.320,144.201 233.200,144.366 233.200 C 144.531 233.200,144.667 232.930,144.667 232.600 C 144.667 232.270,144.652 232.006,144.633 232.013 C 144.615 232.021,144.150 232.411,143.600 232.880 M143.600 234.400 C 143.600 234.620,143.870 234.800,144.200 234.800 C 144.530 234.800,144.800 234.620,144.800 234.400 C 144.800 234.180,144.530 234.000,144.200 234.000 C 143.870 234.000,143.600 234.180,143.600 234.400 M251.505 235.483 C 252.002 235.579,252.722 235.575,253.105 235.475 C 253.487 235.375,253.080 235.296,252.200 235.301 C 251.320 235.305,251.007 235.387,251.505 235.483 M150.006 237.300 C 150.011 238.545,150.116 238.839,150.400 238.400 C 150.910 237.610,150.910 235.600,150.400 235.600 C 150.180 235.600,150.003 236.365,150.006 237.300 M150.509 244.400 C 150.509 245.390,150.587 245.795,150.682 245.300 C 150.778 244.805,150.778 243.995,150.682 243.500 C 150.587 243.005,150.509 243.410,150.509 244.400 M249.200 244.200 C 249.200 244.530,249.380 244.800,249.600 244.800 C 249.820 244.800,250.000 244.530,250.000 244.200 C 250.000 243.870,249.820 243.600,249.600 243.600 C 249.380 243.600,249.200 243.870,249.200 244.200 M243.600 249.600 C 243.600 249.820,243.870 250.000,244.200 250.000 C 244.530 250.000,244.800 249.820,244.800 249.600 C 244.800 249.380,244.530 249.200,244.200 249.200 C 243.870 249.200,243.600 249.380,243.600 249.600 M164.705 250.800 C 164.543 251.350,164.431 252.970,164.456 254.400 C 164.497 256.812,164.520 256.877,164.778 255.292 C 164.931 254.353,165.268 253.372,165.528 253.112 C 165.788 252.852,165.997 252.361,165.994 252.020 C 165.989 251.494,165.933 251.487,165.625 251.974 C 165.359 252.394,165.227 252.179,165.131 251.174 C 165.008 249.889,164.981 249.865,164.705 250.800 M164.901 259.400 C 164.905 260.280,164.987 260.593,165.083 260.095 C 165.179 259.598,165.175 258.878,165.075 258.495 C 164.975 258.113,164.896 258.520,164.901 259.400 M170.400 264.000 C 170.400 264.220,170.670 264.400,171.000 264.400 C 171.330 264.400,171.600 264.220,171.600 264.000 C 171.600 263.780,171.330 263.600,171.000 263.600 C 170.670 263.600,170.400 263.780,170.400 264.000 M221.301 266.600 C 221.305 267.480,221.387 267.793,221.483 267.295 C 221.579 266.798,221.575 266.078,221.475 265.695 C 221.375 265.313,221.296 265.720,221.301 266.600 M179.075 268.556 C 178.654 271.553,178.786 274.047,179.226 271.412 C 179.409 270.319,179.778 269.014,180.047 268.513 C 180.315 268.011,180.414 267.481,180.267 267.334 C 180.120 267.187,179.982 267.412,179.960 267.833 C 179.930 268.414,179.851 268.357,179.635 267.600 C 179.393 266.752,179.308 266.897,179.075 268.556 M179.884 273.200 C 179.999 273.640,180.141 274.000,180.200 274.000 C 180.259 274.000,180.401 273.640,180.516 273.200 C 180.647 272.700,180.528 272.400,180.200 272.400 C 179.872 272.400,179.753 272.700,179.884 273.200 M179.260 274.526 C 179.186 275.920,179.889 277.316,180.481 276.950 C 180.779 276.766,180.719 276.530,180.295 276.220 C 179.951 275.968,179.590 275.231,179.494 274.581 L 179.320 273.400 179.260 274.526 M199.700 274.676 C 200.085 274.776,200.715 274.776,201.100 274.676 C 201.485 274.575,201.170 274.493,200.400 274.493 C 199.630 274.493,199.315 274.575,199.700 274.676 " stroke="none" fill="#a09c9c" fill-rule="evenodd"></path><path id="path4" d="M115.424 136.187 C 115.851 136.510,116.470 136.778,116.800 136.781 C 117.333 136.787,117.333 136.745,116.800 136.400 C 116.358 136.114,116.627 136.011,117.820 136.006 C 118.711 136.003,119.648 136.208,119.903 136.463 C 120.254 136.814,120.523 136.796,121.014 136.389 C 121.556 135.938,121.716 135.941,122.002 136.403 C 122.277 136.848,122.545 136.862,123.390 136.477 C 124.685 135.887,128.502 135.817,127.600 136.400 C 127.115 136.714,127.172 136.789,127.900 136.794 C 128.395 136.797,128.800 136.633,128.800 136.429 C 128.800 136.225,129.115 135.976,129.500 135.876 C 129.885 135.775,126.701 135.672,122.424 135.646 C 115.506 135.605,114.733 135.665,115.424 136.187 M270.946 136.202 C 272.276 136.896,273.823 137.061,272.800 136.400 C 271.942 135.846,275.814 135.872,276.852 136.428 C 277.425 136.734,277.803 136.730,278.187 136.411 C 278.582 136.083,278.764 136.091,278.880 136.441 C 279.000 136.800,279.245 136.804,279.893 136.457 C 280.954 135.890,283.343 135.846,283.000 136.400 C 282.864 136.620,283.033 136.800,283.376 136.800 C 283.719 136.800,284.000 136.633,284.000 136.429 C 284.000 136.225,284.315 135.976,284.700 135.876 C 285.085 135.775,281.890 135.673,277.600 135.649 C 270.452 135.609,269.896 135.655,270.946 136.202 M107.000 136.589 C 106.120 136.878,104.098 137.330,102.507 137.593 C 97.855 138.361,95.624 140.430,94.821 144.725 C 94.587 145.976,94.202 147.810,93.966 148.800 C 93.230 151.891,93.288 152.514,94.317 152.596 C 94.821 152.636,95.344 152.491,95.479 152.273 C 95.613 152.055,95.528 151.997,95.289 152.145 C 95.051 152.292,94.730 152.211,94.578 151.964 C 94.381 151.646,94.200 151.673,93.956 152.057 C 93.702 152.459,93.611 152.379,93.606 151.749 C 93.603 151.281,93.870 150.674,94.200 150.400 C 94.530 150.126,94.800 149.294,94.800 148.551 C 94.800 147.808,94.980 147.200,95.200 147.200 C 95.420 147.200,95.600 146.390,95.600 145.400 C 95.600 144.410,95.780 143.600,96.000 143.600 C 96.220 143.600,96.400 143.317,96.400 142.971 C 96.400 142.253,97.334 141.200,97.971 141.200 C 98.207 141.200,98.400 141.007,98.400 140.771 C 98.400 140.134,99.453 139.200,100.171 139.200 C 100.517 139.200,100.800 139.020,100.800 138.800 C 100.800 138.580,101.610 138.400,102.600 138.400 C 103.590 138.400,104.400 138.220,104.400 138.000 C 104.400 137.780,104.985 137.594,105.700 137.587 C 106.415 137.580,107.356 137.305,107.792 136.976 C 108.282 136.606,109.046 136.457,109.792 136.587 C 110.748 136.754,110.833 136.721,110.200 136.427 C 109.165 135.947,108.914 135.960,107.000 136.589 M111.863 136.300 C 111.762 136.465,112.292 136.614,113.040 136.630 C 113.788 136.647,114.400 136.512,114.400 136.330 C 114.400 135.918,112.114 135.891,111.863 136.300 M130.644 136.329 C 130.532 136.510,131.314 136.645,132.382 136.629 C 133.449 136.613,134.240 136.465,134.138 136.300 C 133.887 135.893,130.898 135.917,130.644 136.329 M137.000 136.373 C 136.120 136.545,135.670 136.715,136.000 136.749 C 136.533 136.805,136.533 136.855,136.000 137.200 C 135.481 137.535,135.490 137.589,136.067 137.594 C 136.433 137.597,136.808 137.375,136.900 137.100 C 137.142 136.374,145.921 136.425,146.372 137.155 C 146.550 137.443,147.034 137.599,147.448 137.502 C 150.399 136.810,140.328 135.722,137.000 136.373 M254.600 136.427 C 252.173 136.830,249.157 140.000,251.200 140.000 C 251.420 140.000,251.600 139.673,251.600 139.274 C 251.600 137.557,254.579 136.597,259.800 136.631 C 263.191 136.653,264.072 136.574,262.800 136.361 C 260.500 135.976,257.151 136.002,254.600 136.427 M266.100 136.265 C 265.825 136.376,265.600 136.654,265.600 136.882 C 265.600 137.135,265.834 137.104,266.196 136.804 C 266.579 136.485,267.306 136.406,268.235 136.580 C 269.213 136.764,269.594 136.714,269.416 136.426 C 269.150 135.996,267.023 135.893,266.100 136.265 M285.467 136.267 C 284.926 136.807,285.220 137.281,285.798 136.802 C 286.126 136.529,286.841 136.391,287.386 136.495 C 287.930 136.599,288.281 136.530,288.164 136.342 C 287.915 135.939,285.852 135.881,285.467 136.267 M290.000 136.328 C 289.670 136.478,289.342 136.865,289.270 137.189 C 289.170 137.645,289.317 137.618,289.923 137.069 C 290.717 136.351,292.800 136.477,292.800 137.243 C 292.800 137.440,293.610 137.600,294.600 137.600 C 295.590 137.600,296.400 137.780,296.400 138.000 C 296.400 138.220,297.210 138.400,298.200 138.400 C 299.190 138.400,300.000 138.580,300.000 138.800 C 300.000 139.020,300.360 139.200,300.800 139.200 C 301.240 139.200,301.600 139.380,301.600 139.600 C 301.600 139.820,301.870 140.000,302.200 140.000 C 302.530 140.000,302.800 140.193,302.800 140.429 C 302.800 140.967,303.969 142.164,304.235 141.898 C 305.340 140.793,300.919 138.164,296.728 137.434 C 294.890 137.113,292.882 136.659,292.266 136.425 C 291.015 135.949,290.851 135.942,290.000 136.328 M142.000 137.400 C 142.000 137.728,142.300 137.847,142.800 137.716 C 143.240 137.601,143.600 137.459,143.600 137.400 C 143.600 137.341,143.240 137.199,142.800 137.084 C 142.300 136.953,142.000 137.072,142.000 137.400 M257.478 137.056 C 257.151 137.382,257.524 138.000,258.047 138.000 C 258.267 138.000,258.345 137.835,258.221 137.634 C 258.097 137.433,258.221 137.177,258.498 137.066 C 258.828 136.932,258.784 136.852,258.367 136.832 C 258.018 136.814,257.618 136.915,257.478 137.056 M136.000 140.800 C 136.533 141.145,136.533 141.189,136.000 141.200 C 135.480 141.211,135.478 141.261,135.981 141.580 C 136.300 141.782,136.714 141.853,136.900 141.738 C 137.320 141.479,136.468 140.398,135.851 140.406 C 135.603 140.409,135.670 140.587,136.000 140.800 M250.524 143.000 C 250.526 144.320,250.601 144.812,250.690 144.093 C 250.779 143.374,250.777 142.294,250.686 141.693 C 250.595 141.092,250.522 141.680,250.524 143.000 M148.215 142.775 C 148.088 142.982,147.622 143.081,147.181 142.996 C 146.740 142.911,146.484 143.012,146.613 143.221 C 146.963 143.787,147.837 143.679,148.400 143.000 C 148.674 142.670,148.797 142.400,148.673 142.400 C 148.549 142.400,148.343 142.569,148.215 142.775 M149.200 143.800 C 149.200 144.350,149.380 144.800,149.600 144.800 C 149.820 144.800,150.000 144.350,150.000 143.800 C 150.000 143.250,149.820 142.800,149.600 142.800 C 149.380 142.800,149.200 143.250,149.200 143.800 M101.994 145.006 C 101.251 145.773,100.778 146.400,100.943 146.400 C 101.419 146.400,103.794 144.061,103.558 143.825 C 103.441 143.708,102.737 144.239,101.994 145.006 M146.898 150.231 C 147.279 150.612,149.195 150.716,148.965 150.344 C 148.848 150.155,148.283 150.000,147.710 150.000 C 147.136 150.000,146.771 150.104,146.898 150.231 M156.100 150.687 C 156.705 150.778,157.695 150.778,158.300 150.687 C 158.905 150.595,158.410 150.520,157.200 150.520 C 155.990 150.520,155.495 150.595,156.100 150.687 M241.507 150.690 C 242.226 150.779,243.306 150.777,243.907 150.686 C 244.508 150.595,243.920 150.522,242.600 150.524 C 241.280 150.526,240.788 150.601,241.507 150.690 M237.610 151.928 C 236.359 153.180,235.891 156.220,236.097 161.757 L 236.200 164.515 233.000 164.495 L 229.800 164.476 232.147 164.790 C 233.438 164.963,234.640 165.341,234.819 165.631 C 235.819 167.248,236.840 164.312,236.594 160.525 C 236.281 155.708,237.410 151.657,239.076 151.613 C 239.820 151.593,240.129 150.800,239.393 150.800 C 239.033 150.800,238.231 151.308,237.610 151.928 M147.256 151.966 C 147.775 152.387,148.290 152.642,148.399 152.533 C 148.634 152.300,147.215 151.200,146.679 151.200 C 146.477 151.200,146.736 151.545,147.256 151.966 M243.400 151.600 C 244.493 152.069,244.800 152.069,244.800 151.600 C 244.800 151.380,244.305 151.213,243.700 151.228 C 242.725 151.253,242.691 151.295,243.400 151.600 M238.598 153.202 C 237.558 154.351,238.020 154.480,239.114 153.346 C 239.617 152.826,239.870 152.400,239.676 152.400 C 239.482 152.400,238.997 152.761,238.598 153.202 M93.043 155.033 C 92.738 155.827,92.720 160.213,93.023 159.910 C 93.146 159.787,93.326 158.643,93.423 157.367 C 93.520 156.091,93.824 154.905,94.100 154.730 C 94.464 154.499,94.421 154.411,93.943 154.406 C 93.581 154.403,93.176 154.685,93.043 155.033 M163.600 158.000 C 163.600 158.440,163.780 158.800,164.000 158.800 C 164.220 158.800,164.400 158.440,164.400 158.000 C 164.400 157.560,164.220 157.200,164.000 157.200 C 163.780 157.200,163.600 157.560,163.600 158.000 M236.846 158.100 C 236.882 158.785,236.937 158.832,237.077 158.295 C 237.178 157.907,237.427 157.693,237.630 157.819 C 237.834 157.944,238.000 157.857,238.000 157.624 C 238.000 157.391,237.730 157.200,237.400 157.200 C 237.031 157.200,236.818 157.546,236.846 158.100 M164.400 165.200 C 164.400 166.111,164.815 166.225,165.530 165.510 C 165.799 165.241,166.960 164.906,168.110 164.766 C 170.166 164.517,170.152 164.512,167.300 164.456 C 164.648 164.405,164.400 164.468,164.400 165.200 M171.900 165.082 C 172.395 165.178,173.205 165.178,173.700 165.082 C 174.195 164.987,173.790 164.909,172.800 164.909 C 171.810 164.909,171.405 164.987,171.900 165.082 M224.472 165.255 C 222.917 165.703,221.975 167.501,222.044 169.887 L 222.088 171.400 222.420 169.719 C 223.047 166.542,223.865 165.762,227.149 165.207 L 229.000 164.894 227.400 164.883 C 226.520 164.877,225.202 165.044,224.472 165.255 M175.200 165.600 C 175.200 165.820,175.560 166.000,176.000 166.000 C 176.440 166.000,176.800 166.210,176.800 166.467 C 176.800 166.723,176.935 166.799,177.099 166.634 C 177.264 166.469,177.050 166.079,176.623 165.767 C 175.712 165.101,175.200 165.041,175.200 165.600 M93.293 167.200 C 93.293 167.970,93.375 168.285,93.476 167.900 C 93.576 167.515,93.576 166.885,93.476 166.500 C 93.375 166.115,93.293 166.430,93.293 167.200 M92.828 174.433 C 92.844 176.505,93.016 178.560,93.211 179.000 C 93.432 179.498,93.495 178.148,93.379 175.430 C 93.148 170.003,92.790 169.357,92.828 174.433 M221.661 174.600 C 221.634 176.360,221.787 178.070,222.000 178.400 C 222.234 178.762,222.390 178.810,222.394 178.523 C 222.397 178.260,222.764 178.116,223.211 178.202 C 223.657 178.288,223.916 178.188,223.787 177.979 C 223.658 177.771,223.306 177.600,223.005 177.600 C 222.634 177.600,222.377 176.858,222.207 175.300 C 221.780 171.385,221.711 171.296,221.661 174.600 M179.800 179.173 C 178.615 179.405,178.459 179.508,179.200 179.571 C 180.126 179.650,180.141 179.682,179.400 180.000 C 178.625 180.333,178.627 180.345,179.467 180.372 C 179.943 180.387,180.408 180.175,180.500 179.900 C 180.725 179.228,188.614 179.254,189.289 179.929 C 189.548 180.188,190.129 180.385,190.580 180.367 C 191.201 180.343,191.078 180.194,190.072 179.755 C 188.527 179.080,182.127 178.717,179.800 179.173 M215.200 179.217 C 216.410 179.384,218.120 179.518,219.000 179.514 L 220.600 179.508 219.000 179.177 C 218.120 178.995,216.410 178.861,215.200 178.879 L 213.000 178.913 215.200 179.217 M209.726 179.603 C 208.542 180.080,207.480 182.000,208.400 182.000 C 208.620 182.000,208.800 181.669,208.800 181.264 C 208.800 180.572,209.059 180.444,212.600 179.383 C 212.820 179.317,212.460 179.260,211.800 179.257 C 211.140 179.254,210.207 179.409,209.726 179.603 M207.709 184.000 C 207.709 184.990,207.787 185.395,207.882 184.900 C 207.978 184.405,207.978 183.595,207.882 183.100 C 207.787 182.605,207.709 183.010,207.709 184.000 M93.314 186.600 C 93.317 187.700,93.395 188.103,93.487 187.495 C 93.579 186.886,93.577 185.986,93.482 185.495 C 93.387 185.003,93.311 185.500,93.314 186.600 M207.246 190.300 C 207.220 191.731,207.371 192.800,207.600 192.800 C 207.820 192.800,208.003 192.575,208.006 192.300 C 208.010 191.967,208.142 192.000,208.400 192.400 C 208.742 192.929,208.788 192.926,208.794 192.380 C 208.797 192.039,208.593 191.553,208.340 191.300 C 208.088 191.048,207.748 190.157,207.586 189.320 C 207.322 187.957,207.287 188.059,207.246 190.300 M94.081 190.782 C 94.633 191.666,95.022 191.555,94.662 190.617 C 94.532 190.278,94.238 190.000,94.009 190.000 C 93.746 190.000,93.772 190.287,94.081 190.782 M107.241 195.500 C 107.275 197.759,107.334 197.979,107.601 196.848 C 107.777 196.105,108.163 195.343,108.460 195.154 C 108.859 194.901,108.870 194.811,108.500 194.806 C 108.225 194.803,108.000 194.350,108.000 193.800 C 108.000 193.250,107.820 192.800,107.600 192.800 C 107.369 192.800,107.217 193.939,107.241 195.500 M197.919 193.498 C 199.744 193.572,202.624 193.572,204.319 193.497 C 206.014 193.422,204.520 193.361,201.000 193.362 C 197.480 193.362,196.094 193.424,197.919 193.498 M107.709 202.000 C 107.709 202.990,107.787 203.395,107.882 202.900 C 107.978 202.405,107.978 201.595,107.882 201.100 C 107.787 200.605,107.709 201.010,107.709 202.000 M113.200 206.800 C 113.200 207.020,113.470 207.200,113.800 207.200 C 114.130 207.200,114.400 207.020,114.400 206.800 C 114.400 206.580,114.130 206.400,113.800 206.400 C 113.470 206.400,113.200 206.580,113.200 206.800 M121.899 209.400 C 121.739 210.280,121.629 211.990,121.654 213.200 L 121.700 215.400 122.011 213.259 C 122.183 212.081,122.520 210.920,122.761 210.679 C 123.003 210.437,123.197 209.961,123.194 209.620 C 123.189 209.097,123.131 209.089,122.827 209.570 C 122.557 209.996,122.432 209.845,122.328 208.970 C 122.200 207.888,122.168 207.920,121.899 209.400 M122.101 217.000 C 122.105 217.880,122.187 218.193,122.283 217.695 C 122.379 217.198,122.375 216.478,122.275 216.095 C 122.175 215.713,122.096 216.120,122.101 217.000 M264.101 223.800 C 264.105 224.680,264.187 224.993,264.283 224.495 C 264.379 223.998,264.375 223.278,264.275 222.895 C 264.175 222.513,264.096 222.920,264.101 223.800 M136.257 226.718 C 135.798 230.563,136.612 234.811,137.681 234.150 C 137.972 233.970,137.875 233.698,137.396 233.348 C 136.494 232.688,136.237 226.389,137.100 226.101 C 137.375 226.009,137.587 225.543,137.572 225.067 C 137.545 224.231,137.532 224.229,137.226 225.000 L 136.908 225.800 136.732 225.000 C 136.636 224.560,136.422 225.333,136.257 226.718 M140.600 225.600 C 140.736 225.820,141.117 226.000,141.447 226.000 C 141.777 226.000,141.936 225.820,141.800 225.600 C 141.664 225.380,141.283 225.200,140.953 225.200 C 140.623 225.200,140.464 225.380,140.600 225.600 M142.800 227.957 C 142.800 228.154,143.081 228.422,143.425 228.554 C 143.769 228.686,143.946 228.963,143.819 229.170 C 143.691 229.376,143.757 229.650,143.966 229.779 C 144.766 230.274,144.844 229.100,144.059 228.369 C 143.154 227.526,142.800 227.410,142.800 227.957 M137.084 230.400 C 137.199 230.840,137.341 231.200,137.400 231.200 C 137.459 231.200,137.601 230.840,137.716 230.400 C 137.847 229.900,137.728 229.600,137.400 229.600 C 137.072 229.600,136.953 229.900,137.084 230.400 M138.200 230.800 C 138.336 231.020,138.717 231.200,139.047 231.200 C 139.377 231.200,139.536 231.020,139.400 230.800 C 139.264 230.580,138.883 230.400,138.553 230.400 C 138.223 230.400,138.064 230.580,138.200 230.800 M141.569 232.100 C 141.290 233.012,141.387 233.586,141.849 233.763 C 142.293 233.934,142.331 233.819,142.023 233.244 C 141.806 232.837,141.742 232.392,141.881 232.253 C 142.020 232.114,142.013 232.000,141.867 232.000 C 141.720 232.000,141.586 232.045,141.569 232.100 M143.600 232.880 C 142.902 233.476,142.821 233.652,143.333 233.466 C 143.736 233.320,144.201 233.200,144.366 233.200 C 144.531 233.200,144.667 232.930,144.667 232.600 C 144.667 232.270,144.652 232.006,144.633 232.013 C 144.615 232.021,144.150 232.411,143.600 232.880 M143.600 234.400 C 143.600 234.620,143.870 234.800,144.200 234.800 C 144.530 234.800,144.800 234.620,144.800 234.400 C 144.800 234.180,144.530 234.000,144.200 234.000 C 143.870 234.000,143.600 234.180,143.600 234.400 M251.505 235.483 C 252.002 235.579,252.722 235.575,253.105 235.475 C 253.487 235.375,253.080 235.296,252.200 235.301 C 251.320 235.305,251.007 235.387,251.505 235.483 M150.006 237.300 C 150.011 238.545,150.116 238.839,150.400 238.400 C 150.910 237.610,150.910 235.600,150.400 235.600 C 150.180 235.600,150.003 236.365,150.006 237.300 M150.509 244.400 C 150.509 245.390,150.587 245.795,150.682 245.300 C 150.778 244.805,150.778 243.995,150.682 243.500 C 150.587 243.005,150.509 243.410,150.509 244.400 M249.200 244.200 C 249.200 244.530,249.380 244.800,249.600 244.800 C 249.820 244.800,250.000 244.530,250.000 244.200 C 250.000 243.870,249.820 243.600,249.600 243.600 C 249.380 243.600,249.200 243.870,249.200 244.200 M243.600 249.600 C 243.600 249.820,243.870 250.000,244.200 250.000 C 244.530 250.000,244.800 249.820,244.800 249.600 C 244.800 249.380,244.530 249.200,244.200 249.200 C 243.870 249.200,243.600 249.380,243.600 249.600 M164.705 250.800 C 164.543 251.350,164.431 252.970,164.456 254.400 C 164.497 256.812,164.520 256.877,164.778 255.292 C 164.931 254.353,165.268 253.372,165.528 253.112 C 165.788 252.852,165.997 252.361,165.994 252.020 C 165.989 251.494,165.933 251.487,165.625 251.974 C 165.359 252.394,165.227 252.179,165.131 251.174 C 165.008 249.889,164.981 249.865,164.705 250.800 M164.901 259.400 C 164.905 260.280,164.987 260.593,165.083 260.095 C 165.179 259.598,165.175 258.878,165.075 258.495 C 164.975 258.113,164.896 258.520,164.901 259.400 M170.400 264.000 C 170.400 264.220,170.670 264.400,171.000 264.400 C 171.330 264.400,171.600 264.220,171.600 264.000 C 171.600 263.780,171.330 263.600,171.000 263.600 C 170.670 263.600,170.400 263.780,170.400 264.000 M221.301 266.600 C 221.305 267.480,221.387 267.793,221.483 267.295 C 221.579 266.798,221.575 266.078,221.475 265.695 C 221.375 265.313,221.296 265.720,221.301 266.600 M179.075 268.556 C 178.654 271.553,178.786 274.047,179.226 271.412 C 179.409 270.319,179.778 269.014,180.047 268.513 C 180.315 268.011,180.414 267.481,180.267 267.334 C 180.120 267.187,179.982 267.412,179.960 267.833 C 179.930 268.414,179.851 268.357,179.635 267.600 C 179.393 266.752,179.308 266.897,179.075 268.556 M179.884 273.200 C 179.999 273.640,180.141 274.000,180.200 274.000 C 180.259 274.000,180.401 273.640,180.516 273.200 C 180.647 272.700,180.528 272.400,180.200 272.400 C 179.872 272.400,179.753 272.700,179.884 273.200 M179.260 274.526 C 179.186 275.920,179.889 277.316,180.481 276.950 C 180.779 276.766,180.719 276.530,180.295 276.220 C 179.951 275.968,179.590 275.231,179.494 274.581 L 179.320 273.400 179.260 274.526 M199.700 274.676 C 200.085 274.776,200.715 274.776,201.100 274.676 C 201.485 274.575,201.170 274.493,200.400 274.493 C 199.630 274.493,199.315 274.575,199.700 274.676 " stroke="none" fill="#a09c9c" fill-rule="evenodd"></path></g></svg>