<svg id="svg" version="1.1" xmlns="http://www.w3.org/2000/svg" xmlns:xlink="http://www.w3.org/1999/xlink" width="400" height="666.6666666666667" viewBox="0, 0, 400,666.6666666666667"><g id="svgg"><path id="path0" d="M308.800 4.175 L 308.800 8.351 307.100 8.560 C 306.165 8.675,303.317 8.841,300.771 8.929 C 293.037 9.195,292.426 9.917,292.098 19.168 L 291.888 25.080 286.044 25.339 C 275.716 25.796,275.234 26.388,275.207 38.648 L 275.200 41.896 268.700 42.079 C 259.688 42.333,258.800 42.964,258.800 49.116 C 258.800 50.194,258.684 52.708,258.543 54.702 L 258.285 58.327 251.941 58.615 C 242.242 59.055,242.090 59.220,242.032 69.449 L 242.000 75.098 235.300 75.290 C 225.492 75.572,225.654 75.411,225.309 85.244 L 225.090 91.488 221.484 91.744 C 219.500 91.885,216.780 92.001,215.439 92.002 C 209.412 92.008,208.975 92.635,208.569 101.869 L 208.287 108.285 201.843 108.506 C 192.009 108.842,192.292 108.564,192.004 118.200 L 191.800 125.000 184.711 125.200 C 175.172 125.469,175.252 125.378,175.217 136.044 L 175.200 141.489 168.700 141.764 C 158.423 142.199,158.873 141.761,158.517 151.681 L 158.275 158.400 153.038 158.429 C 141.348 158.494,142.283 157.196,141.633 174.268 C 141.601 175.119,141.467 175.138,134.410 175.268 C 124.831 175.444,125.459 174.821,125.261 184.345 L 125.113 191.477 118.257 191.743 C 108.148 192.134,108.787 191.499,108.494 201.457 L 108.293 208.313 101.247 208.472 C 91.469 208.693,92.198 207.923,91.781 218.476 L 91.517 225.151 84.172 225.276 C 74.664 225.437,75.441 224.657,75.262 234.214 L 75.124 241.600 69.662 241.603 C 58.256 241.611,58.706 241.224,58.470 251.222 L 58.302 258.338 50.915 258.469 C 41.456 258.637,42.181 257.917,41.792 267.536 L 41.503 274.684 34.481 274.965 C 24.741 275.356,25.200 274.870,25.200 284.782 L 25.200 291.512 17.900 291.691 C 7.877 291.937,8.737 291.077,8.491 301.100 L 8.312 308.400 4.156 308.400 L 0.000 308.400 0.000 333.200 L 0.000 358.000 4.200 358.000 L 8.400 358.000 8.417 364.100 C 8.449 375.179,8.087 374.770,17.875 374.787 L 25.151 374.800 25.275 382.197 L 25.400 389.594 26.483 390.597 C 27.552 391.588,27.650 391.600,34.531 391.600 L 41.498 391.600 41.789 398.806 C 42.181 408.492,41.452 407.763,50.915 407.931 L 58.302 408.062 58.470 415.178 C 58.707 425.215,58.259 424.800,68.850 424.800 L 75.200 424.800 75.247 431.300 C 75.324 441.853,75.020 441.528,84.858 441.571 L 91.516 441.600 91.772 447.900 C 92.206 458.567,91.647 458.000,101.733 458.000 L 108.291 458.000 108.517 464.900 C 108.855 475.169,108.479 474.800,118.610 474.800 L 125.122 474.800 125.261 481.958 C 125.406 489.413,125.751 490.800,127.462 490.800 C 127.758 490.800,128.000 490.980,128.000 491.200 C 128.000 491.451,130.533 491.600,134.800 491.600 C 141.576 491.600,141.600 491.603,141.631 492.500 C 142.204 508.969,141.509 507.973,152.438 507.990 L 158.275 508.000 158.520 514.808 C 158.877 524.753,158.909 524.784,169.054 524.794 L 175.108 524.800 175.272 531.500 C 175.466 539.387,175.919 540.778,178.300 540.794 C 178.795 540.797,179.200 540.980,179.200 541.200 C 179.200 541.450,181.589 541.600,185.566 541.600 L 191.933 541.600 192.066 548.319 C 192.257 557.880,192.391 558.000,202.961 558.000 L 208.282 558.000 208.566 564.474 C 209.005 574.455,209.377 574.800,219.705 574.800 L 225.087 574.800 225.307 581.100 C 225.597 589.382,226.198 590.800,229.419 590.800 C 229.958 590.800,230.400 590.980,230.400 591.200 C 230.400 591.448,232.600 591.600,236.200 591.600 L 242.000 591.600 242.032 597.100 C 242.092 607.243,242.489 607.665,252.243 607.930 L 258.287 608.094 258.543 611.709 C 258.685 613.696,258.800 616.206,258.800 617.284 C 258.800 621.946,260.140 624.000,263.180 624.000 C 263.851 624.000,264.400 624.180,264.400 624.400 C 264.400 624.647,266.446 624.800,269.738 624.800 L 275.076 624.800 275.338 630.500 C 275.739 639.190,276.227 640.180,280.349 640.669 C 281.477 640.802,282.400 641.066,282.400 641.256 C 282.400 641.445,284.534 641.600,287.142 641.600 L 291.884 641.600 292.094 647.500 C 292.436 657.127,293.504 658.000,304.933 658.000 L 308.800 658.000 308.800 662.200 L 308.800 666.400 342.000 666.400 L 375.200 666.400 375.200 662.222 L 375.200 658.043 380.500 657.887 C 390.752 657.585,391.196 657.141,391.491 646.900 L 391.643 641.600 395.822 641.600 L 400.000 641.600 400.000 625.000 L 400.000 608.400 395.800 608.400 L 391.600 608.400 391.591 601.100 C 391.579 591.127,392.255 591.837,382.624 591.675 L 375.200 591.551 375.200 584.359 C 375.200 574.651,375.427 574.850,364.300 574.817 L 358.400 574.800 358.400 568.249 C 358.400 558.036,358.780 558.414,348.500 558.405 L 341.600 558.400 341.600 551.660 C 341.600 541.389,342.094 541.919,332.300 541.689 L 325.200 541.522 325.200 534.761 C 325.200 530.520,325.051 528.000,324.800 528.000 C 324.580 528.000,324.400 527.644,324.400 527.209 C 324.400 525.553,322.919 525.175,315.439 524.917 L 308.400 524.676 308.371 518.038 C 308.328 508.221,308.621 508.501,298.300 508.440 L 291.600 508.400 291.600 501.580 C 291.600 491.556,291.982 491.954,282.100 491.692 L 275.200 491.509 275.200 484.755 C 275.200 481.040,275.040 478.000,274.843 478.000 C 274.647 478.000,274.372 477.544,274.232 476.986 C 273.861 475.506,272.772 475.261,265.215 474.954 L 258.400 474.678 258.394 468.839 C 258.384 458.703,258.330 458.646,248.786 458.461 L 241.600 458.322 241.600 452.308 C 241.600 442.004,241.562 441.962,231.979 441.685 L 225.200 441.489 225.200 435.145 C 225.200 431.547,225.041 428.800,224.832 428.800 C 224.629 428.800,224.341 428.243,224.192 427.563 C 223.789 425.727,222.348 425.330,214.900 424.998 L 208.400 424.709 208.400 419.330 C 208.400 409.179,207.919 408.660,198.318 408.460 L 191.600 408.319 191.600 402.990 C 191.600 392.078,191.180 391.724,178.100 391.622 L 175.200 391.600 175.200 385.800 C 175.200 382.610,175.057 380.000,174.883 380.000 C 174.709 380.000,174.351 379.198,174.089 378.217 C 173.402 375.647,172.840 375.462,165.121 375.273 L 158.441 375.109 158.282 369.654 C 158.138 364.691,157.798 362.185,157.018 360.328 C 156.533 359.174,154.412 358.751,147.900 358.512 L 141.600 358.281 141.600 353.360 C 141.600 342.707,141.266 342.376,129.900 341.771 L 125.200 341.521 125.200 333.161 L 125.200 324.800 130.776 324.800 C 134.063 324.800,136.454 324.636,136.600 324.400 C 136.736 324.180,137.377 324.000,138.024 324.000 C 139.530 324.000,140.800 322.730,140.800 321.224 C 140.800 320.577,140.980 319.936,141.200 319.800 C 141.436 319.654,141.600 317.263,141.600 313.976 L 141.600 308.400 147.400 308.400 C 150.627 308.400,153.200 308.238,153.200 308.035 C 153.200 307.834,153.924 307.548,154.809 307.399 C 156.496 307.113,157.600 305.778,157.600 304.020 C 157.600 303.569,157.780 303.200,158.000 303.200 C 158.248 303.200,158.400 301.000,158.400 297.400 L 158.400 291.600 164.600 291.600 C 168.467 291.600,170.800 291.449,170.800 291.200 C 170.800 290.980,171.120 290.800,171.511 290.800 C 172.574 290.800,174.000 289.657,174.000 288.806 C 174.000 288.394,174.270 287.787,174.600 287.457 C 175.080 286.977,175.200 285.654,175.200 280.829 L 175.200 274.800 181.300 274.781 C 187.623 274.761,189.713 274.306,190.401 272.800 C 190.552 272.470,190.884 271.797,191.138 271.305 C 191.427 270.745,191.600 268.165,191.600 264.405 L 191.600 258.400 197.800 258.400 C 201.667 258.400,204.000 258.249,204.000 258.000 C 204.000 257.780,204.368 257.600,204.818 257.600 C 205.874 257.600,207.600 255.874,207.600 254.818 C 207.600 254.368,207.780 254.000,208.000 254.000 C 208.249 254.000,208.400 251.667,208.400 247.800 L 208.400 241.600 215.200 241.600 C 219.379 241.600,222.000 241.449,222.000 241.208 C 222.000 240.992,222.450 240.702,223.000 240.564 C 223.633 240.405,224.000 240.031,224.000 239.544 C 224.000 239.121,224.270 238.671,224.600 238.545 C 225.101 238.353,225.200 237.195,225.200 231.557 L 225.200 224.800 231.406 224.800 C 238.485 224.800,240.800 224.338,240.800 222.926 C 240.800 222.443,240.980 221.936,241.200 221.800 C 241.440 221.651,241.600 218.929,241.600 214.976 L 241.600 208.400 248.400 208.400 C 252.140 208.400,255.200 208.240,255.200 208.043 C 255.200 207.847,255.647 207.574,256.194 207.437 C 256.807 207.283,257.283 206.807,257.437 206.194 C 257.574 205.647,257.847 205.200,258.043 205.200 C 258.240 205.200,258.400 202.140,258.400 198.400 L 258.400 191.600 265.454 191.600 C 272.465 191.600,272.514 191.594,273.435 190.600 C 273.945 190.050,274.550 189.600,274.781 189.600 C 275.058 189.600,275.200 187.091,275.200 182.200 L 275.200 174.800 282.400 174.800 C 286.933 174.800,289.600 174.652,289.600 174.400 C 289.600 174.180,289.870 174.000,290.200 174.000 C 290.530 174.000,290.800 173.730,290.800 173.400 C 290.800 173.070,290.980 172.800,291.200 172.800 C 291.452 172.800,291.600 170.133,291.600 165.600 L 291.600 158.400 298.900 158.399 L 306.200 158.398 307.000 157.200 C 307.440 156.541,307.935 156.002,308.100 156.001 C 308.265 156.001,308.400 152.760,308.400 148.800 L 308.400 141.600 315.600 141.600 C 319.560 141.600,322.801 141.465,322.801 141.300 C 322.802 141.135,323.341 140.640,324.000 140.200 L 325.198 139.400 325.199 132.100 L 325.200 124.800 332.345 124.800 L 339.491 124.800 340.545 123.745 L 341.600 122.691 341.600 115.545 L 341.600 108.400 348.831 108.400 L 356.062 108.400 357.231 107.231 L 358.400 106.062 358.400 98.831 L 358.400 91.600 366.200 91.600 C 372.867 91.600,374.000 91.513,374.000 91.000 C 374.000 90.670,374.270 90.400,374.600 90.400 C 375.113 90.400,375.200 89.267,375.200 82.600 L 375.200 74.800 382.829 74.800 C 392.469 74.800,391.600 75.669,391.600 66.029 L 391.600 58.400 395.800 58.400 L 400.000 58.400 400.000 41.800 L 400.000 25.200 395.845 25.200 L 391.691 25.200 391.491 19.700 C 391.100 8.958,390.803 8.740,376.100 8.420 C 375.225 8.401,375.200 8.283,375.200 4.200 L 375.200 0.000 342.000 0.000 L 308.800 0.000 308.800 4.175 " stroke="none" fill="#040404" fill-rule="evenodd"></path><path id="path1" d="" stroke="none" fill="#080404" fill-rule="evenodd"></path><path id="path2" d="" stroke="none" fill="#080404" fill-rule="evenodd"></path><path id="path3" d="" stroke="none" fill="#080404" fill-rule="evenodd"></path><path id="path4" d="" stroke="none" fill="#080404" fill-rule="evenodd"></path></g></svg>