<svg id="svg" version="1.1" xmlns="http://www.w3.org/2000/svg" xmlns:xlink="http://www.w3.org/1999/xlink" width="400" height="400" viewBox="0, 0, 400,400"><g id="svgg"><path id="path0" d="M191.298 145.900 L 191.400 193.000 192.293 193.127 L 193.187 193.254 193.316 147.127 C 193.387 121.757,193.591 100.505,193.769 99.900 C 194.081 98.843,194.037 98.800,192.645 98.800 L 191.197 98.800 191.298 145.900 M98.800 207.700 L 98.800 208.800 145.000 208.800 L 191.200 208.800 191.200 255.000 L 191.200 301.200 192.647 301.200 C 194.037 301.200,194.081 301.157,193.768 300.100 C 193.589 299.495,193.386 278.551,193.316 253.557 C 193.197 210.579,193.151 208.080,192.478 207.470 C 191.833 206.887,187.370 206.815,145.283 206.713 L 98.800 206.600 98.800 207.700 M252.872 206.700 L 206.745 206.803 206.872 207.702 L 207.000 208.600 254.100 208.702 L 301.200 208.803 301.200 207.602 C 301.200 206.534,301.078 206.411,300.100 206.498 C 299.495 206.552,278.243 206.643,252.872 206.700 " stroke="none" fill="#b4b4b4" fill-rule="evenodd"></path><path id="path1" d="M193.669 100.831 C 193.325 102.319,193.200 114.937,193.200 148.077 L 193.200 193.293 192.200 193.102 C 190.984 192.870,190.930 193.027,192.026 193.614 C 194.084 194.715,194.000 196.684,194.006 147.451 C 194.009 122.343,194.144 101.593,194.306 101.339 C 194.499 101.037,196.618 100.831,200.467 100.739 C 206.500 100.596,207.068 100.475,206.662 99.417 C 206.463 98.898,205.450 98.800,200.281 98.800 L 194.137 98.800 193.669 100.831 M99.043 193.833 C 98.909 194.181,98.800 197.126,98.800 200.377 L 98.800 206.289 100.900 206.541 C 102.055 206.680,122.997 206.795,147.438 206.797 C 189.978 206.800,191.904 206.831,192.538 207.531 C 193.146 208.203,193.200 211.928,193.200 252.926 C 193.200 286.552,193.319 298.035,193.683 299.394 L 194.166 301.200 200.187 301.200 C 205.639 301.200,206.252 301.129,206.676 300.451 C 207.276 299.489,205.489 299.200,198.944 299.200 C 196.445 299.200,194.358 299.155,194.307 299.100 C 194.255 299.045,194.120 278.354,194.007 253.120 C 193.862 220.983,193.670 207.110,193.367 206.807 C 193.061 206.501,179.704 206.379,147.899 206.393 C 114.196 206.408,102.605 206.294,101.833 205.942 C 100.805 205.474,100.800 205.450,100.800 200.586 C 100.800 194.080,100.052 191.204,99.043 193.833 M299.457 195.037 C 299.316 196.068,299.200 198.860,299.200 201.242 C 299.200 205.137,299.121 205.614,298.414 205.993 C 297.877 206.280,283.327 206.409,252.514 206.400 C 227.701 206.393,207.175 206.390,206.900 206.393 C 206.341 206.401,206.208 208.234,206.742 208.564 C 206.930 208.681,206.999 208.331,206.896 207.788 L 206.707 206.800 252.098 206.800 C 277.062 206.800,298.328 206.685,299.354 206.544 L 301.219 206.289 301.110 199.849 C 301.015 194.307,300.910 193.393,300.357 193.287 C 299.867 193.193,299.653 193.609,299.457 195.037 " stroke="none" fill="#646464" fill-rule="evenodd"></path><path id="path2" d="M200.700 101.510 L 194.400 101.620 194.400 147.530 C 194.400 182.704,194.288 193.552,193.920 193.920 C 193.194 194.646,192.067 194.496,191.507 193.600 C 191.012 192.808,190.574 192.800,146.204 192.799 L 101.400 192.799 101.519 199.194 L 101.638 205.590 147.451 205.695 C 192.276 205.798,193.277 205.817,193.832 206.576 C 194.315 207.236,194.400 214.193,194.400 252.876 L 194.400 298.400 199.700 298.440 C 202.615 298.461,205.495 298.524,206.100 298.578 L 207.200 298.676 207.200 253.738 C 207.200 225.139,207.060 208.800,206.814 208.800 C 205.910 208.800,205.515 207.156,206.230 206.367 C 206.906 205.620,208.094 205.600,252.662 205.600 L 298.400 205.600 298.404 200.700 C 298.407 198.005,298.520 195.125,298.657 194.300 L 298.905 192.800 253.054 192.800 L 207.203 192.800 207.102 147.100 L 207.000 101.400 200.700 101.510 " stroke="none" fill="#040404" fill-rule="evenodd"></path><path id="path3" d="M206.669 99.543 C 206.934 100.557,205.526 100.800,199.393 100.800 C 195.287 100.800,194.446 100.903,194.243 101.433 C 194.109 101.781,194.000 122.549,194.000 147.584 C 194.000 196.952,194.103 194.664,191.926 193.606 C 191.042 193.176,191.035 193.184,191.776 193.778 C 192.763 194.568,192.932 194.559,193.736 193.670 C 194.341 193.003,194.405 189.063,194.498 147.170 L 194.600 101.400 197.160 101.543 C 204.366 101.946,209.432 100.627,206.837 99.023 C 206.638 98.900,206.562 99.134,206.669 99.543 M98.998 193.204 C 98.845 193.451,98.828 193.761,98.960 193.893 C 99.092 194.025,99.200 193.923,99.200 193.667 C 99.200 193.410,99.448 193.200,99.750 193.200 C 100.534 193.200,100.793 194.987,100.847 200.750 C 100.877 203.943,101.007 205.359,101.200 204.600 C 101.581 203.103,101.618 197.662,101.265 195.000 C 100.998 192.987,99.745 191.994,98.998 193.204 M299.067 193.067 C 298.920 193.213,298.800 196.093,298.800 199.467 C 298.800 202.840,298.755 205.643,298.700 205.696 C 298.645 205.748,278.260 205.885,253.400 205.999 L 208.200 206.207 252.926 206.303 C 283.173 206.369,297.903 206.266,298.426 205.986 C 299.118 205.616,299.200 205.113,299.200 201.242 C 299.200 195.077,299.517 193.085,300.459 193.331 C 300.867 193.438,301.100 193.362,300.977 193.163 C 300.716 192.741,299.456 192.677,299.067 193.067 M124.069 206.300 C 136.097 206.359,155.897 206.359,168.069 206.300 C 180.241 206.241,170.400 206.193,146.200 206.193 C 122.000 206.193,112.041 206.241,124.069 206.300 M192.000 206.288 C 192.550 206.387,193.180 206.641,193.400 206.854 C 193.660 207.104,193.873 223.267,194.008 252.920 L 194.217 298.600 194.208 252.961 C 194.199 203.492,194.312 205.937,192.051 206.054 L 191.000 206.109 192.000 206.288 M206.150 206.587 C 206.026 206.910,206.017 207.405,206.131 207.687 C 206.244 207.969,206.351 207.810,206.368 207.333 C 206.386 206.857,206.625 206.376,206.900 206.265 C 207.292 206.107,207.289 206.056,206.887 206.032 C 206.606 206.014,206.274 206.264,206.150 206.587 M194.600 299.001 C 195.524 299.321,207.200 299.447,207.200 299.138 C 207.200 298.952,204.275 298.814,200.700 298.832 C 197.125 298.849,194.380 298.925,194.600 299.001 " stroke="none" fill="#30605c" fill-rule="evenodd"></path><path id="path4" d="M204.300 101.482 C 204.795 101.578,205.605 101.578,206.100 101.482 C 206.595 101.387,206.190 101.309,205.200 101.309 C 204.210 101.309,203.805 101.387,204.300 101.482 M101.190 194.719 L 101.383 196.600 101.519 195.047 C 101.593 194.193,101.507 193.347,101.326 193.166 C 101.145 192.985,101.084 193.684,101.190 194.719 M298.558 200.200 C 298.558 203.280,298.621 204.487,298.697 202.882 C 298.773 201.278,298.773 198.758,298.696 197.282 C 298.619 195.807,298.557 197.120,298.558 200.200 M124.500 205.900 C 136.985 205.959,157.415 205.959,169.900 205.900 C 182.385 205.841,172.170 205.793,147.200 205.793 C 122.230 205.793,112.015 205.841,124.500 205.900 M229.500 205.900 C 242.095 205.959,262.705 205.959,275.300 205.900 C 287.895 205.841,277.590 205.793,252.400 205.793 C 227.210 205.793,216.905 205.841,229.500 205.900 M196.882 298.696 C 198.358 298.773,200.878 298.773,202.482 298.697 C 204.087 298.621,202.880 298.558,199.800 298.558 C 196.720 298.557,195.407 298.619,196.882 298.696 " stroke="none" fill="#300460" fill-rule="evenodd"></path></g></svg>