<svg id="svg" version="1.1" xmlns="http://www.w3.org/2000/svg" xmlns:xlink="http://www.w3.org/1999/xlink" width="400" height="666.6666666666667" viewBox="0, 0, 400,666.6666666666667"><g id="svgg"><path id="path0" d="M25.200 4.200 C 25.200 8.282,25.175 8.401,24.300 8.422 C 19.438 8.540,11.988 9.205,11.144 9.598 C 9.352 10.430,8.669 14.124,8.422 24.300 C 8.401 25.175,8.282 25.200,4.200 25.200 L 0.000 25.200 0.000 41.800 L 0.000 58.400 4.200 58.400 L 8.400 58.400 8.410 64.500 C 8.426 75.165,8.092 74.800,17.845 74.800 L 25.138 74.800 25.269 82.423 C 25.438 92.265,24.751 91.579,34.441 91.591 L 41.482 91.600 41.764 98.500 C 42.188 108.879,41.703 108.400,51.799 108.400 L 58.301 108.400 58.495 115.500 C 58.762 125.289,58.219 124.794,68.700 124.798 L 75.200 124.800 75.200 131.150 C 75.200 141.837,74.976 141.596,84.900 141.599 L 91.600 141.600 91.635 143.900 C 91.794 154.444,92.350 157.600,94.049 157.600 C 94.462 157.600,94.800 157.780,94.800 158.000 C 94.800 158.251,97.314 158.400,101.542 158.400 L 108.284 158.400 108.492 165.333 C 108.784 175.053,108.513 174.800,118.621 174.800 L 125.122 174.800 125.261 182.044 L 125.400 189.288 126.785 190.444 L 128.170 191.600 134.885 191.600 C 141.001 191.600,141.603 191.662,141.633 192.300 C 141.651 192.685,141.794 195.915,141.950 199.477 C 142.258 206.485,142.627 207.600,144.638 207.600 C 145.141 207.600,145.664 207.780,145.800 208.000 C 145.947 208.238,148.517 208.400,152.161 208.400 L 158.275 208.400 158.524 215.017 C 158.892 224.808,158.821 224.741,168.854 224.777 L 175.108 224.800 175.312 231.500 C 175.619 241.604,175.615 241.600,185.799 241.600 L 191.933 241.600 192.066 248.319 C 192.214 255.734,192.572 256.969,194.705 257.418 C 195.307 257.545,196.113 257.817,196.495 258.024 C 196.877 258.231,199.712 258.400,202.795 258.400 L 208.400 258.400 208.414 261.500 C 208.473 274.272,208.924 274.800,219.763 274.800 L 225.087 274.800 225.307 281.100 C 225.594 289.296,226.159 290.800,228.950 290.800 C 229.502 290.800,230.064 290.980,230.200 291.200 C 230.346 291.437,232.788 291.600,236.177 291.600 L 241.906 291.600 242.087 298.100 C 242.320 306.452,242.896 307.600,246.860 307.600 C 247.487 307.600,248.000 307.780,248.000 308.000 C 248.000 308.246,249.987 308.400,253.161 308.400 L 258.321 308.400 258.571 313.100 C 259.176 324.477,259.498 324.800,270.220 324.800 L 275.200 324.800 275.200 333.160 L 275.200 341.519 270.100 341.775 C 258.589 342.352,259.151 341.792,258.578 353.242 L 258.326 358.283 252.063 358.513 C 242.218 358.875,242.387 358.708,242.038 368.400 L 241.800 375.000 235.000 375.222 C 225.455 375.534,225.657 375.324,225.307 385.300 L 225.087 391.600 222.043 391.622 C 215.305 391.672,210.810 392.212,209.948 393.074 C 209.055 393.967,208.442 398.759,208.414 405.060 L 208.400 408.319 201.682 408.460 C 192.054 408.661,192.006 408.712,192.002 418.849 L 192.000 424.698 185.500 424.973 C 175.193 425.408,175.561 425.052,175.293 434.847 L 175.110 441.493 168.250 441.682 C 158.515 441.950,158.880 441.576,158.518 451.644 L 158.278 458.324 151.150 458.462 C 141.762 458.644,142.336 458.118,141.951 466.893 C 141.794 470.472,141.651 473.687,141.633 474.039 C 141.605 474.587,140.619 474.716,134.700 474.949 C 124.976 475.331,125.325 474.951,125.247 485.255 L 125.200 491.511 118.100 491.671 C 108.185 491.895,108.808 491.272,108.503 501.269 L 108.287 508.338 101.004 508.469 C 91.425 508.641,92.208 507.796,91.775 518.439 L 91.521 524.678 84.522 524.919 C 74.754 525.254,75.200 524.762,75.200 535.212 L 75.200 541.524 67.900 541.689 C 57.899 541.914,58.758 541.055,58.494 551.100 L 58.302 558.400 51.377 558.400 C 41.416 558.400,42.183 557.645,41.766 567.857 L 41.486 574.713 34.443 574.872 C 24.650 575.094,25.200 574.488,25.200 585.050 L 25.200 591.600 18.226 591.600 C 8.077 591.600,8.717 590.975,8.489 601.100 L 8.324 608.400 4.162 608.400 L 0.000 608.400 0.000 625.000 L 0.000 641.600 4.200 641.600 C 8.283 641.600,8.401 641.625,8.420 642.500 C 8.740 657.203,8.958 657.500,19.700 657.891 L 25.200 658.091 25.200 662.245 L 25.200 666.400 58.400 666.400 L 91.600 666.400 91.600 662.232 L 91.600 658.064 96.700 657.871 C 105.915 657.522,107.600 656.647,107.600 652.213 C 107.600 651.436,107.780 650.800,108.000 650.800 C 108.243 650.800,108.400 649.000,108.400 646.200 L 108.400 641.600 113.600 641.600 C 116.466 641.600,118.800 641.436,118.800 641.235 C 118.800 641.034,119.549 640.744,120.464 640.589 C 122.579 640.232,123.832 638.979,124.189 636.864 C 124.344 635.949,124.634 635.200,124.835 635.200 C 125.036 635.200,125.200 632.866,125.200 630.000 L 125.200 624.800 130.800 624.800 C 134.267 624.800,136.400 624.648,136.400 624.400 C 136.400 624.180,136.778 624.000,137.240 624.000 C 139.158 624.000,140.800 622.791,140.800 621.378 C 140.800 620.646,140.980 619.936,141.200 619.800 C 141.437 619.654,141.600 617.196,141.600 613.776 L 141.600 608.000 146.888 608.000 C 155.281 608.000,157.600 607.056,157.600 603.640 C 157.600 603.178,157.780 602.800,158.000 602.800 C 158.248 602.800,158.400 600.667,158.400 597.200 L 158.400 591.600 164.600 591.600 C 168.010 591.600,170.800 591.456,170.800 591.280 C 170.800 591.105,171.419 590.737,172.174 590.464 C 173.195 590.095,173.667 589.610,174.005 588.583 C 174.257 587.823,174.628 587.200,174.831 587.200 C 175.040 587.200,175.200 584.519,175.200 581.000 L 175.200 574.800 181.400 574.800 C 184.810 574.800,187.600 574.657,187.600 574.483 C 187.600 574.308,188.170 573.993,188.866 573.783 C 189.562 573.572,190.254 573.130,190.404 572.800 C 190.553 572.470,190.884 571.797,191.138 571.305 C 191.429 570.742,191.600 568.116,191.600 564.205 L 191.600 558.000 198.400 558.000 C 202.667 558.000,205.200 557.851,205.200 557.600 C 205.200 557.380,205.650 557.200,206.200 557.200 C 206.921 557.200,207.200 556.985,207.200 556.429 C 207.200 556.004,207.470 555.387,207.800 555.057 C 208.284 554.574,208.400 553.210,208.400 548.029 L 208.400 541.600 215.200 541.600 C 219.379 541.600,222.000 541.449,222.000 541.208 C 222.000 540.992,222.450 540.702,223.000 540.564 C 223.633 540.405,224.000 540.031,224.000 539.544 C 224.000 539.121,224.270 538.671,224.600 538.545 C 225.101 538.353,225.200 537.195,225.200 531.557 L 225.200 524.800 231.800 524.800 C 235.430 524.800,238.400 524.643,238.400 524.450 C 238.400 524.258,238.940 523.992,239.600 523.860 C 240.445 523.691,240.800 523.387,240.800 522.834 C 240.800 522.401,240.980 521.936,241.200 521.800 C 241.441 521.651,241.600 518.863,241.600 514.776 L 241.600 508.000 248.072 508.000 C 255.182 508.000,257.080 507.619,257.457 506.115 C 257.583 505.612,257.847 505.200,258.043 505.200 C 258.240 505.200,258.400 502.140,258.400 498.400 L 258.400 491.600 265.387 491.600 L 272.373 491.600 273.787 490.187 L 275.200 488.773 275.200 481.787 L 275.200 474.800 282.231 474.800 L 289.262 474.800 290.431 473.631 L 291.600 472.462 291.600 465.231 L 291.600 458.000 298.831 458.000 L 306.062 458.000 307.231 456.831 L 308.400 455.662 308.400 448.631 L 308.400 441.600 315.600 441.600 C 319.560 441.600,322.801 441.465,322.801 441.300 C 322.802 441.135,323.341 440.640,324.000 440.200 L 325.198 439.400 325.199 432.100 L 325.200 424.800 332.334 424.800 L 339.468 424.800 340.534 423.603 L 341.600 422.407 341.600 415.203 L 341.600 408.000 348.934 408.000 L 356.268 408.000 357.334 406.803 L 358.400 405.607 358.400 398.603 L 358.400 391.600 366.200 391.600 C 372.867 391.600,374.000 391.513,374.000 391.000 C 374.000 390.670,374.270 390.400,374.600 390.400 C 375.113 390.400,375.200 389.267,375.200 382.600 L 375.200 374.800 382.829 374.800 C 392.480 374.800,391.600 375.700,391.600 365.829 L 391.600 358.000 395.800 358.000 L 400.000 358.000 400.000 333.200 L 400.000 308.400 395.800 308.400 L 391.600 308.400 391.587 301.100 C 391.570 291.303,391.953 291.649,381.100 291.617 L 375.200 291.600 375.197 284.300 L 375.195 277.000 373.897 276.122 C 372.731 275.331,371.885 275.215,365.500 274.962 L 358.400 274.680 358.399 268.040 C 358.396 258.186,358.628 258.400,347.950 258.400 L 341.600 258.400 341.599 251.700 C 341.598 241.465,341.834 241.687,330.900 241.630 L 325.200 241.600 325.200 234.800 C 325.200 230.872,325.043 228.000,324.828 228.000 C 324.623 228.000,324.398 227.600,324.328 227.110 C 324.098 225.507,322.699 225.212,315.300 225.206 L 308.400 225.200 308.400 218.461 C 308.400 208.365,308.772 208.748,298.700 208.491 L 291.600 208.311 291.600 201.804 C 291.600 191.723,292.011 192.148,281.900 191.743 L 275.200 191.475 275.200 184.737 C 275.200 180.512,275.051 178.000,274.800 178.000 C 274.580 178.000,274.400 177.758,274.400 177.462 C 274.400 175.749,273.016 175.406,265.559 175.268 L 258.400 175.135 258.394 169.068 C 258.384 158.784,258.318 158.713,248.556 158.472 L 241.600 158.299 241.600 152.296 C 241.600 142.211,241.622 142.234,231.700 141.789 L 225.200 141.498 225.200 135.349 C 225.200 131.516,225.049 129.200,224.800 129.200 C 224.580 129.200,224.400 128.850,224.400 128.422 C 224.400 127.995,223.966 127.140,223.435 126.522 L 222.470 125.400 215.435 125.260 L 208.400 125.121 208.368 119.460 C 208.310 109.176,207.980 108.823,198.157 108.498 L 191.600 108.282 191.582 102.641 C 191.553 93.276,190.764 92.075,184.600 92.020 C 183.060 92.006,180.315 91.880,178.500 91.738 L 175.200 91.481 175.200 85.741 C 175.200 82.583,175.057 80.000,174.883 80.000 C 174.709 80.000,174.358 79.223,174.104 78.274 C 173.440 75.790,172.614 75.522,164.920 75.291 L 158.441 75.097 158.297 69.649 C 158.027 59.372,157.729 59.053,148.001 58.612 L 141.600 58.322 141.600 53.543 C 141.600 43.082,140.963 42.359,131.500 42.080 L 125.200 41.895 125.200 37.147 C 125.200 34.536,125.045 32.400,124.856 32.400 C 124.666 32.400,124.402 31.477,124.269 30.349 C 123.781 26.230,122.787 25.739,114.133 25.340 L 108.466 25.079 108.269 20.639 C 108.077 16.321,107.571 12.538,106.989 11.085 C 106.400 9.612,104.496 9.122,98.033 8.780 C 94.605 8.598,91.755 8.438,91.700 8.425 C 91.645 8.411,91.600 6.510,91.600 4.200 L 91.600 0.000 58.400 0.000 L 25.200 0.000 25.200 4.200 " stroke="none" fill="#040404" fill-rule="evenodd"></path><path id="path1" d="" stroke="none" fill="#080404" fill-rule="evenodd"></path><path id="path2" d="" stroke="none" fill="#080404" fill-rule="evenodd"></path><path id="path3" d="" stroke="none" fill="#080404" fill-rule="evenodd"></path><path id="path4" d="" stroke="none" fill="#080404" fill-rule="evenodd"></path></g></svg>