<svg id="svg" version="1.1" xmlns="http://www.w3.org/2000/svg" xmlns:xlink="http://www.w3.org/1999/xlink" width="400" height="400" viewBox="0, 0, 400,400"><g id="svgg"><path id="path0" d="M86.000 4.800 C 86.000 8.370,86.128 9.602,86.500 9.606 C 86.866 9.611,86.854 9.705,86.455 9.958 C 86.129 10.164,86.078 10.363,86.327 10.452 C 86.557 10.533,83.563 10.632,79.673 10.671 C 71.139 10.756,71.200 10.506,79.830 10.027 C 85.832 9.694,85.611 9.681,76.000 9.806 C 50.258 10.140,49.117 10.708,48.523 23.500 L 48.277 28.800 43.438 28.803 C 29.529 28.812,29.317 28.991,28.922 41.041 L 28.684 48.282 23.442 48.526 C 10.717 49.117,10.140 50.281,9.806 76.000 C 9.681 85.611,9.694 85.832,10.027 79.830 C 10.505 71.207,10.756 71.137,10.671 79.652 C 10.632 83.531,10.487 86.525,10.348 86.307 C 10.198 86.069,10.009 86.129,9.880 86.455 C 9.726 86.842,9.654 86.855,9.632 86.500 C 9.608 86.130,8.356 86.000,4.800 86.000 L 0.000 86.000 0.000 171.600 L 0.000 257.200 4.800 257.200 L 9.600 257.200 9.595 264.700 C 9.589 275.609,10.689 287.895,11.892 290.350 C 13.143 292.901,17.276 294.310,23.916 294.447 C 25.172 294.473,26.740 294.610,27.400 294.750 L 28.600 295.006 28.851 301.803 C 29.218 311.750,29.767 313.047,33.806 313.502 C 34.793 313.613,35.600 313.861,35.600 314.052 C 35.600 314.243,38.452 314.400,41.938 314.400 L 48.276 314.400 48.525 319.500 C 49.139 332.091,50.167 332.617,75.058 333.081 L 85.917 333.283 86.073 340.941 C 86.254 349.802,86.581 350.973,89.001 351.427 C 89.770 351.571,90.400 351.849,90.400 352.045 C 90.400 352.736,253.164 352.493,253.857 351.800 C 254.187 351.470,254.804 351.200,255.229 351.200 C 255.724 351.200,256.000 350.924,256.000 350.429 C 256.000 350.004,256.270 349.387,256.600 349.057 C 257.091 348.566,257.200 347.076,257.200 340.829 L 257.200 333.200 266.915 333.200 L 276.629 333.200 277.111 339.234 C 277.952 349.766,279.152 350.931,289.706 351.465 C 295.964 351.782,296.000 351.805,296.000 355.444 C 296.000 367.499,297.777 369.682,308.242 370.488 C 315.123 371.018,314.651 370.676,314.982 375.363 C 315.805 387.034,316.859 388.509,324.908 389.251 C 327.159 389.458,330.218 389.802,331.707 390.014 C 337.667 390.864,388.701 390.499,389.600 389.600 C 390.499 388.701,390.864 337.667,390.014 331.707 C 389.802 330.218,389.458 327.159,389.251 324.908 C 388.509 316.859,387.034 315.805,375.363 314.982 C 370.676 314.651,371.018 315.123,370.488 308.242 C 369.682 297.777,367.499 296.000,355.444 296.000 C 351.805 296.000,351.782 295.964,351.465 289.706 C 350.931 279.152,349.766 277.952,339.234 277.111 L 333.200 276.629 333.200 266.915 L 333.200 257.200 340.829 257.200 C 347.076 257.200,348.566 257.091,349.057 256.600 C 349.387 256.270,350.004 256.000,350.429 256.000 C 350.924 256.000,351.200 255.724,351.200 255.229 C 351.200 254.804,351.470 254.187,351.800 253.857 C 352.493 253.164,352.736 90.400,352.045 90.400 C 351.849 90.400,351.571 89.770,351.427 89.001 C 350.973 86.581,349.802 86.254,340.941 86.073 L 333.283 85.917 333.081 75.058 C 332.617 50.167,332.091 49.139,319.500 48.525 L 314.400 48.276 314.400 41.938 C 314.400 38.452,314.243 35.600,314.052 35.600 C 313.861 35.600,313.613 34.793,313.502 33.806 C 313.047 29.767,311.750 29.218,301.803 28.851 L 295.006 28.600 294.750 27.400 C 294.610 26.740,294.473 25.172,294.447 23.916 C 294.310 17.276,292.901 13.143,290.350 11.892 C 287.895 10.689,275.609 9.589,264.700 9.595 L 257.200 9.600 257.200 4.800 L 257.200 0.000 171.600 0.000 L 86.000 0.000 86.000 4.800 M267.600 10.386 L 270.200 10.678 267.600 10.692 C 266.170 10.700,263.200 10.577,261.000 10.419 L 257.000 10.132 261.000 10.113 C 263.200 10.102,266.170 10.225,267.600 10.386 M219.210 67.500 C 219.278 72.039,220.087 80.634,220.551 81.745 C 221.894 84.960,223.772 85.282,242.300 85.479 L 257.200 85.636 257.216 93.118 C 257.271 119.459,257.837 121.966,263.948 122.928 C 265.517 123.175,266.800 123.517,266.800 123.689 C 266.800 123.860,268.932 124.000,271.539 124.000 L 276.277 124.000 276.500 147.700 C 276.623 160.735,276.675 182.110,276.617 195.200 C 276.559 208.290,276.628 216.120,276.771 212.600 L 277.030 206.200 277.087 212.600 C 277.118 216.120,276.989 219.360,276.800 219.800 C 276.495 220.509,276.453 220.518,276.428 219.881 C 276.374 218.497,261.796 219.702,259.824 221.253 C 257.997 222.689,256.960 234.898,257.279 251.200 L 257.400 257.400 251.200 257.279 C 234.898 256.960,222.689 257.997,221.253 259.824 C 219.702 261.796,218.497 276.374,219.881 276.428 C 220.518 276.453,220.509 276.495,219.800 276.800 C 219.360 276.989,216.120 277.118,212.600 277.087 L 206.200 277.030 212.600 276.771 C 216.120 276.628,208.290 276.559,195.200 276.617 C 182.110 276.675,160.735 276.623,147.700 276.500 L 124.000 276.277 124.000 271.539 C 124.000 268.932,123.860 266.800,123.689 266.800 C 123.517 266.800,123.175 265.517,122.928 263.948 C 121.966 257.837,119.459 257.271,93.118 257.216 L 85.636 257.200 85.479 242.300 C 85.282 223.772,84.960 221.894,81.745 220.551 C 80.634 220.087,72.039 219.278,67.500 219.210 C 66.837 219.201,66.800 216.663,66.800 171.600 L 66.800 124.000 71.967 124.000 C 75.117 124.000,77.186 123.841,77.269 123.593 C 77.344 123.369,78.394 123.076,79.602 122.942 C 82.548 122.616,84.268 121.066,84.606 118.436 C 84.735 117.426,85.012 116.287,85.220 115.905 C 85.440 115.503,85.600 108.988,85.600 100.405 L 85.600 85.600 100.405 85.600 C 108.988 85.600,115.503 85.440,115.905 85.220 C 116.287 85.012,117.426 84.735,118.436 84.606 C 121.066 84.268,122.616 82.548,122.942 79.602 C 123.076 78.394,123.369 77.344,123.593 77.269 C 123.841 77.186,124.000 75.117,124.000 71.967 L 124.000 66.800 171.600 66.800 C 216.663 66.800,219.201 66.837,219.210 67.500 M258.106 93.600 C 258.231 97.784,258.190 99.554,258.004 98.000 C 257.685 95.328,257.482 86.135,257.749 86.433 C 257.831 86.525,257.992 89.750,258.106 93.600 M277.098 133.281 C 277.024 135.106,276.962 133.720,276.962 130.200 C 276.961 126.680,277.022 125.186,277.097 126.881 C 277.172 128.576,277.172 131.456,277.098 133.281 M258.061 249.400 C 257.776 253.701,257.706 254.074,257.658 251.560 C 257.596 248.312,258.114 241.528,258.297 243.200 C 258.357 243.750,258.251 246.540,258.061 249.400 M10.692 267.600 L 10.678 270.200 10.386 267.600 C 10.225 266.170,10.102 263.200,10.113 261.000 L 10.132 257.000 10.419 261.000 C 10.577 263.200,10.700 266.170,10.692 267.600 M98.000 258.004 C 99.554 258.190,97.784 258.231,93.600 258.106 C 89.750 257.992,86.525 257.831,86.433 257.749 C 86.135 257.482,95.328 257.685,98.000 258.004 M254.367 257.747 C 254.275 257.828,251.500 257.985,248.200 258.096 C 244.900 258.207,243.190 258.171,244.400 258.014 C 246.743 257.712,254.647 257.500,254.367 257.747 M133.519 277.097 C 131.824 277.172,128.944 277.172,127.119 277.098 C 125.294 277.024,126.680 276.962,130.200 276.962 C 133.720 276.961,135.214 277.022,133.519 277.097 " stroke="none" fill="#276eac" fill-rule="evenodd"></path><path id="path1" d="M79.830 10.050 C 71.196 10.498,71.122 10.756,79.652 10.671 C 83.531 10.632,86.525 10.487,86.307 10.348 C 86.069 10.198,86.129 10.009,86.455 9.880 C 86.755 9.761,86.820 9.676,86.600 9.691 C 86.380 9.706,83.333 9.868,79.830 10.050 M261.000 10.419 C 263.200 10.577,266.170 10.700,267.600 10.692 L 270.200 10.678 267.600 10.386 C 266.170 10.225,263.200 10.102,261.000 10.113 L 257.000 10.132 261.000 10.419 M10.233 77.500 C 10.097 80.085,9.930 83.279,9.861 84.598 C 9.791 85.917,9.816 86.751,9.916 86.453 C 10.023 86.130,10.199 86.071,10.348 86.307 C 10.487 86.525,10.646 83.576,10.701 79.752 C 10.818 71.748,10.591 70.658,10.233 77.500 M257.647 90.833 C 257.672 93.345,257.833 96.570,258.004 98.000 C 258.190 99.554,258.231 97.784,258.106 93.600 C 257.871 85.686,257.576 83.909,257.647 90.833 M276.962 130.200 C 276.962 133.720,277.024 135.106,277.098 133.281 C 277.172 131.456,277.172 128.576,277.097 126.881 C 277.022 125.186,276.961 126.680,276.962 130.200 M276.884 212.400 C 276.832 215.810,276.696 219.050,276.583 219.600 L 276.377 220.600 276.799 219.639 C 277.053 219.058,277.172 216.208,277.099 212.439 L 276.978 206.200 276.884 212.400 M257.894 245.360 C 257.732 247.099,257.626 249.889,257.658 251.560 C 257.706 254.074,257.776 253.701,258.061 249.400 C 258.454 243.468,258.336 240.604,257.894 245.360 M10.113 261.000 C 10.102 263.200,10.225 266.170,10.386 267.600 L 10.678 270.200 10.692 267.600 C 10.700 266.170,10.577 263.200,10.419 261.000 L 10.132 257.000 10.113 261.000 M86.433 257.749 C 86.525 257.831,89.750 257.992,93.600 258.106 C 97.784 258.231,99.554 258.190,98.000 258.004 C 95.328 257.685,86.135 257.482,86.433 257.749 M244.400 258.014 C 243.190 258.171,244.900 258.207,248.200 258.096 C 251.500 257.985,254.275 257.828,254.367 257.747 C 254.647 257.500,246.743 257.712,244.400 258.014 M212.800 276.800 L 206.200 277.030 212.600 277.087 C 216.120 277.118,219.360 276.989,219.800 276.800 C 220.240 276.611,220.330 276.482,220.000 276.513 C 219.670 276.544,216.430 276.673,212.800 276.800 M127.119 277.098 C 128.944 277.172,131.824 277.172,133.519 277.097 C 135.214 277.022,133.720 276.961,130.200 276.962 C 126.680 276.962,125.294 277.024,127.119 277.098 " stroke="none" fill="#28dcb4" fill-rule="evenodd"></path><path id="path2" d="M79.830 10.050 C 71.196 10.498,71.122 10.756,79.652 10.671 C 83.531 10.632,86.525 10.487,86.307 10.348 C 86.069 10.198,86.129 10.009,86.455 9.880 C 86.755 9.761,86.820 9.676,86.600 9.691 C 86.380 9.706,83.333 9.868,79.830 10.050 M261.000 10.419 C 263.200 10.577,266.170 10.700,267.600 10.692 L 270.200 10.678 267.600 10.386 C 266.170 10.225,263.200 10.102,261.000 10.113 L 257.000 10.132 261.000 10.419 M10.233 77.500 C 10.097 80.085,9.930 83.279,9.861 84.598 C 9.791 85.917,9.816 86.751,9.916 86.453 C 10.023 86.130,10.199 86.071,10.348 86.307 C 10.487 86.525,10.646 83.576,10.701 79.752 C 10.818 71.748,10.591 70.658,10.233 77.500 M257.647 90.833 C 257.672 93.345,257.833 96.570,258.004 98.000 C 258.190 99.554,258.231 97.784,258.106 93.600 C 257.871 85.686,257.576 83.909,257.647 90.833 M276.962 130.200 C 276.962 133.720,277.024 135.106,277.098 133.281 C 277.172 131.456,277.172 128.576,277.097 126.881 C 277.022 125.186,276.961 126.680,276.962 130.200 M276.884 212.400 C 276.832 215.810,276.696 219.050,276.583 219.600 L 276.377 220.600 276.799 219.639 C 277.053 219.058,277.172 216.208,277.099 212.439 L 276.978 206.200 276.884 212.400 M257.894 245.360 C 257.732 247.099,257.626 249.889,257.658 251.560 C 257.706 254.074,257.776 253.701,258.061 249.400 C 258.454 243.468,258.336 240.604,257.894 245.360 M10.113 261.000 C 10.102 263.200,10.225 266.170,10.386 267.600 L 10.678 270.200 10.692 267.600 C 10.700 266.170,10.577 263.200,10.419 261.000 L 10.132 257.000 10.113 261.000 M86.433 257.749 C 86.525 257.831,89.750 257.992,93.600 258.106 C 97.784 258.231,99.554 258.190,98.000 258.004 C 95.328 257.685,86.135 257.482,86.433 257.749 M244.400 258.014 C 243.190 258.171,244.900 258.207,248.200 258.096 C 251.500 257.985,254.275 257.828,254.367 257.747 C 254.647 257.500,246.743 257.712,244.400 258.014 M212.800 276.800 L 206.200 277.030 212.600 277.087 C 216.120 277.118,219.360 276.989,219.800 276.800 C 220.240 276.611,220.330 276.482,220.000 276.513 C 219.670 276.544,216.430 276.673,212.800 276.800 M127.119 277.098 C 128.944 277.172,131.824 277.172,133.519 277.097 C 135.214 277.022,133.720 276.961,130.200 276.962 C 126.680 276.962,125.294 277.024,127.119 277.098 " stroke="none" fill="#28dcb4" fill-rule="evenodd"></path><path id="path3" d="M79.830 10.050 C 71.196 10.498,71.122 10.756,79.652 10.671 C 83.531 10.632,86.525 10.487,86.307 10.348 C 86.069 10.198,86.129 10.009,86.455 9.880 C 86.755 9.761,86.820 9.676,86.600 9.691 C 86.380 9.706,83.333 9.868,79.830 10.050 M261.000 10.419 C 263.200 10.577,266.170 10.700,267.600 10.692 L 270.200 10.678 267.600 10.386 C 266.170 10.225,263.200 10.102,261.000 10.113 L 257.000 10.132 261.000 10.419 M10.233 77.500 C 10.097 80.085,9.930 83.279,9.861 84.598 C 9.791 85.917,9.816 86.751,9.916 86.453 C 10.023 86.130,10.199 86.071,10.348 86.307 C 10.487 86.525,10.646 83.576,10.701 79.752 C 10.818 71.748,10.591 70.658,10.233 77.500 M257.647 90.833 C 257.672 93.345,257.833 96.570,258.004 98.000 C 258.190 99.554,258.231 97.784,258.106 93.600 C 257.871 85.686,257.576 83.909,257.647 90.833 M276.962 130.200 C 276.962 133.720,277.024 135.106,277.098 133.281 C 277.172 131.456,277.172 128.576,277.097 126.881 C 277.022 125.186,276.961 126.680,276.962 130.200 M276.884 212.400 C 276.832 215.810,276.696 219.050,276.583 219.600 L 276.377 220.600 276.799 219.639 C 277.053 219.058,277.172 216.208,277.099 212.439 L 276.978 206.200 276.884 212.400 M257.894 245.360 C 257.732 247.099,257.626 249.889,257.658 251.560 C 257.706 254.074,257.776 253.701,258.061 249.400 C 258.454 243.468,258.336 240.604,257.894 245.360 M10.113 261.000 C 10.102 263.200,10.225 266.170,10.386 267.600 L 10.678 270.200 10.692 267.600 C 10.700 266.170,10.577 263.200,10.419 261.000 L 10.132 257.000 10.113 261.000 M86.433 257.749 C 86.525 257.831,89.750 257.992,93.600 258.106 C 97.784 258.231,99.554 258.190,98.000 258.004 C 95.328 257.685,86.135 257.482,86.433 257.749 M244.400 258.014 C 243.190 258.171,244.900 258.207,248.200 258.096 C 251.500 257.985,254.275 257.828,254.367 257.747 C 254.647 257.500,246.743 257.712,244.400 258.014 M212.800 276.800 L 206.200 277.030 212.600 277.087 C 216.120 277.118,219.360 276.989,219.800 276.800 C 220.240 276.611,220.330 276.482,220.000 276.513 C 219.670 276.544,216.430 276.673,212.800 276.800 M127.119 277.098 C 128.944 277.172,131.824 277.172,133.519 277.097 C 135.214 277.022,133.720 276.961,130.200 276.962 C 126.680 276.962,125.294 277.024,127.119 277.098 " stroke="none" fill="#28dcb4" fill-rule="evenodd"></path><path id="path4" d="M79.830 10.050 C 71.196 10.498,71.122 10.756,79.652 10.671 C 83.531 10.632,86.525 10.487,86.307 10.348 C 86.069 10.198,86.129 10.009,86.455 9.880 C 86.755 9.761,86.820 9.676,86.600 9.691 C 86.380 9.706,83.333 9.868,79.830 10.050 M261.000 10.419 C 263.200 10.577,266.170 10.700,267.600 10.692 L 270.200 10.678 267.600 10.386 C 266.170 10.225,263.200 10.102,261.000 10.113 L 257.000 10.132 261.000 10.419 M10.233 77.500 C 10.097 80.085,9.930 83.279,9.861 84.598 C 9.791 85.917,9.816 86.751,9.916 86.453 C 10.023 86.130,10.199 86.071,10.348 86.307 C 10.487 86.525,10.646 83.576,10.701 79.752 C 10.818 71.748,10.591 70.658,10.233 77.500 M257.647 90.833 C 257.672 93.345,257.833 96.570,258.004 98.000 C 258.190 99.554,258.231 97.784,258.106 93.600 C 257.871 85.686,257.576 83.909,257.647 90.833 M276.962 130.200 C 276.962 133.720,277.024 135.106,277.098 133.281 C 277.172 131.456,277.172 128.576,277.097 126.881 C 277.022 125.186,276.961 126.680,276.962 130.200 M276.884 212.400 C 276.832 215.810,276.696 219.050,276.583 219.600 L 276.377 220.600 276.799 219.639 C 277.053 219.058,277.172 216.208,277.099 212.439 L 276.978 206.200 276.884 212.400 M257.894 245.360 C 257.732 247.099,257.626 249.889,257.658 251.560 C 257.706 254.074,257.776 253.701,258.061 249.400 C 258.454 243.468,258.336 240.604,257.894 245.360 M10.113 261.000 C 10.102 263.200,10.225 266.170,10.386 267.600 L 10.678 270.200 10.692 267.600 C 10.700 266.170,10.577 263.200,10.419 261.000 L 10.132 257.000 10.113 261.000 M86.433 257.749 C 86.525 257.831,89.750 257.992,93.600 258.106 C 97.784 258.231,99.554 258.190,98.000 258.004 C 95.328 257.685,86.135 257.482,86.433 257.749 M244.400 258.014 C 243.190 258.171,244.900 258.207,248.200 258.096 C 251.500 257.985,254.275 257.828,254.367 257.747 C 254.647 257.500,246.743 257.712,244.400 258.014 M212.800 276.800 L 206.200 277.030 212.600 277.087 C 216.120 277.118,219.360 276.989,219.800 276.800 C 220.240 276.611,220.330 276.482,220.000 276.513 C 219.670 276.544,216.430 276.673,212.800 276.800 M127.119 277.098 C 128.944 277.172,131.824 277.172,133.519 277.097 C 135.214 277.022,133.720 276.961,130.200 276.962 C 126.680 276.962,125.294 277.024,127.119 277.098 " stroke="none" fill="#28dcb4" fill-rule="evenodd"></path></g></svg>